<svg width="15" height="17" viewBox="0 0 15 17" fill="none" xmlns="http://www.w3.org/2000/svg">
<path d="M2.20067 16.0206C1.80074 16.0206 1.46224 15.8821 1.18516 15.605C0.908073 15.3279 0.769531 14.9894 0.769531 14.5895V3.9934C0.769531 3.59348 0.908073 3.25498 1.18516 2.97789C1.46224 2.70081 1.80074 2.56227 2.20067 2.56227H3.29673V1.49649C3.29673 1.32298 3.35485 1.1781 3.47109 1.06186C3.58734 0.945751 3.73221 0.887695 3.90572 0.887695C4.07936 0.887695 4.22423 0.945751 4.34034 1.06186C4.45659 1.1781 4.51471 1.32298 4.51471 1.49649V2.56227H10.5132V1.48145C10.5132 1.31295 10.57 1.17184 10.6836 1.0581C10.7973 0.944497 10.9384 0.887695 11.1069 0.887695C11.2754 0.887695 11.4165 0.944497 11.5301 1.0581C11.6438 1.17184 11.7007 1.31295 11.7007 1.48145V2.56227H12.7967C13.1967 2.56227 13.5352 2.70081 13.8122 2.97789C14.0893 3.25498 14.2279 3.59348 14.2279 3.9934V14.5895C14.2279 14.9894 14.0893 15.3279 13.8122 15.605C13.5352 15.8821 13.1967 16.0206 12.7967 16.0206H2.20067ZM2.20067 14.8331H12.7967C12.8577 14.8331 12.9135 14.8077 12.9642 14.7569C13.015 14.7062 13.0404 14.6504 13.0404 14.5895V7.16007H1.95703V14.5895C1.95703 14.6504 1.98243 14.7062 2.03323 14.7569C2.0839 14.8077 2.13971 14.8331 2.20067 14.8331ZM1.95703 5.97257H13.0404V3.9934C13.0404 3.93245 13.015 3.87663 12.9642 3.82597C12.9135 3.77517 12.8577 3.74977 12.7967 3.74977H2.20067C2.13971 3.74977 2.0839 3.77517 2.03323 3.82597C1.98243 3.87663 1.95703 3.93245 1.95703 3.9934V5.97257Z" fill="#01214F"/>
</svg>
