<svg width="9" height="5" viewBox="0 0 9 5" fill="none" xmlns="http://www.w3.org/2000/svg">
<path d="M4.50079 3.23368L7.55554 0.178738C7.65942 0.0749885 7.78998 0.0218635 7.94723 0.019364C8.10436 0.0169888 8.23729 0.0701133 8.34604 0.178738C8.45467 0.287489 8.50898 0.419239 8.50898 0.573989C8.50898 0.728739 8.45467 0.860489 8.34604 0.969239L4.97536 4.33993C4.90511 4.41005 4.83104 4.45955 4.75317 4.48843C4.67529 4.5173 4.59117 4.53174 4.50079 4.53174C4.41042 4.53174 4.32629 4.5173 4.24842 4.48843C4.17054 4.45955 4.09648 4.41005 4.02623 4.33993L0.655545 0.969239C0.551795 0.865364 0.49867 0.734801 0.49617 0.577551C0.493795 0.420426 0.54692 0.287488 0.655545 0.178738C0.764295 0.0701132 0.896045 0.015801 1.05079 0.015801C1.20554 0.015801 1.3373 0.0701132 1.44605 0.178738L4.50079 3.23368Z" fill="#142B4E"/>
</svg>
