<svg width="17" height="15" viewBox="0 0 17 15" fill="none" xmlns="http://www.w3.org/2000/svg">
<path d="M5.48423 14.2298C5.80802 14.2298 6.08688 14.1129 6.32082 13.8789C6.55476 13.645 6.67173 13.3661 6.67173 13.0423V9.72345C6.67173 9.39966 6.55476 9.1208 6.32082 8.88686C6.08688 8.65292 5.80802 8.53595 5.48423 8.53595H2.16536C1.84157 8.53595 1.56271 8.65292 1.32877 8.88686C1.09483 9.1208 0.977863 9.39966 0.977863 9.72345V13.0423C0.977863 13.3661 1.09483 13.645 1.32877 13.8789C1.56271 14.1129 1.84157 14.2298 2.16536 14.2298H5.48423ZM5.48423 13.0423H2.16536V9.72345H5.48423V13.0423ZM15.4258 11.9765C15.594 11.9765 15.735 11.9196 15.8487 11.8057C15.9626 11.692 16.0195 11.551 16.0195 11.3826C16.0195 11.2142 15.9626 11.0732 15.8487 10.9596C15.735 10.8459 15.594 10.789 15.4258 10.789H9.79268C9.62445 10.789 9.48346 10.846 9.36973 10.9598C9.25586 11.0737 9.19893 11.2148 9.19893 11.3832C9.19893 11.5514 9.25586 11.6924 9.36973 11.8061C9.48346 11.9197 9.62445 11.9765 9.79268 11.9765H15.4258ZM5.48423 6.46535C5.80802 6.46535 6.08688 6.34838 6.32082 6.11444C6.55476 5.88051 6.67173 5.60164 6.67173 5.27785V1.95898C6.67173 1.63519 6.55476 1.35633 6.32082 1.12239C6.08688 0.888453 5.80802 0.771484 5.48423 0.771484H2.16536C1.84157 0.771484 1.56271 0.888453 1.32877 1.12239C1.09483 1.35633 0.977863 1.63519 0.977863 1.95898V5.27785C0.977863 5.60164 1.09483 5.88051 1.32877 6.11444C1.56271 6.34838 1.84157 6.46535 2.16536 6.46535H5.48423ZM5.48423 5.27785H2.16536V1.95898H5.48423V5.27785ZM15.4258 4.21227C15.594 4.21227 15.735 4.15533 15.8487 4.04146C15.9626 3.9276 16.0195 3.78648 16.0195 3.61812C16.0195 3.44989 15.9626 3.30891 15.8487 3.19517C15.735 3.08157 15.594 3.02477 15.4258 3.02477H9.79268C9.62445 3.02477 9.48346 3.0817 9.36973 3.19557C9.25586 3.3093 9.19893 3.45035 9.19893 3.61871C9.19893 3.78707 9.25586 3.92806 9.36973 4.04166C9.48346 4.1554 9.62445 4.21227 9.79268 4.21227H15.4258Z" fill="#01214F"/>
</svg>
