<svg width="19" height="19" viewBox="0 0 19 19" fill="none" xmlns="http://www.w3.org/2000/svg">
<mask id="mask0_828_1668" style="mask-type:alpha" maskUnits="userSpaceOnUse" x="0" y="0" width="19" height="19">
<rect width="19" height="19" fill="white"/>
</mask>
<g mask="url(#mask0_828_1668)">
<path d="M8.89117 12.6822L7.73712 11.207C7.62853 11.0689 7.48669 11.0012 7.3116 11.0037C7.13651 11.0063 6.99467 11.0767 6.88608 11.2147L5.78091 12.6884C5.68552 12.8102 5.67232 12.936 5.74133 13.0658C5.81034 13.1958 5.91642 13.2607 6.05958 13.2607H13.0017C13.1449 13.2607 13.2509 13.1958 13.32 13.0658C13.389 12.936 13.3783 12.8102 13.2879 12.6884L11.4427 10.2281C11.3534 10.2118 11.2621 10.1915 11.1688 10.1671C11.0754 10.1428 10.984 10.1145 10.8947 10.082L8.89117 12.6822ZM4.20213 16.2295C3.80221 16.2295 3.4637 16.091 3.18662 15.8139C2.90954 15.5368 2.771 15.1983 2.771 14.7984V4.20229C2.771 3.80237 2.90954 3.46387 3.18662 3.18678C3.4637 2.9097 3.80221 2.77116 4.20213 2.77116H7.32308C7.49157 2.77116 7.63262 2.82803 7.74623 2.94176C7.85996 3.05537 7.91683 3.19642 7.91683 3.36491C7.91683 3.5334 7.85996 3.67445 7.74623 3.78805C7.63262 3.90179 7.49157 3.95866 7.32308 3.95866H4.20213C4.14117 3.95866 4.08536 3.98406 4.03469 4.03486C3.9839 4.08552 3.9585 4.14134 3.9585 4.20229V14.7984C3.9585 14.8593 3.9839 14.9151 4.03469 14.9658C4.08536 15.0166 4.14117 15.042 4.20213 15.042H14.7982C14.8592 15.042 14.915 15.0166 14.9656 14.9658C15.0164 14.9151 15.0418 14.8593 15.0418 14.7984V11.9681C15.0418 11.7997 15.0987 11.6586 15.2124 11.545C15.326 11.4313 15.4671 11.3744 15.6356 11.3744C15.8041 11.3744 15.9451 11.4313 16.0587 11.545C16.1725 11.6586 16.2293 11.7997 16.2293 11.9681V14.7984C16.2293 15.1983 16.0908 15.5368 15.8137 15.8139C15.5366 16.091 15.1981 16.2295 14.7982 16.2295H4.20213ZM12.7217 8.31283C11.8467 8.31283 11.1043 8.00579 10.4943 7.39172C9.88432 6.77765 9.57933 6.02913 9.57933 5.14616C9.57933 4.26319 9.88636 3.51467 10.5004 2.9006C11.1145 2.28653 11.863 1.97949 12.746 1.97949C13.629 1.97949 14.3775 2.28653 14.9916 2.9006C15.6056 3.51467 15.9127 4.26319 15.9127 5.14616C15.9127 5.48209 15.8624 5.80357 15.7619 6.11061C15.6614 6.41764 15.527 6.70713 15.3585 6.97906L17.3711 8.99188C17.4808 9.10152 17.5368 9.23927 17.5393 9.40513C17.5419 9.57111 17.4858 9.71144 17.3711 9.8261C17.2565 9.94076 17.1174 9.99809 16.9539 9.99809C16.7906 9.99809 16.6516 9.94076 16.5369 9.8261L14.4847 7.7739C14.2126 7.96363 13.9348 8.10092 13.6511 8.18576C13.3674 8.27047 13.0576 8.31283 12.7217 8.31283ZM12.746 7.12533C13.3002 7.12533 13.7686 6.93401 14.1512 6.55137C14.5338 6.16873 14.7252 5.70033 14.7252 5.14616C14.7252 4.59199 14.5338 4.12359 14.1512 3.74095C13.7686 3.35831 13.3002 3.16699 12.746 3.16699C12.1918 3.16699 11.7234 3.35831 11.3408 3.74095C10.9581 4.12359 10.7668 4.59199 10.7668 5.14616C10.7668 5.70033 10.9581 6.16873 11.3408 6.55137C11.7234 6.93401 12.1918 7.12533 12.746 7.12533Z" fill="#01214F"/>
</g>
</svg>
