<svg width="15" height="17" viewBox="0 0 15 17" fill="none" xmlns="http://www.w3.org/2000/svg">
<path d="M2.15712 13.9496C1.98889 13.9496 1.84791 13.8927 1.73417 13.779C1.6203 13.6651 1.56337 13.524 1.56337 13.3556C1.56337 13.1874 1.6203 13.0464 1.73417 12.9327C1.84791 12.8191 1.98889 12.7623 2.15712 12.7623H2.9945V6.85506C2.9945 5.7904 3.32311 4.84904 3.98033 4.03098C4.63741 3.21293 5.48106 2.6897 6.51129 2.46131V1.9681C6.51129 1.69326 6.60741 1.45959 6.79965 1.26708C6.99189 1.0747 7.2253 0.978516 7.49988 0.978516C7.77459 0.978516 8.00833 1.0747 8.2011 1.26708C8.394 1.45959 8.49045 1.69326 8.49045 1.9681V2.46131C9.52068 2.6897 10.3643 3.21293 11.0214 4.03098C11.6786 4.84904 12.0072 5.7904 12.0072 6.85506V12.7623H12.8446C13.0129 12.7623 13.1538 12.8191 13.2676 12.9329C13.3814 13.0468 13.4384 13.1879 13.4384 13.3562C13.4384 13.5245 13.3814 13.6654 13.2676 13.7792C13.1538 13.8928 13.0129 13.9496 12.8446 13.9496H2.15712ZM7.49948 16.1724C7.10563 16.1724 6.76891 16.0323 6.48932 15.752C6.2096 15.4718 6.06973 15.1348 6.06973 14.7412H8.932C8.932 15.1362 8.79175 15.4734 8.51123 15.753C8.23072 16.0326 7.89347 16.1724 7.49948 16.1724ZM4.182 12.7623H10.8197V6.85506C10.8197 5.93857 10.4957 5.15634 9.84777 4.50836C9.19965 3.86025 8.41736 3.53619 7.50087 3.53619C6.58438 3.53619 5.80209 3.86025 5.15397 4.50836C4.50599 5.15634 4.182 5.93857 4.182 6.85506V12.7623ZM0.668983 6.84754C0.497983 6.84754 0.355615 6.78335 0.241879 6.65496C0.128275 6.52658 0.0795872 6.37557 0.0958164 6.20193C0.175907 5.28848 0.412351 4.43289 0.80515 3.63515C1.19795 2.83741 1.70593 2.13712 2.32911 1.53427C2.46013 1.41961 2.60784 1.36247 2.77224 1.36287C2.93665 1.3634 3.07209 1.43194 3.17857 1.56851C3.28518 1.70507 3.33037 1.85351 3.31414 2.01382C3.29791 2.17413 3.22435 2.31571 3.09346 2.43855C2.5992 2.93176 2.19723 3.50037 1.88756 4.14439C1.57801 4.78841 1.3832 5.48138 1.30311 6.22331C1.28173 6.39682 1.21345 6.54426 1.09826 6.66565C0.983077 6.78691 0.839983 6.84754 0.668983 6.84754ZM14.3365 6.84754C14.163 6.84754 14.0187 6.78691 13.9035 6.66565C13.7883 6.54426 13.72 6.39682 13.6986 6.22331C13.6185 5.48138 13.425 4.78967 13.1179 4.14815C12.8109 3.50677 12.4103 2.93941 11.916 2.44607C11.7833 2.32376 11.7067 2.18106 11.6862 2.01797C11.6658 1.85489 11.7088 1.70507 11.8155 1.56851C11.9221 1.43194 12.0588 1.36472 12.2257 1.36683C12.3926 1.36881 12.5416 1.42713 12.6726 1.54179C13.2958 2.14477 13.8038 2.84381 14.1966 3.63891C14.5894 4.43414 14.8258 5.28848 14.9059 6.20193C14.9222 6.37557 14.8734 6.52658 14.7597 6.65496C14.6458 6.78335 14.5047 6.84754 14.3365 6.84754Z" fill="#01214F"/>
</svg>
