<svg width="17" height="12" viewBox="0 0 17 12" fill="none" xmlns="http://www.w3.org/2000/svg">
<path d="M14.0383 6.61706H1.2002C1.02311 6.61706 0.87464 6.5572 0.754779 6.43747C0.635056 6.31761 0.575195 6.16907 0.575195 5.99185C0.575195 5.81477 0.635056 5.66636 0.754779 5.54664C0.87464 5.42706 1.02311 5.36727 1.2002 5.36727H14.0383L10.4244 1.7406C10.3109 1.62657 10.2515 1.484 10.2462 1.31289C10.2411 1.14178 10.3005 0.993793 10.4244 0.868932C10.538 0.754488 10.6826 0.697266 10.8581 0.697266C11.0338 0.697266 11.1793 0.754974 11.2946 0.870391L15.8892 5.46497C15.9672 5.54289 16.0222 5.62553 16.0542 5.71289C16.0862 5.80011 16.1023 5.89359 16.1023 5.99331C16.1023 6.09303 16.0862 6.18775 16.0539 6.27747C16.0216 6.3672 15.9667 6.45053 15.8892 6.52747L11.2946 11.1221C11.1805 11.2373 11.038 11.295 10.8669 11.295C10.6959 11.295 10.5484 11.2373 10.4244 11.1221C10.2952 10.998 10.2319 10.8495 10.2346 10.6764C10.2372 10.5034 10.3005 10.3549 10.4244 10.231L14.0383 6.61706Z" fill="#F6F2FB"/>
</svg>
