<svg width="16" height="16" viewBox="0 0 16 16" fill="none" xmlns="http://www.w3.org/2000/svg">
<path d="M6.99611 11.8133C8.33653 11.8133 9.47488 11.3442 10.4112 10.4059C11.3474 9.46769 11.8156 8.32841 11.8156 6.98812C11.8156 5.6477 11.347 4.50809 10.4098 3.56931C9.47258 2.63053 8.33455 2.16113 6.99571 2.16113C5.65687 2.16113 4.51799 2.63019 3.57908 3.56832C2.64029 4.50658 2.1709 5.64592 2.1709 6.98634C2.1709 8.32663 2.64003 9.46617 3.57828 10.405C4.51654 11.3439 5.65582 11.8133 6.99611 11.8133ZM6.9971 13.0008C5.32536 13.0008 3.90518 12.4164 2.73655 11.2477C1.56778 10.0789 0.983398 8.65874 0.983398 6.98713C0.983398 5.31553 1.56778 3.89534 2.73655 2.72658C3.90518 1.55795 5.32536 0.973633 6.9971 0.973633C8.6687 0.973633 10.0876 1.55795 11.2537 2.72658C12.42 3.89534 13.0031 5.31553 13.0031 6.98713C13.0031 7.71507 12.8838 8.40072 12.6452 9.04408C12.4067 9.68744 12.0738 10.2695 11.6466 10.7903L15.6156 14.7591C15.7333 14.8755 15.7921 15.0137 15.7921 15.1738C15.7921 15.3338 15.7327 15.4752 15.614 15.5981C15.4951 15.7208 15.354 15.7822 15.1907 15.7822C15.0273 15.7822 14.8842 15.7208 14.7614 15.5981L10.8001 11.6366C10.2794 12.069 9.69741 12.4044 9.05405 12.643C8.41055 12.8815 7.7249 13.0008 6.9971 13.0008Z" fill="#01214F"/>
</svg>
