<svg width="16" height="16" viewBox="0 0 16 16" fill="none" xmlns="http://www.w3.org/2000/svg">
<path d="M13.4159 15.1969C13.2472 15.1969 13.106 15.1399 12.9924 15.0259C12.8787 14.9117 12.8218 14.7704 12.8218 14.6019C12.8218 14.5226 12.8368 14.4437 12.8667 14.3652C12.8967 14.2867 12.9365 14.2229 12.9863 14.1739C13.5588 13.6015 14.0028 12.9471 14.3184 12.2107C14.634 11.4743 14.7918 10.6797 14.7918 9.82681C14.7918 8.98672 14.634 8.1965 14.3184 7.45616C14.0028 6.71569 13.5588 6.05927 12.9863 5.48689C12.9365 5.43741 12.8967 5.37316 12.8667 5.29412C12.8368 5.21509 12.8218 5.13599 12.8218 5.05682C12.8218 4.88886 12.8788 4.748 12.993 4.63427C13.107 4.52066 13.2483 4.46386 13.4169 4.46386C13.4962 4.46386 13.5729 4.48101 13.6471 4.51532C13.7214 4.54963 13.7833 4.59132 13.8327 4.6404C14.5148 5.32242 15.0431 6.10848 15.4177 6.99858C15.7921 7.88868 15.9793 8.83155 15.9793 9.82721C15.9793 10.8351 15.7921 11.7821 15.4177 12.6681C15.0431 13.5542 14.5148 14.3383 13.8327 15.0203C13.7831 15.0694 13.7211 15.1111 13.6467 15.1454C13.5723 15.1797 13.4954 15.1969 13.4159 15.1969ZM11.3338 13.1158C11.1657 13.1158 11.0249 13.0587 10.9113 12.9446C10.7976 12.8306 10.7407 12.6893 10.7407 12.5207C10.7407 12.4414 10.7578 12.3646 10.7921 12.2905C10.8266 12.2162 10.8683 12.1543 10.9172 12.1048C11.2198 11.8024 11.454 11.4571 11.6198 11.0689C11.7858 10.6806 11.8688 10.2678 11.8688 9.83037C11.8688 9.39284 11.7838 8.97999 11.6139 8.59181C11.4438 8.20363 11.2116 7.85833 10.9172 7.55591C10.8584 7.50617 10.8142 7.44409 10.7848 7.36967C10.7554 7.29526 10.7407 7.2184 10.7407 7.1391C10.7407 6.97035 10.7977 6.8291 10.9117 6.71536C11.0258 6.60176 11.1671 6.54496 11.3356 6.54496C11.4151 6.54496 11.494 6.55967 11.5725 6.58909C11.6509 6.61852 11.7146 6.66265 11.7637 6.7215C12.1692 7.12696 12.486 7.59576 12.7141 8.12789C12.9423 8.66003 13.0563 9.22752 13.0563 9.83037C13.0563 10.4332 12.9423 11.0007 12.7141 11.5329C12.486 12.065 12.1692 12.5338 11.7637 12.9392C11.7144 12.9981 11.6501 13.0422 11.571 13.0717C11.4919 13.1011 11.4129 13.1158 11.3338 13.1158ZM5.53548 9.75279H3.75423V10.0695C3.75423 10.5414 3.90623 10.9522 4.21023 11.3019C4.51423 11.6515 4.8941 11.8857 5.34984 12.0045L5.58734 12.0639C6.05917 12.1856 6.31923 12.4952 6.36752 12.9925C6.41568 13.4898 6.20965 13.8497 5.74943 14.0721C5.09723 14.3947 4.42075 14.624 3.71999 14.7599C3.0191 14.8959 2.30482 14.9786 1.57715 15.0081C1.40866 15.0163 1.26761 14.9634 1.154 14.8495C1.04027 14.7357 0.983398 14.5946 0.983398 14.4264C0.983398 14.258 1.04033 14.1174 1.1542 14.0046C1.26794 13.8918 1.40892 13.8305 1.57715 13.8206C2.10796 13.7993 2.6302 13.7483 3.14386 13.6676C3.65738 13.587 4.16636 13.4548 4.67078 13.2712C4.73174 13.2457 4.75965 13.1987 4.7545 13.1302C4.74949 13.0618 4.70384 13.0174 4.61754 12.997C4.00044 12.7544 3.50433 12.3677 3.12921 11.8369C2.75422 11.306 2.56673 10.7118 2.56673 10.0542V9.28076C2.56673 9.07809 2.63534 8.90815 2.77257 8.77092C2.90966 8.63383 3.0796 8.56529 3.2824 8.56529H5.48976C5.56088 8.56529 5.61927 8.54246 5.66492 8.49681C5.71057 8.45103 5.7334 8.39264 5.7334 8.32165V6.98196C5.7334 6.77916 5.80201 6.60921 5.93923 6.47212C6.07632 6.3349 6.24627 6.26629 6.44907 6.26629H8.13116C8.2226 6.26629 8.2924 6.22954 8.34056 6.15605C8.38885 6.08242 8.39267 6.00497 8.35203 5.9237L6.21453 1.5727C6.13946 1.42558 6.12804 1.27635 6.18029 1.12501C6.23254 0.9738 6.33223 0.858151 6.47935 0.778061C6.6266 0.697838 6.77833 0.685106 6.93455 0.739863C7.09091 0.794752 7.20662 0.895755 7.2817 1.04287L9.42692 5.40159C9.66033 5.87857 9.64001 6.33985 9.36596 6.78542C9.09204 7.231 8.68704 7.45379 8.15095 7.45379H6.9209V8.36737C6.9209 8.75199 6.78618 9.07901 6.51675 9.34845C6.24719 9.61801 5.9201 9.75279 5.53548 9.75279Z" fill="#01214F"/>
</svg>
