<svg width="19" height="19" viewBox="0 0 19 19" fill="none" xmlns="http://www.w3.org/2000/svg">
<path d="M14.7876 4.25774C14.0999 3.56332 13.2809 3.01271 12.3782 2.63801C11.4756 2.2633 10.5074 2.072 9.5301 2.07524C5.4351 2.07524 2.0976 5.41274 2.0976 9.50774C2.0976 10.8202 2.4426 12.0952 3.0876 13.2202L2.0376 17.0752L5.9751 16.0402C7.0626 16.6327 8.2851 16.9477 9.5301 16.9477C13.6251 16.9477 16.9626 13.6102 16.9626 9.51524C16.9626 7.52774 16.1901 5.66024 14.7876 4.25774ZM9.5301 15.6877C8.4201 15.6877 7.3326 15.3877 6.3801 14.8252L6.1551 14.6902L3.8151 15.3052L4.4376 13.0252L4.2876 12.7927C3.67076 11.808 3.34329 10.6697 3.3426 9.50774C3.3426 6.10274 6.1176 3.32774 9.5226 3.32774C11.1726 3.32774 12.7251 3.97274 13.8876 5.14274C14.4633 5.71563 14.9195 6.39714 15.2298 7.14773C15.5401 7.89832 15.6982 8.70305 15.6951 9.51524C15.7101 12.9202 12.9351 15.6877 9.5301 15.6877ZM12.9201 11.0677C12.7326 10.9777 11.8176 10.5277 11.6526 10.4602C11.4801 10.4002 11.3601 10.3702 11.2326 10.5502C11.1051 10.7377 10.7526 11.1577 10.6476 11.2777C10.5426 11.4052 10.4301 11.4202 10.2426 11.3227C10.0551 11.2327 9.4551 11.0302 8.7501 10.4002C8.1951 9.90524 7.8276 9.29774 7.7151 9.11024C7.6101 8.92274 7.7001 8.82524 7.7976 8.72774C7.8801 8.64524 7.9851 8.51024 8.0751 8.40524C8.1651 8.30024 8.2026 8.21774 8.2626 8.09774C8.3226 7.97024 8.2926 7.86524 8.2476 7.77524C8.2026 7.68524 7.8276 6.77024 7.6776 6.39524C7.5276 6.03524 7.3701 6.08024 7.2576 6.07274H6.8976C6.7701 6.07274 6.5751 6.11774 6.4026 6.30524C6.2376 6.49274 5.7576 6.94274 5.7576 7.85774C5.7576 8.77274 6.4251 9.65774 6.5151 9.77774C6.6051 9.90524 7.8276 11.7802 9.6876 12.5827C10.1301 12.7777 10.4751 12.8902 10.7451 12.9727C11.1876 13.1152 11.5926 13.0927 11.9151 13.0477C12.2751 12.9952 13.0176 12.5977 13.1676 12.1627C13.3251 11.7277 13.3251 11.3602 13.2726 11.2777C13.2201 11.1952 13.1076 11.1577 12.9201 11.0677Z" fill="white"/>
</svg>
