<svg width="16" height="17" viewBox="0 0 16 17" fill="none" xmlns="http://www.w3.org/2000/svg">
<mask id="mask0_197_3341" style="mask-type:alpha" maskUnits="userSpaceOnUse" x="0" y="0" width="16" height="17">
<rect y="0.5" width="16" height="16" fill="#D9D9D9"/>
</mask>
<g mask="url(#mask0_197_3341)">
<path d="M3.53866 14.1668C3.20188 14.1668 2.91683 14.0502 2.6835 13.8168C2.45016 13.5835 2.3335 13.2984 2.3335 12.9617V4.03866C2.3335 3.70188 2.45016 3.41683 2.6835 3.1835C2.91683 2.95016 3.20188 2.8335 3.53866 2.8335H12.4617C12.7984 2.8335 13.0835 2.95016 13.3168 3.1835C13.5502 3.41683 13.6668 3.70188 13.6668 4.03866V12.9617C13.6668 13.2984 13.5502 13.5835 13.3168 13.8168C13.0835 14.0502 12.7984 14.1668 12.4617 14.1668H3.53866ZM3.53866 13.1668H12.4617C12.513 13.1668 12.56 13.1454 12.6027 13.1027C12.6454 13.06 12.6668 13.013 12.6668 12.9617V4.03866C12.6668 3.98733 12.6454 3.94033 12.6027 3.89766C12.56 3.85488 12.513 3.8335 12.4617 3.8335H3.53866C3.48733 3.8335 3.44033 3.85488 3.39766 3.89766C3.35488 3.94033 3.3335 3.98733 3.3335 4.03866V12.9617C3.3335 13.013 3.35488 13.06 3.39766 13.1027C3.44033 13.1454 3.48733 13.1668 3.53866 13.1668ZM5.3335 11.6668H8.66683C8.80872 11.6668 8.9275 11.6189 9.02316 11.5232C9.11894 11.4275 9.16683 11.3087 9.16683 11.1668C9.16683 11.0249 9.11894 10.9062 9.02316 10.8105C8.9275 10.7147 8.80872 10.6668 8.66683 10.6668H5.3335C5.19161 10.6668 5.07283 10.7147 4.97716 10.8105C4.88138 10.9062 4.8335 11.0249 4.8335 11.1668C4.8335 11.3087 4.88138 11.4275 4.97716 11.5232C5.07283 11.6189 5.19161 11.6668 5.3335 11.6668ZM5.3335 9.00016H10.6668C10.8087 9.00016 10.9275 8.95227 11.0232 8.8565C11.1189 8.76083 11.1668 8.64205 11.1668 8.50016C11.1668 8.35827 11.1189 8.2395 11.0232 8.14383C10.9275 8.04805 10.8087 8.00016 10.6668 8.00016H5.3335C5.19161 8.00016 5.07283 8.04805 4.97716 8.14383C4.88138 8.2395 4.8335 8.35827 4.8335 8.50016C4.8335 8.64205 4.88138 8.76083 4.97716 8.8565C5.07283 8.95227 5.19161 9.00016 5.3335 9.00016ZM5.3335 6.3335H10.6668C10.8087 6.3335 10.9275 6.28561 11.0232 6.18983C11.1189 6.09416 11.1668 5.97538 11.1668 5.8335C11.1668 5.69161 11.1189 5.57283 11.0232 5.47716C10.9275 5.38138 10.8087 5.3335 10.6668 5.3335H5.3335C5.19161 5.3335 5.07283 5.38138 4.97716 5.47716C4.88138 5.57283 4.8335 5.69161 4.8335 5.8335C4.8335 5.97538 4.88138 6.09416 4.97716 6.18983C5.07283 6.28561 5.19161 6.3335 5.3335 6.3335Z" fill="#557BF4"/>
</g>
</svg>
