<svg width="16" height="17" viewBox="0 0 16 17" fill="none" xmlns="http://www.w3.org/2000/svg">
<mask id="mask0_1611_101" style="mask-type:alpha" maskUnits="userSpaceOnUse" x="0" y="0" width="16" height="17">
<rect y="0.5" width="16" height="16" fill="#D9D9D9"/>
</mask>
<g mask="url(#mask0_1611_101)">
<path d="M3.53866 14.8333C3.20188 14.8333 2.91683 14.7167 2.6835 14.4833C2.45016 14.25 2.3335 13.965 2.3335 13.6282V4.70518C2.3335 4.3684 2.45016 4.08334 2.6835 3.85001C2.91683 3.61668 3.20188 3.50001 3.53866 3.50001H4.46166V2.60251C4.46166 2.4564 4.51061 2.3344 4.6085 2.23651C4.70638 2.13873 4.82838 2.08984 4.9745 2.08984C5.12072 2.08984 5.24272 2.13873 5.3405 2.23651C5.43839 2.3344 5.48733 2.4564 5.48733 2.60251V3.50001H10.5387V2.58984C10.5387 2.44795 10.5865 2.32912 10.6822 2.23334C10.7779 2.13768 10.8968 2.08984 11.0387 2.08984C11.1806 2.08984 11.2993 2.13768 11.395 2.23334C11.4908 2.32912 11.5387 2.44795 11.5387 2.58984V3.50001H12.4617C12.7984 3.50001 13.0835 3.61668 13.3168 3.85001C13.5502 4.08334 13.6668 4.3684 13.6668 4.70518V13.6282C13.6668 13.965 13.5502 14.25 13.3168 14.4833C13.0835 14.7167 12.7984 14.8333 12.4617 14.8333H3.53866ZM3.53866 13.8333H12.4617C12.513 13.8333 12.56 13.812 12.6027 13.7692C12.6454 13.7265 12.6668 13.6795 12.6668 13.6282V7.37184H3.3335V13.6282C3.3335 13.6795 3.35488 13.7265 3.39766 13.7692C3.44033 13.812 3.48733 13.8333 3.53866 13.8333ZM3.3335 6.37184H12.6668V4.70518C12.6668 4.65384 12.6454 4.60684 12.6027 4.56418C12.56 4.5214 12.513 4.50001 12.4617 4.50001H3.53866C3.48733 4.50001 3.44033 4.5214 3.39766 4.56418C3.35488 4.60684 3.3335 4.65384 3.3335 4.70518V6.37184Z" fill="#FF377A"/>
</g>
</svg>
