<svg width="355" height="159" viewBox="0 0 355 159" fill="none" xmlns="http://www.w3.org/2000/svg">
<rect x="30.7256" width="314.593" height="62.629" rx="8.25162" fill="#DCF7C5"/>
<path d="M54.2311 27.3145H52.8124V17.9236H52.7533L48.8686 27.23H47.5849L43.7002 17.9236H43.6411V27.3145H42.2223V15.1283H43.9873L48.193 25.2961H48.2605L52.4661 15.1283H54.2311V27.3145ZM59.565 19.6548C58.1885 19.6548 57.2258 20.7105 57.1329 22.1714H61.9043C61.8705 20.702 60.95 19.6548 59.565 19.6548ZM61.8705 24.7978H63.3146C63.0613 26.3348 61.5749 27.4665 59.6579 27.4665C57.1413 27.4665 55.6128 25.7183 55.6128 22.9568C55.6128 20.2291 57.1666 18.3796 59.5904 18.3796C61.9634 18.3796 63.4244 20.1024 63.4244 22.7626V23.32H57.1244V23.4044C57.1244 25.085 58.1125 26.1913 59.6917 26.1913C60.8064 26.1913 61.6256 25.6255 61.8705 24.7978ZM64.5864 27.3145V18.5316H65.9714V19.9335H66.0052C66.419 19.0046 67.3142 18.3796 68.4965 18.3796C69.6957 18.3796 70.5824 18.9877 70.9624 20.0517H70.9962C71.486 19.0046 72.5163 18.3796 73.7493 18.3796C75.4889 18.3796 76.6121 19.5113 76.6121 21.2509V27.3145H75.1427V21.5887C75.1427 20.3895 74.4755 19.6802 73.3186 19.6802C72.1532 19.6802 71.334 20.5416 71.334 21.7323V27.3145H69.8646V21.4283C69.8646 20.3727 69.1552 19.6802 68.0658 19.6802C66.9004 19.6802 66.0559 20.5922 66.0559 21.8083V27.3145H64.5864ZM81.8024 27.4665C79.3703 27.4665 77.7319 25.7183 77.7319 22.923C77.7319 20.1193 79.3703 18.3796 81.8024 18.3796C84.2261 18.3796 85.8645 20.1193 85.8645 22.923C85.8645 25.7183 84.2261 27.4665 81.8024 27.4665ZM81.8024 26.1744C83.3563 26.1744 84.3697 24.9921 84.3697 22.923C84.3697 20.854 83.3563 19.6717 81.8024 19.6717C80.2485 19.6717 79.2267 20.854 79.2267 22.923C79.2267 24.9921 80.2485 26.1744 81.8024 26.1744ZM87.0265 27.3145V18.5316H88.4115V19.9673H88.4453C88.7324 18.9961 89.5431 18.3796 90.5734 18.3796C90.8268 18.3796 91.0463 18.4219 91.1646 18.4387V19.866C91.0463 19.8237 90.7339 19.7815 90.3792 19.7815C89.2391 19.7815 88.4959 20.6007 88.4959 21.8421V27.3145H87.0265ZM94.7672 26.2166C96.1522 26.2166 97.2163 25.2454 97.2163 23.9787V23.2608L94.8685 23.4044C93.6862 23.4804 93.0106 24.004 93.0106 24.8316C93.0106 25.6677 93.7116 26.2166 94.7672 26.2166ZM94.4379 27.4665C92.6897 27.4665 91.5159 26.4108 91.5159 24.8316C91.5159 23.3284 92.6728 22.3826 94.6996 22.2643L97.2163 22.1208V21.3861C97.2163 20.3135 96.5069 19.6717 95.2908 19.6717C94.1592 19.6717 93.4498 20.2038 93.264 21.0651H91.8452C91.9466 19.545 93.2471 18.3796 95.3246 18.3796C97.3852 18.3796 98.6857 19.4944 98.6857 21.2425V27.3145H97.2923V25.8028H97.2585C96.7349 26.8078 95.6202 27.4665 94.4379 27.4665ZM103.749 19.6548C102.373 19.6548 101.41 20.7105 101.317 22.1714H106.089C106.055 20.702 105.134 19.6548 103.749 19.6548ZM106.055 24.7978H107.499C107.246 26.3348 105.759 27.4665 103.842 27.4665C101.326 27.4665 99.7971 25.7183 99.7971 22.9568C99.7971 20.2291 101.351 18.3796 103.775 18.3796C106.148 18.3796 107.609 20.1024 107.609 22.7626V23.32H101.309V23.4044C101.309 25.085 102.297 26.1913 103.876 26.1913C104.991 26.1913 105.81 25.6255 106.055 24.7978ZM109.776 29.7382H108.551L109.37 25.4397H110.933L109.776 29.7382ZM115.216 27.3145V18.5316H116.601V19.9673H116.635C116.922 18.9961 117.733 18.3796 118.763 18.3796C119.016 18.3796 119.236 18.4219 119.354 18.4387V19.866C119.236 19.8237 118.923 19.7815 118.569 19.7815C117.429 19.7815 116.685 20.6007 116.685 21.8421V27.3145H115.216ZM123.328 19.6548C121.952 19.6548 120.989 20.7105 120.896 22.1714H125.668C125.634 20.702 124.713 19.6548 123.328 19.6548ZM125.634 24.7978H127.078C126.824 26.3348 125.338 27.4665 123.421 27.4665C120.905 27.4665 119.376 25.7183 119.376 22.9568C119.376 20.2291 120.93 18.3796 123.354 18.3796C125.727 18.3796 127.188 20.1024 127.188 22.7626V23.32H120.888V23.4044C120.888 25.085 121.876 26.1913 123.455 26.1913C124.57 26.1913 125.389 25.6255 125.634 24.7978ZM135.646 21.4114H134.21C133.999 20.4571 133.256 19.6717 131.964 19.6717C130.444 19.6717 129.414 20.93 129.414 22.923C129.414 24.9667 130.461 26.1744 131.981 26.1744C133.18 26.1744 133.966 25.541 134.219 24.4854H135.663C135.435 26.2335 133.966 27.4665 131.973 27.4665C129.54 27.4665 127.919 25.7521 127.919 22.923C127.919 20.1531 129.532 18.3796 131.956 18.3796C134.151 18.3796 135.46 19.8322 135.646 21.4114ZM143.902 18.5316V27.3145H142.509V25.8872H142.475C141.951 26.9006 141.039 27.4665 139.688 27.4665C137.771 27.4665 136.648 26.225 136.648 24.232V18.5316H138.117V23.9702C138.117 25.3974 138.784 26.1659 140.144 26.1659C141.571 26.1659 142.433 25.1863 142.433 23.6915V18.5316H143.902ZM149.008 19.6548C147.631 19.6548 146.669 20.7105 146.576 22.1714H151.347C151.313 20.702 150.393 19.6548 149.008 19.6548ZM151.313 24.7978H152.757C152.504 26.3348 151.018 27.4665 149.101 27.4665C146.584 27.4665 145.056 25.7183 145.056 22.9568C145.056 20.2291 146.609 18.3796 149.033 18.3796C151.406 18.3796 152.867 20.1024 152.867 22.7626V23.32H146.567V23.4044C146.567 25.085 147.555 26.1913 149.135 26.1913C150.249 26.1913 151.068 25.6255 151.313 24.7978ZM149.7 17.2649H148.417L150.19 14.7314H151.778L149.7 17.2649ZM154.029 27.3145V18.5316H155.414V19.9673H155.448C155.735 18.9961 156.546 18.3796 157.576 18.3796C157.829 18.3796 158.049 18.4219 158.167 18.4387V19.866C158.049 19.8237 157.737 19.7815 157.382 19.7815C156.242 19.7815 155.499 20.6007 155.499 21.8421V27.3145H154.029ZM161.947 27.4665C159.709 27.4665 158.189 25.6761 158.189 22.923C158.189 20.17 159.701 18.3796 161.913 18.3796C163.172 18.3796 164.185 18.9961 164.709 19.9588H164.743V15.1283H166.212V27.3145H164.81V25.8281H164.785C164.219 26.8415 163.214 27.4665 161.947 27.4665ZM162.226 19.6717C160.672 19.6717 159.692 20.9385 159.692 22.923C159.692 24.9161 160.672 26.1744 162.226 26.1744C163.738 26.1744 164.751 24.8907 164.751 22.923C164.751 20.9638 163.738 19.6717 162.226 19.6717ZM170.769 26.2166C172.154 26.2166 173.218 25.2454 173.218 23.9787V23.2608L170.87 23.4044C169.688 23.4804 169.012 24.004 169.012 24.8316C169.012 25.6677 169.713 26.2166 170.769 26.2166ZM170.44 27.4665C168.691 27.4665 167.518 26.4108 167.518 24.8316C167.518 23.3284 168.675 22.3826 170.701 22.2643L173.218 22.1208V21.3861C173.218 20.3135 172.509 19.6717 171.293 19.6717C170.161 19.6717 169.452 20.2038 169.266 21.0651H167.847C167.948 19.545 169.249 18.3796 171.326 18.3796C173.387 18.3796 174.687 19.4944 174.687 21.2425V27.3145H173.294V25.8028H173.26C172.737 26.8078 171.622 27.4665 170.44 27.4665ZM176.229 27.3145V18.5316H177.614V19.9335H177.648C178.062 19.0046 178.957 18.3796 180.14 18.3796C181.339 18.3796 182.225 18.9877 182.605 20.0517H182.639C183.129 19.0046 184.159 18.3796 185.392 18.3796C187.132 18.3796 188.255 19.5113 188.255 21.2509V27.3145H186.786V21.5887C186.786 20.3895 186.119 19.6802 184.962 19.6802C183.796 19.6802 182.977 20.5416 182.977 21.7323V27.3145H181.508V21.4283C181.508 20.3727 180.798 19.6802 179.709 19.6802C178.543 19.6802 177.699 20.5922 177.699 21.8083V27.3145H176.229ZM193.327 19.6548C191.951 19.6548 190.988 20.7105 190.895 22.1714H195.667C195.633 20.702 194.712 19.6548 193.327 19.6548ZM195.633 24.7978H197.077C196.823 26.3348 195.337 27.4665 193.42 27.4665C190.904 27.4665 189.375 25.7183 189.375 22.9568C189.375 20.2291 190.929 18.3796 193.353 18.3796C195.726 18.3796 197.187 20.1024 197.187 22.7626V23.32H190.887V23.4044C190.887 25.085 191.875 26.1913 193.454 26.1913C194.569 26.1913 195.388 25.6255 195.633 24.7978ZM201.571 27.3145V18.5316H202.956V19.9335H202.99C203.404 19.0046 204.299 18.3796 205.481 18.3796C206.681 18.3796 207.567 18.9877 207.947 20.0517H207.981C208.471 19.0046 209.501 18.3796 210.734 18.3796C212.474 18.3796 213.597 19.5113 213.597 21.2509V27.3145H212.128V21.5887C212.128 20.3895 211.46 19.6802 210.303 19.6802C209.138 19.6802 208.319 20.5416 208.319 21.7323V27.3145H206.849V21.4283C206.849 20.3727 206.14 19.6802 205.051 19.6802C203.885 19.6802 203.041 20.5922 203.041 21.8083V27.3145H201.571ZM218.044 26.2166C219.429 26.2166 220.493 25.2454 220.493 23.9787V23.2608L218.145 23.4044C216.963 23.4804 216.288 24.004 216.288 24.8316C216.288 25.6677 216.988 26.2166 218.044 26.2166ZM217.715 27.4665C215.967 27.4665 214.793 26.4108 214.793 24.8316C214.793 23.3284 215.95 22.3826 217.977 22.2643L220.493 22.1208V21.3861C220.493 20.3135 219.784 19.6717 218.568 19.6717C217.436 19.6717 216.727 20.2038 216.541 21.0651H215.122C215.223 19.545 216.524 18.3796 218.601 18.3796C220.662 18.3796 221.963 19.4944 221.963 21.2425V27.3145H220.569V25.8028H220.535C220.012 26.8078 218.897 27.4665 217.715 27.4665ZM223.505 27.3145V18.5316H224.89V19.9335H224.923C225.413 18.9877 226.351 18.3796 227.71 18.3796C229.636 18.3796 230.75 19.621 230.75 21.6141V27.3145H229.281V21.8759C229.281 20.4571 228.614 19.6802 227.263 19.6802C225.878 19.6802 224.974 20.6598 224.974 22.1461V27.3145H223.505ZM228.268 17.1973C227.153 17.1973 226.731 15.9137 226.064 15.9137C225.675 15.9137 225.43 16.3275 225.464 17.1129H224.467C224.467 15.7279 225.109 14.9594 226.072 14.9594C227.263 14.9594 227.643 16.243 228.276 16.243C228.631 16.243 228.859 15.8461 228.859 15.0354H229.855C229.855 16.3866 229.188 17.1973 228.268 17.1973ZM235.198 26.2166C236.583 26.2166 237.647 25.2454 237.647 23.9787V23.2608L235.299 23.4044C234.117 23.4804 233.441 24.004 233.441 24.8316C233.441 25.6677 234.142 26.2166 235.198 26.2166ZM234.868 27.4665C233.12 27.4665 231.946 26.4108 231.946 24.8316C231.946 23.3284 233.103 22.3826 235.13 22.2643L237.647 22.1208V21.3861C237.647 20.3135 236.937 19.6717 235.721 19.6717C234.59 19.6717 233.88 20.2038 233.694 21.0651H232.276C232.377 19.545 233.678 18.3796 235.755 18.3796C237.816 18.3796 239.116 19.4944 239.116 21.2425V27.3145H237.723V25.8028H237.689C237.165 26.8078 236.051 27.4665 234.868 27.4665ZM240.658 27.3145V18.5316H242.043V19.9335H242.077C242.567 18.9877 243.504 18.3796 244.864 18.3796C246.789 18.3796 247.904 19.621 247.904 21.6141V27.3145H246.435V21.8759C246.435 20.4571 245.767 19.6802 244.416 19.6802C243.031 19.6802 242.128 20.6598 242.128 22.1461V27.3145H240.658ZM252.351 26.2166C253.736 26.2166 254.8 25.2454 254.8 23.9787V23.2608L252.452 23.4044C251.27 23.4804 250.595 24.004 250.595 24.8316C250.595 25.6677 251.296 26.2166 252.351 26.2166ZM252.022 27.4665C250.274 27.4665 249.1 26.4108 249.1 24.8316C249.1 23.3284 250.257 22.3826 252.284 22.2643L254.8 22.1208V21.3861C254.8 20.3135 254.091 19.6717 252.875 19.6717C251.743 19.6717 251.034 20.2038 250.848 21.0651H249.429C249.531 19.545 250.831 18.3796 252.909 18.3796C254.969 18.3796 256.27 19.4944 256.27 21.2425V27.3145H254.876V25.8028H254.842C254.319 26.8078 253.204 27.4665 252.022 27.4665ZM263.931 26.2166C265.316 26.2166 266.38 25.2454 266.38 23.9787V23.2608L264.032 23.4044C262.85 23.4804 262.174 24.004 262.174 24.8316C262.174 25.6677 262.875 26.2166 263.931 26.2166ZM263.602 27.4665C261.853 27.4665 260.68 26.4108 260.68 24.8316C260.68 23.3284 261.837 22.3826 263.863 22.2643L266.38 22.1208V21.3861C266.38 20.3135 265.671 19.6717 264.455 19.6717C263.323 19.6717 262.614 20.2038 262.428 21.0651H261.009C261.11 19.545 262.411 18.3796 264.488 18.3796C266.549 18.3796 267.849 19.4944 267.849 21.2425V27.3145H266.456V25.8028H266.422C265.899 26.8078 264.784 27.4665 263.602 27.4665ZM272.69 27.3145V15.1283H274.16V27.3145H272.69ZM278.716 26.2166C280.101 26.2166 281.166 25.2454 281.166 23.9787V23.2608L278.818 23.4044C277.636 23.4804 276.96 24.004 276.96 24.8316C276.96 25.6677 277.661 26.2166 278.716 26.2166ZM278.387 27.4665C276.639 27.4665 275.465 26.4108 275.465 24.8316C275.465 23.3284 276.622 22.3826 278.649 22.2643L281.166 22.1208V21.3861C281.166 20.3135 280.456 19.6717 279.24 19.6717C278.108 19.6717 277.399 20.2038 277.213 21.0651H275.794C275.896 19.545 277.196 18.3796 279.274 18.3796C281.334 18.3796 282.635 19.4944 282.635 21.2425V27.3145H281.242V25.8028H281.208C280.684 26.8078 279.569 27.4665 278.387 27.4665ZM284.025 20.9554C284.025 19.4521 285.368 18.3796 287.302 18.3796C289.117 18.3796 290.452 19.4606 290.519 20.9469H289.117C289.016 20.1024 288.332 19.5788 287.251 19.5788C286.178 19.5788 285.469 20.1109 285.469 20.8794C285.469 21.4874 285.934 21.8928 286.93 22.1461L288.29 22.4755C290.063 22.923 290.705 23.5649 290.705 24.857C290.705 26.3855 289.261 27.4665 287.209 27.4665C285.283 27.4665 283.941 26.4193 283.789 24.8654H285.258C285.418 25.7775 286.111 26.2673 287.302 26.2673C288.492 26.2673 289.227 25.7606 289.227 24.9667C289.227 24.3418 288.864 24.004 287.876 23.7422L286.33 23.3453C284.785 22.9484 284.025 22.1546 284.025 20.9554ZM299.354 27.5171C296.779 27.5171 294.938 26.0561 294.938 24.0209C294.938 22.5008 295.985 21.2509 297.556 20.8878V20.854C296.238 20.4487 295.419 19.4099 295.419 18.1263C295.419 16.2853 297.091 14.9256 299.354 14.9256C301.635 14.9256 303.281 16.2768 303.281 18.1347C303.281 19.4015 302.479 20.4318 301.153 20.854V20.8878C302.732 21.2594 303.78 22.5092 303.78 24.0209C303.78 26.0646 301.939 27.5171 299.354 27.5171ZM299.354 26.1913C301.035 26.1913 302.226 25.237 302.226 23.9111C302.226 22.5684 301.035 21.6225 299.354 21.6225C297.682 21.6225 296.483 22.5768 296.483 23.9111C296.483 25.237 297.682 26.1913 299.354 26.1913ZM299.354 20.2882C300.773 20.2882 301.778 19.4521 301.778 18.2698C301.778 17.0707 300.782 16.2346 299.354 16.2346C297.927 16.2346 296.931 17.0791 296.931 18.2698C296.931 19.4521 297.927 20.2882 299.354 20.2882ZM311.297 26.2166C312.682 26.2166 313.746 25.2454 313.746 23.9787V23.2608L311.399 23.4044C310.216 23.4804 309.541 24.004 309.541 24.8316C309.541 25.6677 310.242 26.2166 311.297 26.2166ZM310.968 27.4665C309.22 27.4665 308.046 26.4108 308.046 24.8316C308.046 23.3284 309.203 22.3826 311.23 22.2643L313.746 22.1208V21.3861C313.746 20.3135 313.037 19.6717 311.821 19.6717C310.689 19.6717 309.98 20.2038 309.794 21.0651H308.375C308.477 19.545 309.777 18.3796 311.855 18.3796C313.915 18.3796 315.216 19.4944 315.216 21.2425V27.3145H313.822V25.8028H313.789C313.265 26.8078 312.15 27.4665 310.968 27.4665ZM316.758 27.3145V18.5316H318.143V19.9335H318.177C318.59 19.0046 319.486 18.3796 320.668 18.3796C321.867 18.3796 322.754 18.9877 323.134 20.0517H323.168C323.657 19.0046 324.688 18.3796 325.921 18.3796C327.66 18.3796 328.784 19.5113 328.784 21.2509V27.3145H327.314V21.5887C327.314 20.3895 326.647 19.6802 325.49 19.6802C324.325 19.6802 323.505 20.5416 323.505 21.7323V27.3145H322.036V21.4283C322.036 20.3727 321.327 19.6802 320.237 19.6802C319.072 19.6802 318.227 20.5922 318.227 21.8083V27.3145H316.758ZM45.3048 39.3796C46.58 39.3796 47.5849 40.0046 48.1507 41.018H48.1845V39.5316H49.5864V51.2449H48.117V46.845H48.0832C47.5343 47.85 46.5124 48.4665 45.271 48.4665C43.05 48.4665 41.5636 46.6761 41.5636 43.923C41.5636 41.1615 43.05 39.3796 45.3048 39.3796ZM45.5666 47.1744C47.0698 47.1744 48.117 45.8823 48.117 43.923C48.117 41.9638 47.0698 40.6717 45.5666 40.6717C44.0296 40.6717 43.0668 41.9131 43.0668 43.923C43.0668 45.9245 44.0296 47.1744 45.5666 47.1744ZM58.3912 39.5316V48.3145H56.9977V46.8872H56.964C56.4404 47.9006 55.5283 48.4665 54.1771 48.4665C52.2601 48.4665 51.1369 47.225 51.1369 45.232V39.5316H52.6063V44.9702C52.6063 46.3974 53.2735 47.1659 54.6331 47.1659C56.0603 47.1659 56.9217 46.1863 56.9217 44.6915V39.5316H58.3912ZM63.497 40.6548C62.1205 40.6548 61.1577 41.7105 61.0649 43.1714H65.8363C65.8025 41.702 64.882 40.6548 63.497 40.6548ZM65.8025 45.7978H67.2466C66.9932 47.3348 65.5069 48.4665 63.5899 48.4665C61.0733 48.4665 59.5447 46.7183 59.5447 43.9568C59.5447 41.2291 61.0986 39.3796 63.5223 39.3796C65.8954 39.3796 67.3564 41.1024 67.3564 43.7626V44.32H61.0564V44.4044C61.0564 46.085 62.0445 47.1913 63.6237 47.1913C64.7384 47.1913 65.5576 46.6255 65.8025 45.7978ZM72.214 37.4119H73.6834V39.5316H75.3893V40.7393H73.6834V45.9583C73.6834 46.7606 74.0212 47.1237 74.7728 47.1237C74.9417 47.1237 75.2795 47.0984 75.3808 47.0815V48.3145C75.2035 48.3567 74.7981 48.382 74.4519 48.382C72.8389 48.382 72.214 47.7233 72.214 46.0343V40.7393H70.905V39.5316H72.214V37.4119ZM79.904 40.6548C78.5274 40.6548 77.5647 41.7105 77.4718 43.1714H82.2433C82.2095 41.702 81.289 40.6548 79.904 40.6548ZM82.2095 45.7978H83.6536C83.4002 47.3348 81.9139 48.4665 79.9969 48.4665C77.4803 48.4665 75.9517 46.7183 75.9517 43.9568C75.9517 41.2291 77.5056 39.3796 79.9293 39.3796C82.3024 39.3796 83.7634 41.1024 83.7634 43.7626V44.32H77.4634V44.4044C77.4634 46.085 78.4514 47.1913 80.0307 47.1913C81.1454 47.1913 81.9646 46.6255 82.2095 45.7978ZM84.9254 48.3145V39.5316H86.3104V40.9335H86.3442C86.834 39.9877 87.7714 39.3796 89.131 39.3796C91.0565 39.3796 92.1712 40.621 92.1712 42.6141V48.3145H90.7018V42.8759C90.7018 41.4571 90.0346 40.6802 88.6834 40.6802C87.2984 40.6802 86.3948 41.6598 86.3948 43.1461V48.3145H84.9254ZM97.294 47.0899C98.8225 47.0899 99.8443 45.8232 99.8443 43.8893C99.8443 41.9554 98.8225 40.6717 97.294 40.6717C95.7823 40.6717 94.7942 41.9216 94.7942 43.8893C94.7942 45.857 95.7823 47.0899 97.294 47.0899ZM97.3446 51.6249C95.4107 51.6249 93.8822 50.5355 93.6373 49.0407H95.1489C95.4361 49.843 96.3059 50.375 97.4037 50.375C98.9238 50.375 99.8443 49.4968 99.8443 48.1878V46.8028H99.8106C99.2701 47.7571 98.2314 48.382 96.9984 48.382C94.7605 48.382 93.291 46.617 93.291 43.8893C93.291 41.1362 94.7605 39.3796 97.0322 39.3796C98.2736 39.3796 99.3039 39.9877 99.8866 41.0095H99.9119V39.5316H101.314V48.1371C101.314 50.2315 99.7683 51.6249 97.3446 51.6249ZM106.546 48.4665C104.114 48.4665 102.476 46.7183 102.476 43.923C102.476 41.1193 104.114 39.3796 106.546 39.3796C108.97 39.3796 110.608 41.1193 110.608 43.923C110.608 46.7183 108.97 48.4665 106.546 48.4665ZM106.546 47.1744C108.1 47.1744 109.114 45.9921 109.114 43.923C109.114 41.854 108.1 40.6717 106.546 40.6717C104.992 40.6717 103.971 41.854 103.971 43.923C103.971 45.9921 104.992 47.1744 106.546 47.1744ZM118.303 39.3796C119.579 39.3796 120.584 40.0046 121.149 41.018H121.183V39.5316H122.585V51.2449H121.116V46.845H121.082C120.533 47.85 119.511 48.4665 118.27 48.4665C116.049 48.4665 114.562 46.6761 114.562 43.923C114.562 41.1615 116.049 39.3796 118.303 39.3796ZM118.565 47.1744C120.068 47.1744 121.116 45.8823 121.116 43.923C121.116 41.9638 120.068 40.6717 118.565 40.6717C117.028 40.6717 116.066 41.9131 116.066 43.923C116.066 45.9245 117.028 47.1744 118.565 47.1744ZM131.39 39.5316V48.3145H129.996V46.8872H129.963C129.439 47.9006 128.527 48.4665 127.176 48.4665C125.259 48.4665 124.136 47.225 124.136 45.232V39.5316H125.605V44.9702C125.605 46.3974 126.272 47.1659 127.632 47.1659C129.059 47.1659 129.92 46.1863 129.92 44.6915V39.5316H131.39ZM136.496 40.6548C135.119 40.6548 134.156 41.7105 134.064 43.1714H138.835C138.801 41.702 137.881 40.6548 136.496 40.6548ZM138.801 45.7978H140.245C139.992 47.3348 138.506 48.4665 136.589 48.4665C134.072 48.4665 132.543 46.7183 132.543 43.9568C132.543 41.2291 134.097 39.3796 136.521 39.3796C138.894 39.3796 140.355 41.1024 140.355 43.7626V44.32H134.055V44.4044C134.055 46.085 135.043 47.1913 136.622 47.1913C137.737 47.1913 138.556 46.6255 138.801 45.7978ZM144.816 48.3145V36.1283H146.285V40.9335H146.319C146.809 39.9539 147.771 39.3796 149.106 39.3796C151.031 39.3796 152.197 40.6802 152.197 42.6394V48.3145H150.727V42.9096C150.727 41.5162 150.026 40.6802 148.65 40.6802C147.189 40.6802 146.285 41.6767 146.285 43.1968V48.3145H144.816ZM156.635 47.2166C158.02 47.2166 159.084 46.2454 159.084 44.9787V44.2608L156.737 44.4044C155.554 44.4804 154.879 45.004 154.879 45.8316C154.879 46.6677 155.58 47.2166 156.635 47.2166ZM156.306 48.4665C154.558 48.4665 153.384 47.4108 153.384 45.8316C153.384 44.3284 154.541 43.3826 156.568 43.2643L159.084 43.1208V42.3861C159.084 41.3135 158.375 40.6717 157.159 40.6717C156.027 40.6717 155.318 41.2038 155.132 42.0651H153.713C153.815 40.545 155.115 39.3796 157.193 39.3796C159.253 39.3796 160.554 40.4944 160.554 42.2425V48.3145H159.16V46.8028H159.127C158.603 47.8078 157.488 48.4665 156.306 48.4665ZM169.392 42.4114H167.957C167.746 41.4571 167.002 40.6717 165.71 40.6717C164.19 40.6717 163.16 41.93 163.16 43.923C163.16 45.9667 164.207 47.1744 165.727 47.1744C166.926 47.1744 167.712 46.541 167.965 45.4854H169.409C169.181 47.2335 167.712 48.4665 165.719 48.4665C163.287 48.4665 161.665 46.7521 161.665 43.923C161.665 41.1531 163.278 39.3796 165.702 39.3796C167.898 39.3796 169.207 40.8322 169.392 42.4114ZM173.958 40.6548C172.581 40.6548 171.619 41.7105 171.526 43.1714H176.297C176.263 41.702 175.343 40.6548 173.958 40.6548ZM176.263 45.7978H177.707C177.454 47.3348 175.968 48.4665 174.051 48.4665C171.534 48.4665 170.006 46.7183 170.006 43.9568C170.006 41.2291 171.559 39.3796 173.983 39.3796C176.356 39.3796 177.817 41.1024 177.817 43.7626V44.32H171.517V44.4044C171.517 46.085 172.505 47.1913 174.084 47.1913C175.199 47.1913 176.018 46.6255 176.263 45.7978ZM178.979 48.3145V39.5316H180.364V40.9673H180.398C180.685 39.9961 181.496 39.3796 182.526 39.3796C182.779 39.3796 182.999 39.4219 183.117 39.4387V40.866C182.999 40.8237 182.687 40.7815 182.332 40.7815C181.192 40.7815 180.449 41.6007 180.449 42.8421V48.3145H178.979ZM187.215 48.3145V39.5316H188.6V40.9335H188.634C189.047 40.0046 189.942 39.3796 191.125 39.3796C192.324 39.3796 193.211 39.9877 193.591 41.0517H193.625C194.114 40.0046 195.145 39.3796 196.378 39.3796C198.117 39.3796 199.24 40.5113 199.24 42.2509V48.3145H197.771V42.5887C197.771 41.3895 197.104 40.6802 195.947 40.6802C194.781 40.6802 193.962 41.5416 193.962 42.7323V48.3145H192.493V42.4283C192.493 41.3727 191.784 40.6802 190.694 40.6802C189.529 40.6802 188.684 41.5922 188.684 42.8083V48.3145H187.215ZM204.313 40.6548C202.936 40.6548 201.973 41.7105 201.88 43.1714H206.652C206.618 41.702 205.698 40.6548 204.313 40.6548ZM206.618 45.7978H208.062C207.809 47.3348 206.322 48.4665 204.405 48.4665C201.889 48.4665 200.36 46.7183 200.36 43.9568C200.36 41.2291 201.914 39.3796 204.338 39.3796C206.711 39.3796 208.172 41.1024 208.172 43.7626V44.32H201.872V44.4044C201.872 46.085 202.86 47.1913 204.439 47.1913C205.554 47.1913 206.373 46.6255 206.618 45.7978ZM212.661 48.4665C210.423 48.4665 208.903 46.6761 208.903 43.923C208.903 41.17 210.415 39.3796 212.627 39.3796C213.886 39.3796 214.899 39.9961 215.423 40.9588H215.457V36.1283H216.926V48.3145H215.524V46.8281H215.499C214.933 47.8415 213.928 48.4665 212.661 48.4665ZM212.94 40.6717C211.386 40.6717 210.406 41.9385 210.406 43.923C210.406 45.9161 211.386 47.1744 212.94 47.1744C214.452 47.1744 215.465 45.8907 215.465 43.923C215.465 41.9638 214.452 40.6717 212.94 40.6717ZM218.662 48.3145V39.5316H220.132V48.3145H218.662ZM219.397 38.0538C218.899 38.0538 218.485 37.64 218.485 37.1417C218.485 36.635 218.899 36.2296 219.397 36.2296C219.904 36.2296 220.318 36.635 220.318 37.1417C220.318 37.64 219.904 38.0538 219.397 38.0538ZM222.265 37.4119H223.734V39.5316H225.44V40.7393H223.734V45.9583C223.734 46.7606 224.072 47.1237 224.824 47.1237C224.993 47.1237 225.33 47.0984 225.432 47.0815V48.3145C225.254 48.3567 224.849 48.382 224.503 48.382C222.89 48.382 222.265 47.7233 222.265 46.0343V40.7393H220.956V39.5316H222.265V37.4119ZM229.414 47.2166C230.799 47.2166 231.864 46.2454 231.864 44.9787V44.2608L229.516 44.4044C228.334 44.4804 227.658 45.004 227.658 45.8316C227.658 46.6677 228.359 47.2166 229.414 47.2166ZM229.085 48.4665C227.337 48.4665 226.163 47.4108 226.163 45.8316C226.163 44.3284 227.32 43.3826 229.347 43.2643L231.864 43.1208V42.3861C231.864 41.3135 231.154 40.6717 229.938 40.6717C228.806 40.6717 228.097 41.2038 227.911 42.0651H226.493C226.594 40.545 227.894 39.3796 229.972 39.3796C232.032 39.3796 233.333 40.4944 233.333 42.2425V48.3145H231.94V46.8028H231.906C231.382 47.8078 230.267 48.4665 229.085 48.4665ZM242.172 42.4114H240.736C240.525 41.4571 239.782 40.6717 238.489 40.6717C236.969 40.6717 235.939 41.93 235.939 43.923C235.939 45.9667 236.986 47.1744 238.506 47.1744C239.706 47.1744 240.491 46.541 240.744 45.4854H242.188C241.96 47.2335 240.491 48.4665 238.498 48.4665C236.066 48.4665 234.444 46.7521 234.444 43.923C234.444 41.1531 236.057 39.3796 238.481 39.3796C240.677 39.3796 241.986 40.8322 242.172 42.4114ZM243.291 48.3145V39.5316H244.761V48.3145H243.291ZM244.026 38.0538C243.528 38.0538 243.114 37.64 243.114 37.1417C243.114 36.635 243.528 36.2296 244.026 36.2296C244.533 36.2296 244.947 36.635 244.947 37.1417C244.947 37.64 244.533 38.0538 244.026 38.0538ZM250.061 48.4665C247.629 48.4665 245.99 46.7183 245.99 43.923C245.99 41.1193 247.629 39.3796 250.061 39.3796C252.485 39.3796 254.123 41.1193 254.123 43.923C254.123 46.7183 252.485 48.4665 250.061 48.4665ZM250.061 47.1744C251.615 47.1744 252.628 45.9921 252.628 43.923C252.628 41.854 251.615 40.6717 250.061 40.6717C248.507 40.6717 247.485 41.854 247.485 43.923C247.485 45.9921 248.507 47.1744 250.061 47.1744ZM250.728 38.2649H249.444L251.218 35.7314H252.805L250.728 38.2649ZM255.285 48.3145V39.5316H256.67V40.9335H256.704C257.194 39.9877 258.131 39.3796 259.491 39.3796C261.416 39.3796 262.531 40.621 262.531 42.6141V48.3145H261.061V42.8759C261.061 41.4571 260.394 40.6802 259.043 40.6802C257.658 40.6802 256.754 41.6598 256.754 43.1461V48.3145H255.285Z" fill="black"/>
<path d="M293.755 56.6006V49.3315H293.732L291.514 50.9282V49.825L293.744 48.2226H294.766V56.6006H293.755ZM297.913 56.6006L301.704 49.1748V49.1516H297.193V48.2226H302.738V49.1922L299.01 56.6006H297.913ZM305.13 55.2072C304.759 55.2072 304.468 54.9169 304.468 54.5453C304.468 54.1737 304.759 53.8834 305.13 53.8834C305.502 53.8834 305.792 54.1737 305.792 54.5453C305.792 54.9169 305.502 55.2072 305.13 55.2072ZM305.13 50.934C304.759 50.934 304.468 50.6437 304.468 50.2721C304.468 49.9005 304.759 49.6102 305.13 49.6102C305.502 49.6102 305.792 49.9005 305.792 50.2721C305.792 50.6437 305.502 50.934 305.13 50.934ZM311.842 56.6006V54.8588H307.633V53.9124C308.347 52.5887 309.328 51.0617 311.308 48.2226H312.853V53.9415H314.037V54.8588H312.853V56.6006H311.842ZM308.667 53.9182V53.9415H311.842V49.0935H311.825C310.24 51.3578 309.328 52.757 308.667 53.9182ZM318.479 56.7399C316.708 56.7399 315.443 55.7355 315.443 54.3363C315.443 53.2912 316.163 52.4319 317.242 52.1823V52.159C316.337 51.8804 315.774 51.1662 315.774 50.2837C315.774 49.018 316.923 48.0833 318.479 48.0833C320.047 48.0833 321.179 49.0122 321.179 50.2895C321.179 51.1604 320.627 51.8687 319.716 52.159V52.1823C320.802 52.4377 321.521 53.297 321.521 54.3363C321.521 55.7413 320.256 56.7399 318.479 56.7399ZM318.479 55.8284C319.635 55.8284 320.453 55.1723 320.453 54.2608C320.453 53.3376 319.635 52.6874 318.479 52.6874C317.33 52.6874 316.505 53.3435 316.505 54.2608C316.505 55.1723 317.33 55.8284 318.479 55.8284ZM318.479 51.77C319.455 51.77 320.145 51.1953 320.145 50.3824C320.145 49.558 319.46 48.9832 318.479 48.9832C317.498 48.9832 316.813 49.5638 316.813 50.3824C316.813 51.1953 317.498 51.77 318.479 51.77Z" fill="black" fill-opacity="0.25"/>
<path fill-rule="evenodd" clip-rule="evenodd" d="M339.197 48.3946L339.736 48.9208L333.9 56.9245L331.534 54.5878L332.536 53.213L333.9 54.0085L339.197 48.3946ZM334.461 48.2769L335 48.803L329.164 56.8068L325.144 52.8532L326.042 51.9776L329.164 53.8908L334.461 48.2769Z" fill="#3497F9"/>
<path d="M353.93 51.1012C348.544 48.9952 345.318 45.2238 345.318 39.9385V55.4091C349.556 55.2025 352.626 54.4479 354.529 53.145C354.714 53.0186 354.855 52.8379 354.932 52.6279C355.139 52.068 354.853 51.4462 354.293 51.2392L353.93 51.1012Z" fill="#DCF7C5"/>
<path d="M1.06928 147.002C6.45512 144.896 9.68115 141.124 9.68115 135.839V151.309C5.44372 151.103 2.37347 150.348 0.47042 149.045C0.285695 148.919 0.144818 148.738 0.067194 148.528C-0.139808 147.968 0.146286 147.347 0.706233 147.14L1.06928 147.002Z" fill="#FAFAFA"/>
<rect x="9.68115" y="74.9004" width="314.593" height="83.629" rx="8.25162" fill="#FAFAFA"/>
<path d="M30.9066 102.215H29.3865V96.6665H22.698V102.215H21.1779V90.0287H22.698V95.2984H29.3865V90.0287H30.9066V102.215ZM36.2404 94.5552C34.8639 94.5552 33.9012 95.6108 33.8083 97.0718H38.5797C38.5459 95.6024 37.6254 94.5552 36.2404 94.5552ZM38.5459 99.6982H39.99C39.7367 101.235 38.2503 102.367 36.3333 102.367C33.8167 102.367 32.2882 100.619 32.2882 97.8572C32.2882 95.1295 33.842 93.28 36.2658 93.28C38.6388 93.28 40.0998 95.0028 40.0998 97.663V98.2204H33.7998V98.3048C33.7998 99.9854 34.7879 101.092 36.3671 101.092C37.4818 101.092 38.301 100.526 38.5459 99.6982ZM51.7809 96.3118H50.3453C50.1342 95.3575 49.391 94.5721 48.0989 94.5721C46.5788 94.5721 45.5485 95.8304 45.5485 97.8234C45.5485 99.8671 46.5957 101.075 48.1158 101.075C49.315 101.075 50.1004 100.441 50.3537 99.3858H51.7978C51.5698 101.134 50.1004 102.367 48.1074 102.367C45.6752 102.367 44.0538 100.653 44.0538 97.8234C44.0538 95.0535 45.6668 93.28 48.0905 93.28C50.2862 93.28 51.5952 94.7326 51.7809 96.3118ZM52.8247 102.215V93.432H54.2097V94.8677H54.2435C54.5306 93.8965 55.3414 93.28 56.3717 93.28C56.625 93.28 56.8446 93.3222 56.9628 93.3391V94.7663C56.8446 94.7241 56.5321 94.6819 56.1774 94.6819C55.0373 94.6819 54.2942 95.5011 54.2942 96.7425V102.215H52.8247ZM60.937 94.5552C59.5605 94.5552 58.5978 95.6108 58.5049 97.0718H63.2763C63.2425 95.6024 62.322 94.5552 60.937 94.5552ZM63.2425 99.6982H64.6866C64.4333 101.235 62.9469 102.367 61.0299 102.367C58.5133 102.367 56.9848 100.619 56.9848 97.8572C56.9848 95.1295 58.5386 93.28 60.9624 93.28C63.3354 93.28 64.7964 95.0028 64.7964 97.663V98.2204H58.4964V98.3048C58.4964 99.9854 59.4845 101.092 61.0637 101.092C62.1784 101.092 62.9976 100.526 63.2425 99.6982ZM68.8551 101.117C70.2401 101.117 71.3041 100.146 71.3041 98.8791V98.1612L68.9564 98.3048C67.7741 98.3808 67.0985 98.9044 67.0985 99.732C67.0985 100.568 67.7994 101.117 68.8551 101.117ZM68.5257 102.367C66.7776 102.367 65.6037 101.311 65.6037 99.732C65.6037 98.2288 66.7607 97.283 68.7875 97.1647L71.3041 97.0212V96.2864C71.3041 95.2139 70.5947 94.5721 69.3787 94.5721C68.247 94.5721 67.5376 95.1041 67.3519 95.9655H65.9331C66.0344 94.4454 67.335 93.28 69.4124 93.28C71.473 93.28 72.7736 94.3948 72.7736 96.1429V102.215H71.3801V100.703H71.3463C70.8228 101.708 69.708 102.367 68.5257 102.367ZM77.6429 102.367C75.405 102.367 73.8849 100.577 73.8849 97.8234C73.8849 95.0704 75.3966 93.28 77.6092 93.28C78.8675 93.28 79.8809 93.8965 80.4045 94.8592H80.4382V90.0287H81.9077V102.215H80.5058V100.729H80.4805C79.9147 101.742 78.9097 102.367 77.6429 102.367ZM77.9216 94.5721C76.3678 94.5721 75.3881 95.8389 75.3881 97.8234C75.3881 99.8165 76.3678 101.075 77.9216 101.075C79.4333 101.075 80.4467 99.7911 80.4467 97.8234C80.4467 95.8642 79.4333 94.5721 77.9216 94.5721ZM87.2078 102.367C84.7756 102.367 83.1373 100.619 83.1373 97.8234C83.1373 95.0197 84.7756 93.28 87.2078 93.28C89.6315 93.28 91.2698 95.0197 91.2698 97.8234C91.2698 100.619 89.6315 102.367 87.2078 102.367ZM87.2078 101.075C88.7617 101.075 89.7751 99.8925 89.7751 97.8234C89.7751 95.7544 88.7617 94.5721 87.2078 94.5721C85.6539 94.5721 84.632 95.7544 84.632 97.8234C84.632 99.8925 85.6539 101.075 87.2078 101.075ZM96.1274 91.3123H97.5968V93.432H99.3027V94.6397H97.5968V99.8587C97.5968 100.661 97.9346 101.024 98.6862 101.024C98.8551 101.024 99.1929 100.999 99.2943 100.982V102.215C99.1169 102.257 98.7116 102.282 98.3653 102.282C96.7523 102.282 96.1274 101.624 96.1274 99.9347V94.6397H94.8184V93.432H96.1274V91.3123ZM107.761 93.432V102.215H106.368V100.788H106.334C105.81 101.801 104.898 102.367 103.547 102.367C101.63 102.367 100.507 101.125 100.507 99.1324V93.432H101.976V98.8706C101.976 100.298 102.644 101.066 104.003 101.066C105.43 101.066 106.292 100.087 106.292 98.5919V93.432H107.761ZM112.568 102.215V93.432H113.953V94.8677H113.987C114.274 93.8965 115.085 93.28 116.115 93.28C116.368 93.28 116.588 93.3222 116.706 93.3391V94.7663C116.588 94.7241 116.276 94.6819 115.921 94.6819C114.781 94.6819 114.038 95.5011 114.038 96.7425V102.215H112.568ZM120.68 94.5552C119.304 94.5552 118.341 95.6108 118.248 97.0718H123.02C122.986 95.6024 122.065 94.5552 120.68 94.5552ZM122.986 99.6982H124.43C124.177 101.235 122.69 102.367 120.773 102.367C118.257 102.367 116.728 100.619 116.728 97.8572C116.728 95.1295 118.282 93.28 120.706 93.28C123.079 93.28 124.54 95.0028 124.54 97.663V98.2204H118.24V98.3048C118.24 99.9854 119.228 101.092 120.807 101.092C121.922 101.092 122.741 100.526 122.986 99.6982ZM132.998 96.3118H131.563C131.352 95.3575 130.608 94.5721 129.316 94.5721C127.796 94.5721 126.766 95.8304 126.766 97.8234C126.766 99.8671 127.813 101.075 129.333 101.075C130.532 101.075 131.318 100.441 131.571 99.3858H133.015C132.787 101.134 131.318 102.367 129.325 102.367C126.893 102.367 125.271 100.653 125.271 97.8234C125.271 95.0535 126.884 93.28 129.308 93.28C131.504 93.28 132.813 94.7326 132.998 96.3118ZM137.682 102.367C135.25 102.367 133.611 100.619 133.611 97.8234C133.611 95.0197 135.25 93.28 137.682 93.28C140.106 93.28 141.744 95.0197 141.744 97.8234C141.744 100.619 140.106 102.367 137.682 102.367ZM137.682 101.075C139.236 101.075 140.249 99.8925 140.249 97.8234C140.249 95.7544 139.236 94.5721 137.682 94.5721C136.128 94.5721 135.106 95.7544 135.106 97.8234C135.106 99.8925 136.128 101.075 137.682 101.075ZM142.906 102.215V93.432H144.291V94.8677H144.325C144.612 93.8965 145.423 93.28 146.453 93.28C146.706 93.28 146.926 93.3222 147.044 93.3391V94.7663C146.926 94.7241 146.613 94.6819 146.259 94.6819C145.119 94.6819 144.375 95.5011 144.375 96.7425V102.215H142.906ZM150.824 102.367C148.586 102.367 147.066 100.577 147.066 97.8234C147.066 95.0704 148.578 93.28 150.79 93.28C152.049 93.28 153.062 93.8965 153.586 94.8592H153.619V90.0287H155.089V102.215H153.687V100.729H153.662C153.096 101.742 152.091 102.367 150.824 102.367ZM151.103 94.5721C149.549 94.5721 148.569 95.8389 148.569 97.8234C148.569 99.8165 149.549 101.075 151.103 101.075C152.614 101.075 153.628 99.7911 153.628 97.8234C153.628 95.8642 152.614 94.5721 151.103 94.5721ZM159.646 101.117C161.031 101.117 162.095 100.146 162.095 98.8791V98.1612L159.747 98.3048C158.565 98.3808 157.889 98.9044 157.889 99.732C157.889 100.568 158.59 101.117 159.646 101.117ZM159.316 102.367C157.568 102.367 156.394 101.311 156.394 99.732C156.394 98.2288 157.551 97.283 159.578 97.1647L162.095 97.0212V96.2864C162.095 95.2139 161.385 94.5721 160.169 94.5721C159.038 94.5721 158.328 95.1041 158.142 95.9655H156.724C156.825 94.4454 158.126 93.28 160.203 93.28C162.264 93.28 163.564 94.3948 163.564 96.1429V102.215H162.171V100.703H162.137C161.613 101.708 160.499 102.367 159.316 102.367ZM165.579 91.3123H167.049V93.432H168.754V94.6397H167.049V99.8587C167.049 100.661 167.386 101.024 168.138 101.024C168.307 101.024 168.645 100.999 168.746 100.982V102.215C168.569 102.257 168.163 102.282 167.817 102.282C166.204 102.282 165.579 101.624 165.579 99.9347V94.6397H164.27V93.432H165.579V91.3123ZM173.387 102.367C170.955 102.367 169.317 100.619 169.317 97.8234C169.317 95.0197 170.955 93.28 173.387 93.28C175.811 93.28 177.449 95.0197 177.449 97.8234C177.449 100.619 175.811 102.367 173.387 102.367ZM173.387 101.075C174.941 101.075 175.955 99.8925 175.955 97.8234C175.955 95.7544 174.941 94.5721 173.387 94.5721C171.834 94.5721 170.812 95.7544 170.812 97.8234C170.812 99.8925 171.834 101.075 173.387 101.075ZM178.612 102.215V93.432H179.996V94.8677H180.03C180.317 93.8965 181.128 93.28 182.158 93.28C182.412 93.28 182.631 93.3222 182.75 93.3391V94.7663C182.631 94.7241 182.319 94.6819 181.964 94.6819C180.824 94.6819 180.081 95.5011 180.081 96.7425V102.215H178.612ZM183.7 102.215V93.432H185.17V102.215H183.7ZM184.435 91.9542C183.937 91.9542 183.523 91.5403 183.523 91.0421C183.523 90.5354 183.937 90.13 184.435 90.13C184.942 90.13 185.356 90.5354 185.356 91.0421C185.356 91.5403 184.942 91.9542 184.435 91.9542ZM190.47 102.367C188.038 102.367 186.4 100.619 186.4 97.8234C186.4 95.0197 188.038 93.28 190.47 93.28C192.894 93.28 194.532 95.0197 194.532 97.8234C194.532 100.619 192.894 102.367 190.47 102.367ZM190.47 101.075C192.024 101.075 193.037 99.8925 193.037 97.8234C193.037 95.7544 192.024 94.5721 190.47 94.5721C188.916 94.5721 187.894 95.7544 187.894 97.8234C187.894 99.8925 188.916 101.075 190.47 101.075ZM203.181 93.28C205.419 93.28 206.939 95.0704 206.939 97.8234C206.939 100.577 205.428 102.367 203.215 102.367C201.957 102.367 200.944 101.75 200.42 100.788H200.386V105.145H198.917V93.432H200.31V94.9184H200.344C200.884 93.9303 201.906 93.28 203.181 93.28ZM202.894 101.075C204.457 101.075 205.436 99.8165 205.436 97.8234C205.436 95.8389 204.457 94.5721 202.894 94.5721C201.391 94.5721 200.378 95.8726 200.378 97.8234C200.378 99.7827 201.391 101.075 202.894 101.075ZM210.998 101.117C212.383 101.117 213.447 100.146 213.447 98.8791V98.1612L211.099 98.3048C209.917 98.3808 209.242 98.9044 209.242 99.732C209.242 100.568 209.943 101.117 210.998 101.117ZM210.669 102.367C208.921 102.367 207.747 101.311 207.747 99.732C207.747 98.2288 208.904 97.283 210.931 97.1647L213.447 97.0212V96.2864C213.447 95.2139 212.738 94.5721 211.522 94.5721C210.39 94.5721 209.681 95.1041 209.495 95.9655H208.076C208.178 94.4454 209.478 93.28 211.556 93.28C213.616 93.28 214.917 94.3948 214.917 96.1429V102.215H213.523V100.703H213.489C212.966 101.708 211.851 102.367 210.669 102.367ZM216.459 102.215V93.432H217.844V94.8677H217.877C218.165 93.8965 218.975 93.28 220.006 93.28C220.259 93.28 220.479 93.3222 220.597 93.3391V94.7663C220.479 94.7241 220.166 94.6819 219.811 94.6819C218.671 94.6819 217.928 95.5011 217.928 96.7425V102.215H216.459ZM224.199 101.117C225.584 101.117 226.648 100.146 226.648 98.8791V98.1612L224.301 98.3048C223.118 98.3808 222.443 98.9044 222.443 99.732C222.443 100.568 223.144 101.117 224.199 101.117ZM223.87 102.367C222.122 102.367 220.948 101.311 220.948 99.732C220.948 98.2288 222.105 97.283 224.132 97.1647L226.648 97.0212V96.2864C226.648 95.2139 225.939 94.5721 224.723 94.5721C223.591 94.5721 222.882 95.1041 222.696 95.9655H221.277C221.379 94.4454 222.679 93.28 224.757 93.28C226.817 93.28 228.118 94.3948 228.118 96.1429V102.215H226.724V100.703H226.691C226.167 101.708 225.052 102.367 223.87 102.367ZM232.883 102.215V93.432H234.268V94.8339H234.301C234.715 93.905 235.61 93.28 236.793 93.28C237.992 93.28 238.878 93.8881 239.259 94.9521H239.292C239.782 93.905 240.812 93.28 242.045 93.28C243.785 93.28 244.908 94.4117 244.908 96.1513V102.215H243.439V96.4891C243.439 95.2899 242.772 94.5806 241.615 94.5806C240.449 94.5806 239.63 95.4419 239.63 96.6327V102.215H238.161V96.3287C238.161 95.273 237.451 94.5806 236.362 94.5806C235.196 94.5806 234.352 95.4926 234.352 96.7087V102.215H232.883ZM249.355 101.117C250.74 101.117 251.804 100.146 251.804 98.8791V98.1612L249.457 98.3048C248.274 98.3808 247.599 98.9044 247.599 99.732C247.599 100.568 248.3 101.117 249.355 101.117ZM249.026 102.367C247.278 102.367 246.104 101.311 246.104 99.732C246.104 98.2288 247.261 97.283 249.288 97.1647L251.804 97.0212V96.2864C251.804 95.2139 251.095 94.5721 249.879 94.5721C248.747 94.5721 248.038 95.1041 247.852 95.9655H246.433C246.535 94.4454 247.835 93.28 249.913 93.28C251.973 93.28 253.274 94.3948 253.274 96.1429V102.215H251.88V100.703H251.847C251.323 101.708 250.208 102.367 249.026 102.367ZM254.816 102.215V93.432H256.201V94.8339H256.235C256.724 93.8881 257.662 93.28 259.022 93.28C260.947 93.28 262.062 94.5214 262.062 96.5145V102.215H260.592V96.7763C260.592 95.3575 259.925 94.5806 258.574 94.5806C257.189 94.5806 256.285 95.5602 256.285 97.0465V102.215H254.816ZM259.579 92.0977C258.464 92.0977 258.042 90.8141 257.375 90.8141C256.986 90.8141 256.741 91.2279 256.775 92.0133H255.779C255.779 90.6283 256.42 89.8598 257.383 89.8598C258.574 89.8598 258.954 91.1434 259.587 91.1434C259.942 91.1434 260.17 90.7465 260.17 89.9358H261.167C261.167 91.287 260.499 92.0977 259.579 92.0977ZM266.509 101.117C267.894 101.117 268.958 100.146 268.958 98.8791V98.1612L266.61 98.3048C265.428 98.3808 264.752 98.9044 264.752 99.732C264.752 100.568 265.453 101.117 266.509 101.117ZM266.18 102.367C264.431 102.367 263.258 101.311 263.258 99.732C263.258 98.2288 264.415 97.283 266.441 97.1647L268.958 97.0212V96.2864C268.958 95.2139 268.249 94.5721 267.032 94.5721C265.901 94.5721 265.191 95.1041 265.006 95.9655H263.587C263.688 94.4454 264.989 93.28 267.066 93.28C269.127 93.28 270.427 94.3948 270.427 96.1429V102.215H269.034V100.703H269C268.477 101.708 267.362 102.367 266.18 102.367ZM271.969 102.215V93.432H273.354V94.8339H273.388C273.878 93.8881 274.815 93.28 276.175 93.28C278.101 93.28 279.215 94.5214 279.215 96.5145V102.215H277.746V96.7763C277.746 95.3575 277.079 94.5806 275.727 94.5806C274.342 94.5806 273.439 95.5602 273.439 97.0465V102.215H271.969ZM283.662 101.117C285.047 101.117 286.111 100.146 286.111 98.8791V98.1612L283.764 98.3048C282.581 98.3808 281.906 98.9044 281.906 99.732C281.906 100.568 282.607 101.117 283.662 101.117ZM283.333 102.367C281.585 102.367 280.411 101.311 280.411 99.732C280.411 98.2288 281.568 97.283 283.595 97.1647L286.111 97.0212V96.2864C286.111 95.2139 285.402 94.5721 284.186 94.5721C283.054 94.5721 282.345 95.1041 282.159 95.9655H280.74C280.842 94.4454 282.142 93.28 284.22 93.28C286.28 93.28 287.581 94.3948 287.581 96.1429V102.215H286.187V100.703H286.154C285.63 101.708 284.515 102.367 283.333 102.367ZM295.242 101.117C296.627 101.117 297.691 100.146 297.691 98.8791V98.1612L295.344 98.3048C294.161 98.3808 293.486 98.9044 293.486 99.732C293.486 100.568 294.187 101.117 295.242 101.117ZM294.913 102.367C293.165 102.367 291.991 101.311 291.991 99.732C291.991 98.2288 293.148 97.283 295.175 97.1647L297.691 97.0212V96.2864C297.691 95.2139 296.982 94.5721 295.766 94.5721C294.634 94.5721 293.925 95.1041 293.739 95.9655H292.32C292.422 94.4454 293.722 93.28 295.8 93.28C297.86 93.28 299.161 94.3948 299.161 96.1429V102.215H297.767V100.703H297.733C297.21 101.708 296.095 102.367 294.913 102.367ZM21.0259 123.215V111.029H22.4953V123.215H21.0259ZM27.0523 122.117C28.4372 122.117 29.5013 121.146 29.5013 119.879V119.161L27.1536 119.305C25.9713 119.381 25.2957 119.904 25.2957 120.732C25.2957 121.568 25.9966 122.117 27.0523 122.117ZM26.7229 123.367C24.9748 123.367 23.8009 122.311 23.8009 120.732C23.8009 119.229 24.9579 118.283 26.9847 118.165L29.5013 118.021V117.286C29.5013 116.214 28.7919 115.572 27.5758 115.572C26.4442 115.572 25.7348 116.104 25.549 116.966H24.1303C24.2316 115.445 25.5322 114.28 27.6096 114.28C29.6702 114.28 30.9707 115.395 30.9707 117.143V123.215H29.5773V121.703H29.5435C29.0199 122.708 27.9052 123.367 26.7229 123.367ZM32.3608 116.856C32.3608 115.353 33.7035 114.28 35.6375 114.28C37.4531 114.28 38.7874 115.361 38.855 116.847H37.4531C37.3518 116.003 36.6677 115.479 35.5868 115.479C34.5143 115.479 33.8049 116.011 33.8049 116.78C33.8049 117.388 34.2694 117.793 35.2659 118.046L36.6255 118.376C38.399 118.823 39.0408 119.465 39.0408 120.757C39.0408 122.286 37.5967 123.367 35.5446 123.367C33.6191 123.367 32.2763 122.32 32.1243 120.766H33.5938C33.7542 121.678 34.4467 122.168 35.6375 122.168C36.8282 122.168 37.5629 121.661 37.5629 120.867C37.5629 120.242 37.1998 119.904 36.2117 119.643L34.6663 119.246C33.1208 118.849 32.3608 118.055 32.3608 116.856ZM47.6902 123.418C45.1144 123.418 43.2734 121.957 43.2734 119.921C43.2734 118.401 44.3206 117.151 45.8914 116.788V116.754C44.574 116.349 43.7548 115.31 43.7548 114.027C43.7548 112.186 45.4269 110.826 47.6902 110.826C49.9703 110.826 51.6171 112.177 51.6171 114.035C51.6171 115.302 50.8148 116.332 49.489 116.754V116.788C51.0682 117.16 52.1154 118.41 52.1154 119.921C52.1154 121.965 50.2744 123.418 47.6902 123.418ZM47.6902 122.092C49.3707 122.092 50.5615 121.137 50.5615 119.812C50.5615 118.469 49.3707 117.523 47.6902 117.523C46.0181 117.523 44.8189 118.477 44.8189 119.812C44.8189 121.137 46.0181 122.092 47.6902 122.092ZM47.6902 116.189C49.1089 116.189 50.1139 115.353 50.1139 114.17C50.1139 112.971 49.1174 112.135 47.6902 112.135C46.263 112.135 45.2665 112.979 45.2665 114.17C45.2665 115.353 46.263 116.189 47.6902 116.189ZM54.7553 121.188C54.2148 121.188 53.7925 120.766 53.7925 120.225C53.7925 119.685 54.2148 119.263 54.7553 119.263C55.2958 119.263 55.718 119.685 55.718 120.225C55.718 120.766 55.2958 121.188 54.7553 121.188ZM54.7553 114.973C54.2148 114.973 53.7925 114.55 53.7925 114.01C53.7925 113.469 54.2148 113.047 54.7553 113.047C55.2958 113.047 55.718 113.469 55.718 114.01C55.718 114.55 55.2958 114.973 54.7553 114.973ZM61.8795 123.418C59.0335 123.418 57.3867 120.968 57.3867 117.118C57.3867 113.3 59.0504 110.826 61.8795 110.826C64.7086 110.826 66.3553 113.284 66.3553 117.109C66.3553 120.96 64.717 123.418 61.8795 123.418ZM61.8795 122.092C63.7796 122.092 64.8268 120.158 64.8268 117.118C64.8268 114.12 63.7627 112.16 61.8795 112.16C59.9962 112.16 58.9153 114.136 58.9153 117.109C58.9153 120.149 59.9709 122.092 61.8795 122.092ZM72.0439 123.418C69.1979 123.418 67.5512 120.968 67.5512 117.118C67.5512 113.3 69.2148 110.826 72.0439 110.826C74.873 110.826 76.5198 113.284 76.5198 117.109C76.5198 120.96 74.8814 123.418 72.0439 123.418ZM72.0439 122.092C73.944 122.092 74.9912 120.158 74.9912 117.118C74.9912 114.12 73.9271 112.16 72.0439 112.16C70.1607 112.16 69.0797 114.136 69.0797 117.109C69.0797 120.149 70.1353 122.092 72.0439 122.092ZM85.3972 114.28C87.6351 114.28 89.1552 116.07 89.1552 118.823C89.1552 121.577 87.6435 123.367 85.4309 123.367C84.1726 123.367 83.1592 122.75 82.6356 121.788H82.6019V126.145H81.1324V114.432H82.5259V115.918H82.5596C83.1001 114.93 84.122 114.28 85.3972 114.28ZM85.11 122.075C86.6724 122.075 87.652 120.816 87.652 118.823C87.652 116.839 86.6724 115.572 85.11 115.572C83.6068 115.572 82.5934 116.873 82.5934 118.823C82.5934 120.783 83.6068 122.075 85.11 122.075ZM93.2139 122.117C94.5988 122.117 95.6629 121.146 95.6629 119.879V119.161L93.3152 119.305C92.1329 119.381 91.4573 119.904 91.4573 120.732C91.4573 121.568 92.1582 122.117 93.2139 122.117ZM92.8845 123.367C91.1364 123.367 89.9625 122.311 89.9625 120.732C89.9625 119.229 91.1195 118.283 93.1463 118.165L95.6629 118.021V117.286C95.6629 116.214 94.9535 115.572 93.7375 115.572C92.6058 115.572 91.8964 116.104 91.7107 116.966H90.2919C90.3932 115.445 91.6938 114.28 93.7712 114.28C95.8318 114.28 97.1323 115.395 97.1323 117.143V123.215H95.7389V121.703H95.7051C95.1816 122.708 94.0668 123.367 92.8845 123.367ZM98.6744 123.215V114.432H100.059V115.868H100.093C100.38 114.897 101.191 114.28 102.221 114.28C102.475 114.28 102.694 114.322 102.812 114.339V115.766C102.694 115.724 102.382 115.682 102.027 115.682C100.887 115.682 100.144 116.501 100.144 117.742V123.215H98.6744ZM106.415 122.117C107.8 122.117 108.864 121.146 108.864 119.879V119.161L106.516 119.305C105.334 119.381 104.659 119.904 104.659 120.732C104.659 121.568 105.359 122.117 106.415 122.117ZM106.086 123.367C104.338 123.367 103.164 122.311 103.164 120.732C103.164 119.229 104.321 118.283 106.348 118.165L108.864 118.021V117.286C108.864 116.214 108.155 115.572 106.939 115.572C105.807 115.572 105.098 116.104 104.912 116.966H103.493C103.594 115.445 104.895 114.28 106.972 114.28C109.033 114.28 110.334 115.395 110.334 117.143V123.215H108.94V121.703H108.906C108.383 122.708 107.268 123.367 106.086 123.367ZM115.174 123.215V111.029H116.644V115.834H116.677C117.167 114.854 118.13 114.28 119.464 114.28C121.39 114.28 122.555 115.581 122.555 117.54V123.215H121.086V117.81C121.086 116.417 120.385 115.581 119.008 115.581C117.547 115.581 116.644 116.577 116.644 118.097V123.215H115.174ZM126.994 122.117C128.379 122.117 129.443 121.146 129.443 119.879V119.161L127.095 119.305C125.913 119.381 125.237 119.904 125.237 120.732C125.237 121.568 125.938 122.117 126.994 122.117ZM126.665 123.367C124.916 123.367 123.743 122.311 123.743 120.732C123.743 119.229 124.9 118.283 126.926 118.165L129.443 118.021V117.286C129.443 116.214 128.734 115.572 127.517 115.572C126.386 115.572 125.676 116.104 125.491 116.966H124.072C124.173 115.445 125.474 114.28 127.551 114.28C129.612 114.28 130.912 115.395 130.912 117.143V123.215H129.519V121.703H129.485C128.962 122.708 127.847 123.367 126.665 123.367ZM139.751 117.312H138.315C138.104 116.357 137.361 115.572 136.069 115.572C134.549 115.572 133.519 116.83 133.519 118.823C133.519 120.867 134.566 122.075 136.086 122.075C137.285 122.075 138.07 121.441 138.324 120.386H139.768C139.54 122.134 138.07 123.367 136.077 123.367C133.645 123.367 132.024 121.653 132.024 118.823C132.024 116.053 133.637 114.28 136.06 114.28C138.256 114.28 139.565 115.733 139.751 117.312ZM144.316 115.555C142.94 115.555 141.977 116.611 141.884 118.072H146.656C146.622 116.602 145.701 115.555 144.316 115.555ZM146.622 120.698H148.066C147.813 122.235 146.326 123.367 144.409 123.367C141.893 123.367 140.364 121.619 140.364 118.857C140.364 116.129 141.918 114.28 144.342 114.28C146.715 114.28 148.176 116.003 148.176 118.663V119.22H141.876V119.305C141.876 120.985 142.864 122.092 144.443 122.092C145.558 122.092 146.377 121.526 146.622 120.698ZM149.338 123.215V114.432H150.723V115.868H150.756C151.044 114.897 151.854 114.28 152.885 114.28C153.138 114.28 153.358 114.322 153.476 114.339V115.766C153.358 115.724 153.045 115.682 152.69 115.682C151.55 115.682 150.807 116.501 150.807 117.742V123.215H149.338ZM157.573 123.215V114.432H158.958V115.834H158.992C159.406 114.905 160.301 114.28 161.483 114.28C162.683 114.28 163.569 114.888 163.949 115.952H163.983C164.473 114.905 165.503 114.28 166.736 114.28C168.476 114.28 169.599 115.412 169.599 117.151V123.215H168.13V117.489C168.13 116.29 167.462 115.581 166.305 115.581C165.14 115.581 164.321 116.442 164.321 117.633V123.215H162.851V117.329C162.851 116.273 162.142 115.581 161.053 115.581C159.887 115.581 159.043 116.493 159.043 117.709V123.215H157.573ZM174.671 115.555C173.295 115.555 172.332 116.611 172.239 118.072H177.01C176.977 116.602 176.056 115.555 174.671 115.555ZM176.977 120.698H178.421C178.167 122.235 176.681 123.367 174.764 123.367C172.247 123.367 170.719 121.619 170.719 118.857C170.719 116.129 172.273 114.28 174.696 114.28C177.069 114.28 178.53 116.003 178.53 118.663V119.22H172.23V119.305C172.23 120.985 173.219 122.092 174.798 122.092C175.912 122.092 176.732 121.526 176.977 120.698ZM183.02 123.367C180.782 123.367 179.262 121.577 179.262 118.823C179.262 116.07 180.773 114.28 182.986 114.28C184.244 114.28 185.258 114.897 185.781 115.859H185.815V111.029H187.285V123.215H185.883V121.729H185.857C185.292 122.742 184.287 123.367 183.02 123.367ZM183.298 115.572C181.745 115.572 180.765 116.839 180.765 118.823C180.765 120.816 181.745 122.075 183.298 122.075C184.81 122.075 185.824 120.791 185.824 118.823C185.824 116.864 184.81 115.572 183.298 115.572ZM189.021 123.215V114.432H190.49V123.215H189.021ZM189.756 112.954C189.257 112.954 188.843 112.54 188.843 112.042C188.843 111.535 189.257 111.13 189.756 111.13C190.262 111.13 190.676 111.535 190.676 112.042C190.676 112.54 190.262 112.954 189.756 112.954ZM192.623 112.312H194.093V114.432H195.799V115.64H194.093V120.859C194.093 121.661 194.431 122.024 195.182 122.024C195.351 122.024 195.689 121.999 195.79 121.982V123.215C195.613 123.257 195.208 123.282 194.861 123.282C193.248 123.282 192.623 122.624 192.623 120.935V115.64H191.315V114.432H192.623V112.312ZM199.773 122.117C201.158 122.117 202.222 121.146 202.222 119.879V119.161L199.874 119.305C198.692 119.381 198.016 119.904 198.016 120.732C198.016 121.568 198.717 122.117 199.773 122.117ZM199.444 123.367C197.696 123.367 196.522 122.311 196.522 120.732C196.522 119.229 197.679 118.283 199.705 118.165L202.222 118.021V117.286C202.222 116.214 201.513 115.572 200.297 115.572C199.165 115.572 198.456 116.104 198.27 116.966H196.851C196.952 115.445 198.253 114.28 200.33 114.28C202.391 114.28 203.692 115.395 203.692 117.143V123.215H202.298V121.703H202.264C201.741 122.708 200.626 123.367 199.444 123.367ZM212.53 117.312H211.094C210.883 116.357 210.14 115.572 208.848 115.572C207.328 115.572 206.298 116.83 206.298 118.823C206.298 120.867 207.345 122.075 208.865 122.075C210.064 122.075 210.85 121.441 211.103 120.386H212.547C212.319 122.134 210.85 123.367 208.856 123.367C206.424 123.367 204.803 121.653 204.803 118.823C204.803 116.053 206.416 114.28 208.84 114.28C211.035 114.28 212.344 115.733 212.53 117.312ZM213.65 123.215V114.432H215.119V123.215H213.65ZM214.385 112.954C213.886 112.954 213.473 112.54 213.473 112.042C213.473 111.535 213.886 111.13 214.385 111.13C214.891 111.13 215.305 111.535 215.305 112.042C215.305 112.54 214.891 112.954 214.385 112.954ZM220.419 123.367C217.987 123.367 216.349 121.619 216.349 118.823C216.349 116.02 217.987 114.28 220.419 114.28C222.843 114.28 224.481 116.02 224.481 118.823C224.481 121.619 222.843 123.367 220.419 123.367ZM220.419 122.075C221.973 122.075 222.987 120.892 222.987 118.823C222.987 116.754 221.973 115.572 220.419 115.572C218.866 115.572 217.844 116.754 217.844 118.823C217.844 120.892 218.866 122.075 220.419 122.075ZM221.087 113.165H219.803L221.576 110.632H223.164L221.087 113.165ZM225.643 123.215V114.432H227.028V115.834H227.062C227.552 114.888 228.489 114.28 229.849 114.28C231.775 114.28 232.889 115.521 232.889 117.514V123.215H231.42V117.776C231.42 116.357 230.753 115.581 229.402 115.581C228.017 115.581 227.113 116.56 227.113 118.046V123.215H225.643ZM235.681 123.299C235.141 123.299 234.718 122.877 234.718 122.337C234.718 121.796 235.141 121.374 235.681 121.374C236.222 121.374 236.644 121.796 236.644 122.337C236.644 122.877 236.222 123.299 235.681 123.299ZM242.616 123.215H241.113V111.029H242.591L249.262 120.597H249.338V111.029H250.842V123.215H249.364L242.692 113.68H242.616V123.215ZM256.294 123.367C253.862 123.367 252.223 121.619 252.223 118.823C252.223 116.02 253.862 114.28 256.294 114.28C258.718 114.28 260.356 116.02 260.356 118.823C260.356 121.619 258.718 123.367 256.294 123.367ZM256.294 122.075C257.848 122.075 258.861 120.892 258.861 118.823C258.861 116.754 257.848 115.572 256.294 115.572C254.74 115.572 253.718 116.754 253.718 118.823C253.718 120.892 254.74 122.075 256.294 122.075ZM268.38 123.367C265.948 123.367 264.31 121.619 264.31 118.823C264.31 116.02 265.948 114.28 268.38 114.28C270.804 114.28 272.442 116.02 272.442 118.823C272.442 121.619 270.804 123.367 268.38 123.367ZM268.38 122.075C269.934 122.075 270.948 120.892 270.948 118.823C270.948 116.754 269.934 115.572 268.38 115.572C266.826 115.572 265.805 116.754 265.805 118.823C265.805 120.892 266.826 122.075 268.38 122.075ZM273.68 123.215V111.029H275.15V123.215H273.68ZM284.014 114.432L280.788 123.215H279.285L276.05 114.432H277.596L280.019 121.653H280.053L282.485 114.432H284.014ZM284.922 123.215V114.432H286.392V123.215H284.922ZM285.657 112.954C285.159 112.954 284.745 112.54 284.745 112.042C284.745 111.535 285.159 111.13 285.657 111.13C286.164 111.13 286.578 111.535 286.578 112.042C286.578 112.54 286.164 112.954 285.657 112.954ZM291.379 123.367C289.142 123.367 287.621 121.577 287.621 118.823C287.621 116.07 289.133 114.28 291.346 114.28C292.604 114.28 293.617 114.897 294.141 115.859H294.175V111.029H295.644V123.215H294.242V121.729H294.217C293.651 122.742 292.646 123.367 291.379 123.367ZM291.658 115.572C290.104 115.572 289.125 116.839 289.125 118.823C289.125 120.816 290.104 122.075 291.658 122.075C293.17 122.075 294.183 120.791 294.183 118.823C294.183 116.864 293.17 115.572 291.658 115.572ZM300.826 115.555C299.45 115.555 298.487 116.611 298.394 118.072H303.165C303.132 116.602 302.211 115.555 300.826 115.555ZM303.132 120.698H304.576C304.322 122.235 302.836 123.367 300.919 123.367C298.402 123.367 296.874 121.619 296.874 118.857C296.874 116.129 298.428 114.28 300.851 114.28C303.224 114.28 304.685 116.003 304.685 118.663V119.22H298.385V119.305C298.385 120.985 299.374 122.092 300.953 122.092C302.067 122.092 302.887 121.526 303.132 120.698ZM305.695 116.856C305.695 115.353 307.038 114.28 308.972 114.28C310.788 114.28 312.122 115.361 312.19 116.847H310.788C310.686 116.003 310.002 115.479 308.921 115.479C307.849 115.479 307.14 116.011 307.14 116.78C307.14 117.388 307.604 117.793 308.601 118.046L309.96 118.376C311.734 118.823 312.375 119.465 312.375 120.757C312.375 122.286 310.931 123.367 308.879 123.367C306.954 123.367 305.611 122.32 305.459 120.766H306.928C307.089 121.678 307.781 122.168 308.972 122.168C310.163 122.168 310.898 121.661 310.898 120.867C310.898 120.242 310.534 119.904 309.546 119.643L308.001 119.246C306.455 118.849 305.695 118.055 305.695 116.856ZM24.2772 144.367C22.0393 144.367 20.5192 142.577 20.5192 139.823C20.5192 137.07 22.0309 135.28 24.2434 135.28C25.5018 135.28 26.5152 135.897 27.0387 136.859H27.0725V132.029H28.542V144.215H27.1401V142.729H27.1148C26.5489 143.742 25.544 144.367 24.2772 144.367ZM24.5559 136.572C23.002 136.572 22.0224 137.839 22.0224 139.823C22.0224 141.816 23.002 143.075 24.5559 143.075C26.0676 143.075 27.081 141.791 27.081 139.823C27.081 137.864 26.0676 136.572 24.5559 136.572ZM33.7238 136.555C32.3473 136.555 31.3845 137.611 31.2917 139.072H36.0631C36.0293 137.602 35.1088 136.555 33.7238 136.555ZM36.0293 141.698H37.4734C37.2201 143.235 35.7337 144.367 33.8167 144.367C31.3001 144.367 29.7716 142.619 29.7716 139.857C29.7716 137.129 31.3254 135.28 33.7492 135.28C36.1222 135.28 37.5832 137.003 37.5832 139.663V140.22H31.2832V140.305C31.2832 141.985 32.2713 143.092 33.8505 143.092C34.9652 143.092 35.7844 142.526 36.0293 141.698ZM42.0726 144.367C39.8346 144.367 38.3145 142.577 38.3145 139.823C38.3145 137.07 39.8262 135.28 42.0388 135.28C43.2971 135.28 44.3105 135.897 44.8341 136.859H44.8679V132.029H46.3373V144.215H44.9354V142.729H44.9101C44.3443 143.742 43.3393 144.367 42.0726 144.367ZM42.3512 136.572C40.7974 136.572 39.8177 137.839 39.8177 139.823C39.8177 141.816 40.7974 143.075 42.3512 143.075C43.8629 143.075 44.8763 141.791 44.8763 139.823C44.8763 137.864 43.8629 136.572 42.3512 136.572ZM48.0736 144.215V135.432H49.543V144.215H48.0736ZM48.8083 133.954C48.31 133.954 47.8962 133.54 47.8962 133.042C47.8962 132.535 48.31 132.13 48.8083 132.13C49.315 132.13 49.7288 132.535 49.7288 133.042C49.7288 133.54 49.315 133.954 48.8083 133.954ZM58.4998 138.312H57.0641C56.853 137.357 56.1099 136.572 54.8178 136.572C53.2977 136.572 52.2674 137.83 52.2674 139.823C52.2674 141.867 53.3146 143.075 54.8347 143.075C56.0339 143.075 56.8192 142.441 57.0726 141.386H58.5167C58.2887 143.134 56.8192 144.367 54.8262 144.367C52.3941 144.367 50.7726 142.653 50.7726 139.823C50.7726 137.053 52.3856 135.28 54.8093 135.28C57.005 135.28 58.314 136.733 58.4998 138.312ZM62.4402 143.117C63.8252 143.117 64.8893 142.146 64.8893 140.879V140.161L62.5416 140.305C61.3593 140.381 60.6837 140.904 60.6837 141.732C60.6837 142.568 61.3846 143.117 62.4402 143.117ZM62.1109 144.367C60.3628 144.367 59.1889 143.311 59.1889 141.732C59.1889 140.229 60.3459 139.283 62.3727 139.165L64.8893 139.021V138.286C64.8893 137.214 64.1799 136.572 62.9638 136.572C61.8322 136.572 61.1228 137.104 60.937 137.966H59.5183C59.6196 136.445 60.9201 135.28 62.9976 135.28C65.0582 135.28 66.3587 136.395 66.3587 138.143V144.215H64.9653V142.703H64.9315C64.4079 143.708 63.2932 144.367 62.1109 144.367ZM67.9008 144.215V135.432H69.2858V136.868H69.3195C69.6067 135.897 70.4174 135.28 71.4477 135.28C71.701 135.28 71.9206 135.322 72.0388 135.339V136.766C71.9206 136.724 71.6081 136.682 71.2535 136.682C70.1134 136.682 69.3702 137.501 69.3702 138.742V144.215H67.9008ZM79.6579 136.555C78.2814 136.555 77.3187 137.611 77.2258 139.072H81.9972C81.9634 137.602 81.0429 136.555 79.6579 136.555ZM81.9634 141.698H83.4075C83.1542 143.235 81.6678 144.367 79.7508 144.367C77.2342 144.367 75.7057 142.619 75.7057 139.857C75.7057 137.129 77.2595 135.28 79.6833 135.28C82.0563 135.28 83.5173 137.003 83.5173 139.663V140.22H77.2173V140.305C77.2173 141.985 78.2054 143.092 79.7846 143.092C80.8993 143.092 81.7185 142.526 81.9634 141.698ZM84.5273 137.856C84.5273 136.353 85.8701 135.28 87.804 135.28C89.6197 135.28 90.954 136.361 91.0215 137.847H89.6197C89.5183 137.003 88.8343 136.479 87.7533 136.479C86.6808 136.479 85.9714 137.011 85.9714 137.78C85.9714 138.388 86.4359 138.793 87.4324 139.046L88.7921 139.376C90.5655 139.823 91.2073 140.465 91.2073 141.757C91.2073 143.286 89.7632 144.367 87.7111 144.367C85.7856 144.367 84.4429 143.32 84.2909 141.766H85.7603C85.9207 142.678 86.6132 143.168 87.804 143.168C88.9947 143.168 89.7294 142.661 89.7294 141.867C89.7294 141.242 89.3663 140.904 88.3782 140.643L86.8328 140.246C85.2874 139.849 84.5273 139.055 84.5273 137.856ZM95.9332 136.555C94.5566 136.555 93.5939 137.611 93.501 139.072H98.2724C98.2386 137.602 97.3181 136.555 95.9332 136.555ZM98.2386 141.698H99.6827C99.4294 143.235 97.9431 144.367 96.026 144.367C93.5094 144.367 91.9809 142.619 91.9809 139.857C91.9809 137.129 93.5348 135.28 95.9585 135.28C98.3315 135.28 99.7925 137.003 99.7925 139.663V140.22H93.4925V140.305C93.4925 141.985 94.4806 143.092 96.0598 143.092C97.1746 143.092 97.9937 142.526 98.2386 141.698ZM104.177 144.215V135.432H105.562V136.834H105.596C106.01 135.905 106.905 135.28 108.087 135.28C109.286 135.28 110.173 135.888 110.553 136.952H110.587C111.077 135.905 112.107 135.28 113.34 135.28C115.08 135.28 116.203 136.412 116.203 138.151V144.215H114.733V138.489C114.733 137.29 114.066 136.581 112.909 136.581C111.744 136.581 110.925 137.442 110.925 138.633V144.215H109.455V138.329C109.455 137.273 108.746 136.581 107.657 136.581C106.491 136.581 105.647 137.493 105.647 138.709V144.215H104.177ZM121.393 144.367C118.961 144.367 117.323 142.619 117.323 139.823C117.323 137.02 118.961 135.28 121.393 135.28C123.817 135.28 125.455 137.02 125.455 139.823C125.455 142.619 123.817 144.367 121.393 144.367ZM121.393 143.075C122.947 143.075 123.96 141.892 123.96 139.823C123.96 137.754 122.947 136.572 121.393 136.572C119.839 136.572 118.817 137.754 118.817 139.823C118.817 141.892 119.839 143.075 121.393 143.075ZM126.617 144.215V135.432H128.002V136.834H128.036C128.45 135.905 129.345 135.28 130.527 135.28C131.726 135.28 132.613 135.888 132.993 136.952H133.027C133.517 135.905 134.547 135.28 135.78 135.28C137.52 135.28 138.643 136.412 138.643 138.151V144.215H137.174V138.489C137.174 137.29 136.506 136.581 135.349 136.581C134.184 136.581 133.365 137.442 133.365 138.633V144.215H131.895V138.329C131.895 137.273 131.186 136.581 130.097 136.581C128.931 136.581 128.087 137.493 128.087 138.709V144.215H126.617ZM143.715 136.555C142.339 136.555 141.376 137.611 141.283 139.072H146.054C146.021 137.602 145.1 136.555 143.715 136.555ZM146.021 141.698H147.465C147.211 143.235 145.725 144.367 143.808 144.367C141.291 144.367 139.763 142.619 139.763 139.857C139.763 137.129 141.317 135.28 143.74 135.28C146.113 135.28 147.574 137.003 147.574 139.663V140.22H141.274V140.305C141.274 141.985 142.262 143.092 143.842 143.092C144.956 143.092 145.776 142.526 146.021 141.698ZM148.736 144.215V135.432H150.121V136.834H150.155C150.645 135.888 151.582 135.28 152.942 135.28C154.868 135.28 155.982 136.521 155.982 138.514V144.215H154.513V138.776C154.513 137.357 153.846 136.581 152.494 136.581C151.109 136.581 150.206 137.56 150.206 139.046V144.215H148.736ZM158.006 133.312H159.475V135.432H161.181V136.64H159.475V141.859C159.475 142.661 159.813 143.024 160.565 143.024C160.733 143.024 161.071 142.999 161.173 142.982V144.215C160.995 144.257 160.59 144.282 160.244 144.282C158.631 144.282 158.006 143.624 158.006 141.935V136.64H156.697V135.432H158.006V133.312ZM165.814 144.367C163.382 144.367 161.743 142.619 161.743 139.823C161.743 137.02 163.382 135.28 165.814 135.28C168.238 135.28 169.876 137.02 169.876 139.823C169.876 142.619 168.238 144.367 165.814 144.367ZM165.814 143.075C167.368 143.075 168.381 141.892 168.381 139.823C168.381 137.754 167.368 136.572 165.814 136.572C164.26 136.572 163.238 137.754 163.238 139.823C163.238 141.892 164.26 143.075 165.814 143.075ZM177.157 143.117C178.542 143.117 179.606 142.146 179.606 140.879V140.161L177.259 140.305C176.076 140.381 175.401 140.904 175.401 141.732C175.401 142.568 176.102 143.117 177.157 143.117ZM176.828 144.367C175.08 144.367 173.906 143.311 173.906 141.732C173.906 140.229 175.063 139.283 177.09 139.165L179.606 139.021V138.286C179.606 137.214 178.897 136.572 177.681 136.572C176.549 136.572 175.84 137.104 175.654 137.966H174.235C174.337 136.445 175.637 135.28 177.715 135.28C179.775 135.28 181.076 136.395 181.076 138.143V144.215H179.682V142.703H179.649C179.125 143.708 178.01 144.367 176.828 144.367ZM193.137 138.312H191.701C191.49 137.357 190.747 136.572 189.455 136.572C187.935 136.572 186.905 137.83 186.905 139.823C186.905 141.867 187.952 143.075 189.472 143.075C190.671 143.075 191.456 142.441 191.71 141.386H193.154C192.926 143.134 191.456 144.367 189.463 144.367C187.031 144.367 185.41 142.653 185.41 139.823C185.41 137.053 187.023 135.28 189.446 135.28C191.642 135.28 192.951 136.733 193.137 138.312ZM201.393 135.432V144.215H199.999V142.788H199.966C199.442 143.801 198.53 144.367 197.179 144.367C195.262 144.367 194.139 143.125 194.139 141.132V135.432H195.608V140.871C195.608 142.298 196.275 143.066 197.635 143.066C199.062 143.066 199.923 142.087 199.923 140.592V135.432H201.393ZM203.053 144.215V135.432H204.523V144.215H203.053ZM203.788 133.954C203.29 133.954 202.876 133.54 202.876 133.042C202.876 132.535 203.29 132.13 203.788 132.13C204.294 132.13 204.708 132.535 204.708 133.042C204.708 133.54 204.294 133.954 203.788 133.954ZM209.51 144.367C207.272 144.367 205.752 142.577 205.752 139.823C205.752 137.07 207.264 135.28 209.476 135.28C210.735 135.28 211.748 135.897 212.272 136.859H212.305V132.029H213.775V144.215H212.373V142.729H212.348C211.782 143.742 210.777 144.367 209.51 144.367ZM209.789 136.572C208.235 136.572 207.255 137.839 207.255 139.823C207.255 141.816 208.235 143.075 209.789 143.075C211.3 143.075 212.314 141.791 212.314 139.823C212.314 137.864 211.3 136.572 209.789 136.572ZM218.332 143.117C219.717 143.117 220.781 142.146 220.781 140.879V140.161L218.433 140.305C217.251 140.381 216.575 140.904 216.575 141.732C216.575 142.568 217.276 143.117 218.332 143.117ZM218.002 144.367C216.254 144.367 215.08 143.311 215.08 141.732C215.08 140.229 216.237 139.283 218.264 139.165L220.781 139.021V138.286C220.781 137.214 220.071 136.572 218.855 136.572C217.724 136.572 217.014 137.104 216.829 137.966H215.41C215.511 136.445 216.812 135.28 218.889 135.28C220.95 135.28 222.25 136.395 222.25 138.143V144.215H220.857V142.703H220.823C220.299 143.708 219.185 144.367 218.002 144.367ZM223.792 144.215V135.432H225.177V136.868H225.211C225.498 135.897 226.309 135.28 227.339 135.28C227.593 135.28 227.812 135.322 227.93 135.339V136.766C227.812 136.724 227.5 136.682 227.145 136.682C226.005 136.682 225.262 137.501 225.262 138.742V144.215H223.792ZM229.278 133.312H230.748V135.432H232.454V136.64H230.748V141.859C230.748 142.661 231.085 143.024 231.837 143.024C232.006 143.024 232.344 142.999 232.445 142.982V144.215C232.268 144.257 231.862 144.282 231.516 144.282C229.903 144.282 229.278 143.624 229.278 141.935V136.64H227.969V135.432H229.278V133.312ZM236.968 136.555C235.592 136.555 234.629 137.611 234.536 139.072H239.308C239.274 137.602 238.353 136.555 236.968 136.555ZM239.274 141.698H240.718C240.464 143.235 238.978 144.367 237.061 144.367C234.545 144.367 233.016 142.619 233.016 139.857C233.016 137.129 234.57 135.28 236.994 135.28C239.367 135.28 240.828 137.003 240.828 139.663V140.22H234.528V140.305C234.528 141.985 235.516 143.092 237.095 143.092C238.21 143.092 239.029 142.526 239.274 141.698ZM242.581 132.029H244.101L244 140.17H242.682L242.581 132.029ZM243.341 144.299C242.8 144.299 242.378 143.877 242.378 143.337C242.378 142.788 242.8 142.374 243.341 142.374C243.89 142.374 244.304 142.788 244.304 143.337C244.304 143.877 243.89 144.299 243.341 144.299ZM248.545 145.426H265.84V128.13H248.545V145.426Z" fill="black"/>
<path d="M290.394 152.13V144.861H290.371L288.153 146.457V145.354L290.383 143.752H291.405V152.13H290.394ZM294.552 152.13L298.343 144.704V144.681H293.832V143.752H299.377V144.721L295.649 152.13H294.552ZM301.769 150.736C301.398 150.736 301.108 150.446 301.108 150.075C301.108 149.703 301.398 149.413 301.769 149.413C302.141 149.413 302.431 149.703 302.431 150.075C302.431 150.446 302.141 150.736 301.769 150.736ZM301.769 146.463C301.398 146.463 301.108 146.173 301.108 145.801C301.108 145.43 301.398 145.14 301.769 145.14C302.141 145.14 302.431 145.43 302.431 145.801C302.431 146.173 302.141 146.463 301.769 146.463ZM308.482 152.13V150.388H304.272V149.442C304.986 148.118 305.968 146.591 307.947 143.752H309.492V149.471H310.676V150.388H309.492V152.13H308.482ZM305.306 149.448V149.471H308.482V144.623H308.464C306.879 146.887 305.968 148.286 305.306 149.448ZM315.118 152.269C313.347 152.269 312.082 151.265 312.082 149.866C312.082 148.82 312.802 147.961 313.882 147.712V147.688C312.976 147.41 312.413 146.696 312.413 145.813C312.413 144.547 313.562 143.613 315.118 143.613C316.686 143.613 317.818 144.542 317.818 145.819C317.818 146.69 317.267 147.398 316.355 147.688V147.712C317.441 147.967 318.161 148.826 318.161 149.866C318.161 151.271 316.895 152.269 315.118 152.269ZM315.118 151.358C316.274 151.358 317.092 150.702 317.092 149.79C317.092 148.867 316.274 148.217 315.118 148.217C313.969 148.217 313.144 148.873 313.144 149.79C313.144 150.702 313.969 151.358 315.118 151.358ZM315.118 147.299C316.094 147.299 316.785 146.725 316.785 145.912C316.785 145.087 316.1 144.512 315.118 144.512C314.137 144.512 313.452 145.093 313.452 145.912C313.452 146.725 314.137 147.299 315.118 147.299Z" fill="black" fill-opacity="0.25"/>
</svg>
