<svg width="355" height="180" viewBox="0 0 355 180" fill="none" xmlns="http://www.w3.org/2000/svg">
<rect x="30.7256" width="314.593" height="83.629" rx="8.25162" fill="#DCF7C5"/>
<path d="M54.2311 27.3145H52.8124V17.9236H52.7533L48.8686 27.23H47.5849L43.7002 17.9236H43.6411V27.3145H42.2223V15.1283H43.9873L48.193 25.2961H48.2605L52.4661 15.1283H54.2311V27.3145ZM59.565 19.6548C58.1885 19.6548 57.2258 20.7105 57.1329 22.1714H61.9043C61.8705 20.702 60.95 19.6548 59.565 19.6548ZM61.8705 24.7978H63.3146C63.0613 26.3348 61.5749 27.4665 59.6579 27.4665C57.1413 27.4665 55.6128 25.7183 55.6128 22.9568C55.6128 20.2291 57.1666 18.3796 59.5904 18.3796C61.9634 18.3796 63.4244 20.1024 63.4244 22.7626V23.32H57.1244V23.4044C57.1244 25.085 58.1125 26.1913 59.6917 26.1913C60.8064 26.1913 61.6256 25.6255 61.8705 24.7978ZM64.5864 27.3145V18.5316H65.9714V19.9335H66.0052C66.419 19.0046 67.3142 18.3796 68.4965 18.3796C69.6957 18.3796 70.5824 18.9877 70.9624 20.0517H70.9962C71.486 19.0046 72.5163 18.3796 73.7493 18.3796C75.4889 18.3796 76.6121 19.5113 76.6121 21.2509V27.3145H75.1427V21.5887C75.1427 20.3895 74.4755 19.6802 73.3186 19.6802C72.1532 19.6802 71.334 20.5416 71.334 21.7323V27.3145H69.8646V21.4283C69.8646 20.3727 69.1552 19.6802 68.0658 19.6802C66.9004 19.6802 66.0559 20.5922 66.0559 21.8083V27.3145H64.5864ZM81.8024 27.4665C79.3703 27.4665 77.7319 25.7183 77.7319 22.923C77.7319 20.1193 79.3703 18.3796 81.8024 18.3796C84.2261 18.3796 85.8645 20.1193 85.8645 22.923C85.8645 25.7183 84.2261 27.4665 81.8024 27.4665ZM81.8024 26.1744C83.3563 26.1744 84.3697 24.9921 84.3697 22.923C84.3697 20.854 83.3563 19.6717 81.8024 19.6717C80.2485 19.6717 79.2267 20.854 79.2267 22.923C79.2267 24.9921 80.2485 26.1744 81.8024 26.1744ZM87.0265 27.3145V18.5316H88.4115V19.9673H88.4453C88.7324 18.9961 89.5431 18.3796 90.5734 18.3796C90.8268 18.3796 91.0463 18.4219 91.1646 18.4387V19.866C91.0463 19.8237 90.7339 19.7815 90.3792 19.7815C89.2391 19.7815 88.4959 20.6007 88.4959 21.8421V27.3145H87.0265ZM94.7672 26.2166C96.1522 26.2166 97.2163 25.2454 97.2163 23.9787V23.2608L94.8685 23.4044C93.6862 23.4804 93.0106 24.004 93.0106 24.8316C93.0106 25.6677 93.7116 26.2166 94.7672 26.2166ZM94.4379 27.4665C92.6897 27.4665 91.5159 26.4108 91.5159 24.8316C91.5159 23.3284 92.6728 22.3826 94.6996 22.2643L97.2163 22.1208V21.3861C97.2163 20.3135 96.5069 19.6717 95.2908 19.6717C94.1592 19.6717 93.4498 20.2038 93.264 21.0651H91.8452C91.9466 19.545 93.2471 18.3796 95.3246 18.3796C97.3852 18.3796 98.6857 19.4944 98.6857 21.2425V27.3145H97.2923V25.8028H97.2585C96.7349 26.8078 95.6202 27.4665 94.4379 27.4665ZM103.749 19.6548C102.373 19.6548 101.41 20.7105 101.317 22.1714H106.089C106.055 20.702 105.134 19.6548 103.749 19.6548ZM106.055 24.7978H107.499C107.246 26.3348 105.759 27.4665 103.842 27.4665C101.326 27.4665 99.7971 25.7183 99.7971 22.9568C99.7971 20.2291 101.351 18.3796 103.775 18.3796C106.148 18.3796 107.609 20.1024 107.609 22.7626V23.32H101.309V23.4044C101.309 25.085 102.297 26.1913 103.876 26.1913C104.991 26.1913 105.81 25.6255 106.055 24.7978ZM109.776 29.7382H108.551L109.37 25.4397H110.933L109.776 29.7382ZM122.512 21.4114H121.077C120.866 20.4571 120.123 19.6717 118.83 19.6717C117.31 19.6717 116.28 20.93 116.28 22.923C116.28 24.9667 117.327 26.1744 118.847 26.1744C120.047 26.1744 120.832 25.541 121.085 24.4854H122.529C122.301 26.2335 120.832 27.4665 118.839 27.4665C116.407 27.4665 114.785 25.7521 114.785 22.923C114.785 20.1531 116.398 18.3796 118.822 18.3796C121.018 18.3796 122.327 19.8322 122.512 21.4114ZM126.453 26.2166C127.838 26.2166 128.902 25.2454 128.902 23.9787V23.2608L126.554 23.4044C125.372 23.4804 124.696 24.004 124.696 24.8316C124.696 25.6677 125.397 26.2166 126.453 26.2166ZM126.124 27.4665C124.375 27.4665 123.202 26.4108 123.202 24.8316C123.202 23.3284 124.359 22.3826 126.385 22.2643L128.902 22.1208V21.3861C128.902 20.3135 128.193 19.6717 126.976 19.6717C125.845 19.6717 125.135 20.2038 124.95 21.0651H123.531C123.632 19.545 124.933 18.3796 127.01 18.3796C129.071 18.3796 130.371 19.4944 130.371 21.2425V27.3145H128.978V25.8028H128.944C128.421 26.8078 127.306 27.4665 126.124 27.4665ZM131.913 27.3145V18.5316H133.298V19.9335H133.332C133.822 18.9877 134.759 18.3796 136.119 18.3796C138.045 18.3796 139.159 19.621 139.159 21.6141V27.3145H137.69V21.8759C137.69 20.4571 137.023 19.6802 135.671 19.6802C134.286 19.6802 133.383 20.6598 133.383 22.1461V27.3145H131.913ZM148.006 21.4114H146.571C146.359 20.4571 145.616 19.6717 144.324 19.6717C142.804 19.6717 141.774 20.93 141.774 22.923C141.774 24.9667 142.821 26.1744 144.341 26.1744C145.54 26.1744 146.326 25.541 146.579 24.4854H148.023C147.795 26.2335 146.326 27.4665 144.333 27.4665C141.901 27.4665 140.279 25.7521 140.279 22.923C140.279 20.1531 141.892 18.3796 144.316 18.3796C146.511 18.3796 147.82 19.8322 148.006 21.4114ZM152.572 19.6548C151.195 19.6548 150.232 20.7105 150.139 22.1714H154.911C154.877 20.702 153.957 19.6548 152.572 19.6548ZM154.877 24.7978H156.321C156.068 26.3348 154.582 27.4665 152.665 27.4665C150.148 27.4665 148.619 25.7183 148.619 22.9568C148.619 20.2291 150.173 18.3796 152.597 18.3796C154.97 18.3796 156.431 20.1024 156.431 22.7626V23.32H150.131V23.4044C150.131 25.085 151.119 26.1913 152.698 26.1913C153.813 26.1913 154.632 25.6255 154.877 24.7978ZM157.669 27.3145V15.1283H159.138V27.3145H157.669ZM163.695 26.2166C165.08 26.2166 166.144 25.2454 166.144 23.9787V23.2608L163.797 23.4044C162.614 23.4804 161.939 24.004 161.939 24.8316C161.939 25.6677 162.64 26.2166 163.695 26.2166ZM163.366 27.4665C161.618 27.4665 160.444 26.4108 160.444 24.8316C160.444 23.3284 161.601 22.3826 163.628 22.2643L166.144 22.1208V21.3861C166.144 20.3135 165.435 19.6717 164.219 19.6717C163.087 19.6717 162.378 20.2038 162.192 21.0651H160.773C160.875 19.545 162.175 18.3796 164.253 18.3796C166.313 18.3796 167.614 19.4944 167.614 21.2425V27.3145H166.22V25.8028H166.187C165.663 26.8078 164.548 27.4665 163.366 27.4665ZM179.675 21.4114H178.239C178.028 20.4571 177.285 19.6717 175.993 19.6717C174.473 19.6717 173.443 20.93 173.443 22.923C173.443 24.9667 174.49 26.1744 176.01 26.1744C177.209 26.1744 177.994 25.541 178.248 24.4854H179.692C179.464 26.2335 177.994 27.4665 176.001 27.4665C173.569 27.4665 171.948 25.7521 171.948 22.923C171.948 20.1531 173.561 18.3796 175.985 18.3796C178.18 18.3796 179.489 19.8322 179.675 21.4114ZM187.931 18.5316V27.3145H186.537V25.8872H186.504C185.98 26.9006 185.068 27.4665 183.717 27.4665C181.8 27.4665 180.677 26.225 180.677 24.232V18.5316H182.146V23.9702C182.146 25.3974 182.813 26.1659 184.173 26.1659C185.6 26.1659 186.461 25.1863 186.461 23.6915V18.5316H187.931ZM192.412 26.2166C193.797 26.2166 194.861 25.2454 194.861 23.9787V23.2608L192.513 23.4044C191.331 23.4804 190.655 24.004 190.655 24.8316C190.655 25.6677 191.356 26.2166 192.412 26.2166ZM192.082 27.4665C190.334 27.4665 189.16 26.4108 189.16 24.8316C189.16 23.3284 190.317 22.3826 192.344 22.2643L194.861 22.1208V21.3861C194.861 20.3135 194.151 19.6717 192.935 19.6717C191.804 19.6717 191.094 20.2038 190.909 21.0651H189.49C189.591 19.545 190.892 18.3796 192.969 18.3796C195.03 18.3796 196.33 19.4944 196.33 21.2425V27.3145H194.937V25.8028H194.903C194.38 26.8078 193.265 27.4665 192.082 27.4665ZM197.948 27.3145V15.1283H199.418V27.3145H197.948ZM204.389 18.3796C205.664 18.3796 206.669 19.0046 207.234 20.018H207.268V18.5316H208.67V30.2449H207.201V25.845H207.167C206.618 26.85 205.596 27.4665 204.355 27.4665C202.134 27.4665 200.647 25.6761 200.647 22.923C200.647 20.1615 202.134 18.3796 204.389 18.3796ZM204.65 26.1744C206.154 26.1744 207.201 24.8823 207.201 22.923C207.201 20.9638 206.154 19.6717 204.65 19.6717C203.113 19.6717 202.151 20.9131 202.151 22.923C202.151 24.9245 203.113 26.1744 204.65 26.1744ZM217.475 18.5316V27.3145H216.081V25.8872H216.048C215.524 26.9006 214.612 27.4665 213.261 27.4665C211.344 27.4665 210.221 26.225 210.221 24.232V18.5316H211.69V23.9702C211.69 25.3974 212.357 26.1659 213.717 26.1659C215.144 26.1659 216.005 25.1863 216.005 23.6915V18.5316H217.475ZM219.135 27.3145V18.5316H220.605V27.3145H219.135ZM219.87 17.0538C219.372 17.0538 218.958 16.64 218.958 16.1417C218.958 15.635 219.372 15.2296 219.87 15.2296C220.377 15.2296 220.79 15.635 220.79 16.1417C220.79 16.64 220.377 17.0538 219.87 17.0538ZM225.787 19.6548C224.41 19.6548 223.447 20.7105 223.354 22.1714H228.126C228.092 20.702 227.171 19.6548 225.787 19.6548ZM228.092 24.7978H229.536C229.283 26.3348 227.796 27.4665 225.879 27.4665C223.363 27.4665 221.834 25.7183 221.834 22.9568C221.834 20.2291 223.388 18.3796 225.812 18.3796C228.185 18.3796 229.646 20.1024 229.646 22.7626V23.32H223.346V23.4044C223.346 25.085 224.334 26.1913 225.913 26.1913C227.028 26.1913 227.847 25.6255 228.092 24.7978ZM230.808 27.3145V18.5316H232.193V19.9673H232.227C232.514 18.9961 233.325 18.3796 234.355 18.3796C234.608 18.3796 234.828 18.4219 234.946 18.4387V19.866C234.828 19.8237 234.515 19.7815 234.161 19.7815C233.021 19.7815 232.277 20.6007 232.277 21.8421V27.3145H230.808ZM242.565 19.6548C241.189 19.6548 240.226 20.7105 240.133 22.1714H244.904C244.871 20.702 243.95 19.6548 242.565 19.6548ZM244.871 24.7978H246.315C246.061 26.3348 244.575 27.4665 242.658 27.4665C240.141 27.4665 238.613 25.7183 238.613 22.9568C238.613 20.2291 240.167 18.3796 242.59 18.3796C244.963 18.3796 246.424 20.1024 246.424 22.7626V23.32H240.124V23.4044C240.124 25.085 241.113 26.1913 242.692 26.1913C243.806 26.1913 244.626 25.6255 244.871 24.7978ZM254.79 18.5316L251.564 27.3145H250.061L246.826 18.5316H248.372L250.796 25.7521H250.829L253.262 18.5316H254.79ZM258.891 19.6548C257.514 19.6548 256.552 20.7105 256.459 22.1714H261.23C261.196 20.702 260.276 19.6548 258.891 19.6548ZM261.196 24.7978H262.641C262.387 26.3348 260.901 27.4665 258.984 27.4665C256.467 27.4665 254.939 25.7183 254.939 22.9568C254.939 20.2291 256.493 18.3796 258.916 18.3796C261.289 18.3796 262.75 20.1024 262.75 22.7626V23.32H256.45V23.4044C256.45 25.085 257.438 26.1913 259.018 26.1913C260.132 26.1913 260.952 25.6255 261.196 24.7978ZM263.912 27.3145V18.5316H265.297V19.9335H265.331C265.821 18.9877 266.758 18.3796 268.118 18.3796C270.043 18.3796 271.158 19.621 271.158 21.6141V27.3145H269.689V21.8759C269.689 20.4571 269.022 19.6802 267.67 19.6802C266.285 19.6802 265.382 20.6598 265.382 22.1461V27.3145H263.912ZM273.182 16.4119H274.651V18.5316H276.357V19.7393H274.651V24.9583C274.651 25.7606 274.989 26.1237 275.74 26.1237C275.909 26.1237 276.247 26.0984 276.348 26.0815V27.3145C276.171 27.3567 275.766 27.382 275.42 27.382C273.807 27.382 273.182 26.7233 273.182 25.0343V19.7393H271.873V18.5316H273.182V16.4119ZM280.99 27.4665C278.558 27.4665 276.919 25.7183 276.919 22.923C276.919 20.1193 278.558 18.3796 280.99 18.3796C283.414 18.3796 285.052 20.1193 285.052 22.923C285.052 25.7183 283.414 27.4665 280.99 27.4665ZM280.99 26.1744C282.544 26.1744 283.557 24.9921 283.557 22.923C283.557 20.854 282.544 19.6717 280.99 19.6717C279.436 19.6717 278.414 20.854 278.414 22.923C278.414 24.9921 279.436 26.1744 280.99 26.1744ZM46.2591 39.3796C48.497 39.3796 50.0171 41.17 50.0171 43.923C50.0171 46.6761 48.5054 48.4665 46.2928 48.4665C45.0345 48.4665 44.0211 47.85 43.4975 46.8872H43.4638V51.2449H41.9943V39.5316H43.3878V41.018H43.4215C43.962 40.0299 44.9839 39.3796 46.2591 39.3796ZM45.9719 47.1744C47.5343 47.1744 48.5139 45.9161 48.5139 43.923C48.5139 41.9385 47.5343 40.6717 45.9719 40.6717C44.4687 40.6717 43.4553 41.9722 43.4553 43.923C43.4553 45.8823 44.4687 47.1744 45.9719 47.1744ZM51.1791 48.3145V39.5316H52.5641V40.9673H52.5979C52.885 39.9961 53.6957 39.3796 54.726 39.3796C54.9794 39.3796 55.1989 39.4219 55.3172 39.4387V40.866C55.1989 40.8237 54.8865 40.7815 54.5318 40.7815C53.3917 40.7815 52.6486 41.6007 52.6486 42.8421V48.3145H51.1791ZM59.4096 48.4665C56.9775 48.4665 55.3391 46.7183 55.3391 43.923C55.3391 41.1193 56.9775 39.3796 59.4096 39.3796C61.8333 39.3796 63.4717 41.1193 63.4717 43.923C63.4717 46.7183 61.8333 48.4665 59.4096 48.4665ZM59.4096 47.1744C60.9635 47.1744 61.9769 45.9921 61.9769 43.923C61.9769 41.854 60.9635 40.6717 59.4096 40.6717C57.8557 40.6717 56.8339 41.854 56.8339 43.923C56.8339 45.9921 57.8557 47.1744 59.4096 47.1744ZM68.206 47.0899C69.7345 47.0899 70.7563 45.8232 70.7563 43.8893C70.7563 41.9554 69.7345 40.6717 68.206 40.6717C66.6943 40.6717 65.7062 41.9216 65.7062 43.8893C65.7062 45.857 66.6943 47.0899 68.206 47.0899ZM68.2566 51.6249C66.3227 51.6249 64.7942 50.5355 64.5493 49.0407H66.0609C66.3481 49.843 67.2179 50.375 68.3157 50.375C69.8358 50.375 70.7563 49.4968 70.7563 48.1878V46.8028H70.7226C70.1821 47.7571 69.1434 48.382 67.9104 48.382C65.6725 48.382 64.203 46.617 64.203 43.8893C64.203 41.1362 65.6725 39.3796 67.9442 39.3796C69.1856 39.3796 70.2159 39.9877 70.7986 41.0095H70.8239V39.5316H72.2258V48.1371C72.2258 50.2315 70.6803 51.6249 68.2566 51.6249ZM73.8185 48.3145V39.5316H75.2035V40.9673H75.2373C75.5244 39.9961 76.3351 39.3796 77.3654 39.3796C77.6188 39.3796 77.8383 39.4219 77.9566 39.4387V40.866C77.8383 40.8237 77.5259 40.7815 77.1712 40.7815C76.0311 40.7815 75.2879 41.6007 75.2879 42.8421V48.3145H73.8185ZM81.5592 47.2166C82.9442 47.2166 84.0083 46.2454 84.0083 44.9787V44.2608L81.6605 44.4044C80.4782 44.4804 79.8026 45.004 79.8026 45.8316C79.8026 46.6677 80.5036 47.2166 81.5592 47.2166ZM81.2299 48.4665C79.4817 48.4665 78.3079 47.4108 78.3079 45.8316C78.3079 44.3284 79.4648 43.3826 81.4916 43.2643L84.0083 43.1208V42.3861C84.0083 41.3135 83.2989 40.6717 82.0828 40.6717C80.9512 40.6717 80.2418 41.2038 80.056 42.0651H78.6372C78.7386 40.545 80.0391 39.3796 82.1166 39.3796C84.1772 39.3796 85.4777 40.4944 85.4777 42.2425V48.3145H84.0843V46.8028H84.0505C83.5269 47.8078 82.4122 48.4665 81.2299 48.4665ZM87.0198 48.3145V39.5316H88.4047V40.9335H88.4385C88.8523 40.0046 89.7475 39.3796 90.9298 39.3796C92.129 39.3796 93.0157 39.9877 93.3957 41.0517H93.4295C93.9193 40.0046 94.9496 39.3796 96.1826 39.3796C97.9223 39.3796 99.0455 40.5113 99.0455 42.2509V48.3145H97.576V42.5887C97.576 41.3895 96.9089 40.6802 95.7519 40.6802C94.5865 40.6802 93.7673 41.5416 93.7673 42.7323V48.3145H92.2979V42.4283C92.2979 41.3727 91.5885 40.6802 90.4991 40.6802C89.3337 40.6802 88.4892 41.5922 88.4892 42.8083V48.3145H87.0198ZM103.493 47.2166C104.878 47.2166 105.942 46.2454 105.942 44.9787V44.2608L103.594 44.4044C102.412 44.4804 101.736 45.004 101.736 45.8316C101.736 46.6677 102.437 47.2166 103.493 47.2166ZM103.163 48.4665C101.415 48.4665 100.241 47.4108 100.241 45.8316C100.241 44.3284 101.398 43.3826 103.425 43.2643L105.942 43.1208V42.3861C105.942 41.3135 105.232 40.6717 104.016 40.6717C102.885 40.6717 102.175 41.2038 101.989 42.0651H100.571C100.672 40.545 101.972 39.3796 104.05 39.3796C106.111 39.3796 107.411 40.4944 107.411 42.2425V48.3145H106.018V46.8028H105.984C105.46 47.8078 104.346 48.4665 103.163 48.4665ZM112.28 48.4665C110.043 48.4665 108.522 46.6761 108.522 43.923C108.522 41.17 110.034 39.3796 112.247 39.3796C113.505 39.3796 114.518 39.9961 115.042 40.9588H115.076V36.1283H116.545V48.3145H115.143V46.8281H115.118C114.552 47.8415 113.547 48.4665 112.28 48.4665ZM112.559 40.6717C111.005 40.6717 110.026 41.9385 110.026 43.923C110.026 45.9161 111.005 47.1744 112.559 47.1744C114.071 47.1744 115.084 45.8907 115.084 43.923C115.084 41.9638 114.071 40.6717 112.559 40.6717ZM121.845 48.4665C119.413 48.4665 117.775 46.7183 117.775 43.923C117.775 41.1193 119.413 39.3796 121.845 39.3796C124.269 39.3796 125.907 41.1193 125.907 43.923C125.907 46.7183 124.269 48.4665 121.845 48.4665ZM121.845 47.1744C123.399 47.1744 124.413 45.9921 124.413 43.923C124.413 41.854 123.399 40.6717 121.845 40.6717C120.291 40.6717 119.27 41.854 119.27 43.923C119.27 45.9921 120.291 47.1744 121.845 47.1744ZM133.189 47.2166C134.574 47.2166 135.638 46.2454 135.638 44.9787V44.2608L133.29 44.4044C132.108 44.4804 131.432 45.004 131.432 45.8316C131.432 46.6677 132.133 47.2166 133.189 47.2166ZM132.859 48.4665C131.111 48.4665 129.937 47.4108 129.937 45.8316C129.937 44.3284 131.094 43.3826 133.121 43.2643L135.638 43.1208V42.3861C135.638 41.3135 134.928 40.6717 133.712 40.6717C132.581 40.6717 131.871 41.2038 131.685 42.0651H130.267C130.368 40.545 131.669 39.3796 133.746 39.3796C135.807 39.3796 137.107 40.4944 137.107 42.2425V48.3145H135.714V46.8028H135.68C135.156 47.8078 134.042 48.4665 132.859 48.4665ZM146.137 39.3796C148.374 39.3796 149.895 41.17 149.895 43.923C149.895 46.6761 148.383 48.4665 146.17 48.4665C144.912 48.4665 143.899 47.85 143.375 46.8872H143.341V51.2449H141.872V39.5316H143.265V41.018H143.299C143.839 40.0299 144.861 39.3796 146.137 39.3796ZM145.849 47.1744C147.412 47.1744 148.391 45.9161 148.391 43.923C148.391 41.9385 147.412 40.6717 145.849 40.6717C144.346 40.6717 143.333 41.9722 143.333 43.923C143.333 45.8823 144.346 47.1744 145.849 47.1744ZM153.953 47.2166C155.338 47.2166 156.402 46.2454 156.402 44.9787V44.2608L154.055 44.4044C152.872 44.4804 152.197 45.004 152.197 45.8316C152.197 46.6677 152.898 47.2166 153.953 47.2166ZM153.624 48.4665C151.876 48.4665 150.702 47.4108 150.702 45.8316C150.702 44.3284 151.859 43.3826 153.886 43.2643L156.402 43.1208V42.3861C156.402 41.3135 155.693 40.6717 154.477 40.6717C153.345 40.6717 152.636 41.2038 152.45 42.0651H151.031C151.133 40.545 152.433 39.3796 154.511 39.3796C156.571 39.3796 157.872 40.4944 157.872 42.2425V48.3145H156.478V46.8028H156.445C155.921 47.8078 154.806 48.4665 153.624 48.4665ZM159.414 48.3145V39.5316H160.799V40.9673H160.833C161.12 39.9961 161.93 39.3796 162.961 39.3796C163.214 39.3796 163.434 39.4219 163.552 39.4387V40.866C163.434 40.8237 163.121 40.7815 162.766 40.7815C161.626 40.7815 160.883 41.6007 160.883 42.8421V48.3145H159.414ZM164.9 37.4119H166.369V39.5316H168.075V40.7393H166.369V45.9583C166.369 46.7606 166.707 47.1237 167.458 47.1237C167.627 47.1237 167.965 47.0984 168.067 47.0815V48.3145C167.889 48.3567 167.484 48.382 167.138 48.382C165.525 48.382 164.9 47.7233 164.9 46.0343V40.7393H163.591V39.5316H164.9V37.4119ZM169.397 48.3145V39.5316H170.867V48.3145H169.397ZM170.132 38.0538C169.634 38.0538 169.22 37.64 169.22 37.1417C169.22 36.635 169.634 36.2296 170.132 36.2296C170.639 36.2296 171.053 36.635 171.053 37.1417C171.053 37.64 170.639 38.0538 170.132 38.0538ZM172.527 48.3145V39.5316H173.912V40.9673H173.946C174.233 39.9961 175.044 39.3796 176.074 39.3796C176.327 39.3796 176.547 39.4219 176.665 39.4387V40.866C176.547 40.8237 176.235 40.7815 175.88 40.7815C174.74 40.7815 173.997 41.6007 173.997 42.8421V48.3145H172.527ZM184.09 48.4665C181.852 48.4665 180.332 46.6761 180.332 43.923C180.332 41.17 181.844 39.3796 184.056 39.3796C185.315 39.3796 186.328 39.9961 186.852 40.9588H186.885V36.1283H188.355V48.3145H186.953V46.8281H186.928C186.362 47.8415 185.357 48.4665 184.09 48.4665ZM184.369 40.6717C182.815 40.6717 181.835 41.9385 181.835 43.923C181.835 45.9161 182.815 47.1744 184.369 47.1744C185.88 47.1744 186.894 45.8907 186.894 43.923C186.894 41.9638 185.88 40.6717 184.369 40.6717ZM193.537 40.6548C192.16 40.6548 191.197 41.7105 191.105 43.1714H195.876C195.842 41.702 194.922 40.6548 193.537 40.6548ZM195.842 45.7978H197.286C197.033 47.3348 195.547 48.4665 193.63 48.4665C191.113 48.4665 189.584 46.7183 189.584 43.9568C189.584 41.2291 191.138 39.3796 193.562 39.3796C195.935 39.3796 197.396 41.1024 197.396 43.7626V44.32H191.096V44.4044C191.096 46.085 192.084 47.1913 193.663 47.1913C194.778 47.1913 195.597 46.6255 195.842 45.7978ZM198.634 48.3145V36.1283H200.104V48.3145H198.634ZM206.532 39.5316V48.7451C206.532 50.527 205.687 51.3378 203.813 51.3378C203.787 51.3378 203.551 51.3378 203.534 51.3293V50.1048C203.551 50.1048 203.753 50.1048 203.762 50.1048C204.716 50.1048 205.062 49.7417 205.062 48.762V39.5316H206.532ZM205.797 38.0538C205.299 38.0538 204.885 37.64 204.885 37.1417C204.885 36.635 205.299 36.2296 205.797 36.2296C206.304 36.2296 206.718 36.635 206.718 37.1417C206.718 37.64 206.304 38.0538 205.797 38.0538ZM215.404 39.5316V48.3145H214.011V46.8872H213.977C213.453 47.9006 212.541 48.4665 211.19 48.4665C209.273 48.4665 208.15 47.225 208.15 45.232V39.5316H209.619V44.9702C209.619 46.3974 210.287 47.1659 211.646 47.1659C213.073 47.1659 213.935 46.1863 213.935 44.6915V39.5316H215.404ZM220.51 40.6548C219.134 40.6548 218.171 41.7105 218.078 43.1714H222.849C222.816 41.702 221.895 40.6548 220.51 40.6548ZM222.816 45.7978H224.26C224.006 47.3348 222.52 48.4665 220.603 48.4665C218.086 48.4665 216.558 46.7183 216.558 43.9568C216.558 41.2291 218.112 39.3796 220.535 39.3796C222.908 39.3796 224.369 41.1024 224.369 43.7626V44.32H218.069V44.4044C218.069 46.085 219.058 47.1913 220.637 47.1913C221.751 47.1913 222.571 46.6255 222.816 45.7978ZM232.735 39.5316L229.509 48.3145H228.006L224.771 39.5316H226.317L228.741 46.7521H228.774L231.207 39.5316H232.735ZM236.836 40.6548C235.459 40.6548 234.497 41.7105 234.404 43.1714H239.175C239.141 41.702 238.221 40.6548 236.836 40.6548ZM239.141 45.7978H240.586C240.332 47.3348 238.846 48.4665 236.929 48.4665C234.412 48.4665 232.884 46.7183 232.884 43.9568C232.884 41.2291 234.438 39.3796 236.861 39.3796C239.234 39.3796 240.695 41.1024 240.695 43.7626V44.32H234.395V44.4044C234.395 46.085 235.383 47.1913 236.963 47.1913C238.077 47.1913 238.897 46.6255 239.141 45.7978ZM241.705 41.9554C241.705 40.4521 243.048 39.3796 244.982 39.3796C246.798 39.3796 248.132 40.4606 248.2 41.9469H246.798C246.696 41.1024 246.012 40.5788 244.931 40.5788C243.859 40.5788 243.149 41.1109 243.149 41.8794C243.149 42.4874 243.614 42.8928 244.61 43.1461L245.97 43.4755C247.744 43.923 248.385 44.5649 248.385 45.857C248.385 47.3855 246.941 48.4665 244.889 48.4665C242.964 48.4665 241.621 47.4193 241.469 45.8654H242.938C243.099 46.7775 243.791 47.2673 244.982 47.2673C246.173 47.2673 246.907 46.7606 246.907 45.9667C246.907 45.3418 246.544 45.004 245.556 44.7422L244.011 44.3453C242.465 43.9484 241.705 43.1546 241.705 41.9554ZM255.709 47.2166C257.094 47.2166 258.158 46.2454 258.158 44.9787V44.2608L255.81 44.4044C254.628 44.4804 253.952 45.004 253.952 45.8316C253.952 46.6677 254.653 47.2166 255.709 47.2166ZM255.38 48.4665C253.631 48.4665 252.458 47.4108 252.458 45.8316C252.458 44.3284 253.615 43.3826 255.641 43.2643L258.158 43.1208V42.3861C258.158 41.3135 257.449 40.6717 256.232 40.6717C255.101 40.6717 254.391 41.2038 254.206 42.0651H252.787C252.888 40.545 254.189 39.3796 256.266 39.3796C258.327 39.3796 259.627 40.4944 259.627 42.2425V48.3145H258.234V46.8028H258.2C257.677 47.8078 256.562 48.4665 255.38 48.4665ZM264.468 48.3145V36.1283H265.937V48.3145H264.468ZM270.494 47.2166C271.879 47.2166 272.943 46.2454 272.943 44.9787V44.2608L270.596 44.4044C269.413 44.4804 268.738 45.004 268.738 45.8316C268.738 46.6677 269.439 47.2166 270.494 47.2166ZM270.165 48.4665C268.417 48.4665 267.243 47.4108 267.243 45.8316C267.243 44.3284 268.4 43.3826 270.427 43.2643L272.943 43.1208V42.3861C272.943 41.3135 272.234 40.6717 271.018 40.6717C269.886 40.6717 269.177 41.2038 268.991 42.0651H267.572C267.674 40.545 268.974 39.3796 271.052 39.3796C273.112 39.3796 274.413 40.4944 274.413 42.2425V48.3145H273.019V46.8028H272.986C272.462 47.8078 271.347 48.4665 270.165 48.4665ZM275.803 41.9554C275.803 40.4521 277.146 39.3796 279.08 39.3796C280.895 39.3796 282.23 40.4606 282.297 41.9469H280.895C280.794 41.1024 280.11 40.5788 279.029 40.5788C277.956 40.5788 277.247 41.1109 277.247 41.8794C277.247 42.4874 277.712 42.8928 278.708 43.1461L280.068 43.4755C281.841 43.923 282.483 44.5649 282.483 45.857C282.483 47.3855 281.039 48.4665 278.987 48.4665C277.061 48.4665 275.718 47.4193 275.566 45.8654H277.036C277.196 46.7775 277.889 47.2673 279.08 47.2673C280.27 47.2673 281.005 46.7606 281.005 45.9667C281.005 45.3418 280.642 45.004 279.654 44.7422L278.108 44.3453C276.563 43.9484 275.803 43.1546 275.803 41.9554ZM290.051 48.3145V37.7413H290.018L286.792 40.0637V38.4591L290.034 36.1283H291.521V48.3145H290.051ZM298.476 48.5171C295.9 48.5171 294.059 47.0561 294.059 45.0209C294.059 43.5008 295.107 42.2509 296.677 41.8878V41.854C295.36 41.4487 294.541 40.4099 294.541 39.1263C294.541 37.2853 296.213 35.9256 298.476 35.9256C300.756 35.9256 302.403 37.2768 302.403 39.1347C302.403 40.4015 301.601 41.4318 300.275 41.854V41.8878C301.854 42.2594 302.901 43.5092 302.901 45.0209C302.901 47.0646 301.06 48.5171 298.476 48.5171ZM298.476 47.1913C300.157 47.1913 301.347 46.237 301.347 44.9111C301.347 43.5684 300.157 42.6225 298.476 42.6225C296.804 42.6225 295.605 43.5768 295.605 44.9111C295.605 46.237 296.804 47.1913 298.476 47.1913ZM298.476 41.2882C299.895 41.2882 300.9 40.4521 300.9 39.2698C300.9 38.0707 299.903 37.2346 298.476 37.2346C297.049 37.2346 296.052 38.0791 296.052 39.2698C296.052 40.4521 297.049 41.2882 298.476 41.2882ZM305.541 46.2877C305.001 46.2877 304.578 45.8654 304.578 45.3249C304.578 44.7844 305.001 44.3622 305.541 44.3622C306.082 44.3622 306.504 44.7844 306.504 45.3249C306.504 45.8654 306.082 46.2877 305.541 46.2877ZM305.541 40.0721C305.001 40.0721 304.578 39.6499 304.578 39.1094C304.578 38.5689 305.001 38.1467 305.541 38.1467C306.082 38.1467 306.504 38.5689 306.504 39.1094C306.504 39.6499 306.082 40.0721 305.541 40.0721ZM312.665 48.5171C309.819 48.5171 308.173 46.0681 308.173 42.2172C308.173 38.4 309.836 35.9256 312.665 35.9256C315.495 35.9256 317.141 38.3831 317.141 42.2087C317.141 46.0596 315.503 48.5171 312.665 48.5171ZM312.665 47.1913C314.566 47.1913 315.613 45.2574 315.613 42.2172C315.613 39.2192 314.549 37.2599 312.665 37.2599C310.782 37.2599 309.701 39.2361 309.701 42.2087C309.701 45.2489 310.757 47.1913 312.665 47.1913ZM322.83 48.5171C319.984 48.5171 318.337 46.0681 318.337 42.2172C318.337 38.4 320.001 35.9256 322.83 35.9256C325.659 35.9256 327.306 38.3831 327.306 42.2087C327.306 46.0596 325.667 48.5171 322.83 48.5171ZM322.83 47.1913C324.73 47.1913 325.777 45.2574 325.777 42.2172C325.777 39.2192 324.713 37.2599 322.83 37.2599C320.947 37.2599 319.866 39.2361 319.866 42.2087C319.866 45.2489 320.921 47.1913 322.83 47.1913ZM45.5159 61.6548C44.1394 61.6548 43.1766 62.7105 43.0837 64.1714H47.8552C47.8214 62.702 46.9009 61.6548 45.5159 61.6548ZM47.8214 66.7978H49.2655C49.0121 68.3348 47.5258 69.4665 45.6088 69.4665C43.0922 69.4665 41.5636 67.7183 41.5636 64.9568C41.5636 62.2291 43.1175 60.3796 45.5412 60.3796C47.9143 60.3796 49.3753 62.1024 49.3753 64.7626V65.32H43.0753V65.4044C43.0753 67.085 44.0634 68.1913 45.6426 68.1913C46.7573 68.1913 47.5765 67.6255 47.8214 66.7978ZM50.5373 69.3145V60.5316H51.9223V61.9335H51.9561C52.4459 60.9877 53.3833 60.3796 54.7429 60.3796C56.6684 60.3796 57.7831 61.621 57.7831 63.6141V69.3145H56.3137V63.8759C56.3137 62.4571 55.6465 61.6802 54.2953 61.6802C52.9103 61.6802 52.0067 62.6598 52.0067 64.1461V69.3145H50.5373ZM63.0292 58.4119H64.4986V60.5316H66.2045V61.7393H64.4986V66.9583C64.4986 67.7606 64.8364 68.1237 65.588 68.1237C65.7569 68.1237 66.0947 68.0984 66.196 68.0815V69.3145C66.0187 69.3567 65.6133 69.382 65.2671 69.382C63.6541 69.382 63.0292 68.7233 63.0292 67.0343V61.7393H61.7202V60.5316H63.0292V58.4119ZM70.8374 69.4665C68.4053 69.4665 66.7669 67.7183 66.7669 64.923C66.7669 62.1193 68.4053 60.3796 70.8374 60.3796C73.2611 60.3796 74.8995 62.1193 74.8995 64.923C74.8995 67.7183 73.2611 69.4665 70.8374 69.4665ZM70.8374 68.1744C72.3913 68.1744 73.4047 66.9921 73.4047 64.923C73.4047 62.854 72.3913 61.6717 70.8374 61.6717C69.2835 61.6717 68.2617 62.854 68.2617 64.923C68.2617 66.9921 69.2835 68.1744 70.8374 68.1744ZM79.3888 69.4665C77.1509 69.4665 75.6308 67.6761 75.6308 64.923C75.6308 62.17 77.1425 60.3796 79.3551 60.3796C80.6134 60.3796 81.6268 60.9961 82.1504 61.9588H82.1841V57.1283H83.6536V69.3145H82.2517V67.8281H82.2264C81.6605 68.8415 80.6556 69.4665 79.3888 69.4665ZM79.6675 61.6717C78.1136 61.6717 77.134 62.9385 77.134 64.923C77.134 66.9161 78.1136 68.1744 79.6675 68.1744C81.1792 68.1744 82.1926 66.8907 82.1926 64.923C82.1926 62.9638 81.1792 61.6717 79.6675 61.6717ZM88.9537 69.4665C86.5215 69.4665 84.8832 67.7183 84.8832 64.923C84.8832 62.1193 86.5215 60.3796 88.9537 60.3796C91.3774 60.3796 93.0157 62.1193 93.0157 64.923C93.0157 67.7183 91.3774 69.4665 88.9537 69.4665ZM88.9537 68.1744C90.5075 68.1744 91.5209 66.9921 91.5209 64.923C91.5209 62.854 90.5075 61.6717 88.9537 61.6717C87.3998 61.6717 86.3779 62.854 86.3779 64.923C86.3779 66.9921 87.3998 68.1744 88.9537 68.1744ZM94.0257 62.9554C94.0257 61.4521 95.3685 60.3796 97.3024 60.3796C99.1181 60.3796 100.452 61.4606 100.52 62.9469H99.1181C99.0167 62.1024 98.3327 61.5788 97.2517 61.5788C96.1792 61.5788 95.4698 62.1109 95.4698 62.8794C95.4698 63.4874 95.9343 63.8928 96.9308 64.1461L98.2905 64.4755C100.064 64.923 100.706 65.5649 100.706 66.857C100.706 68.3855 99.2616 69.4665 97.2095 69.4665C95.284 69.4665 93.9413 68.4193 93.7893 66.8654H95.2587C95.4192 67.7775 96.1117 68.2673 97.3024 68.2673C98.4931 68.2673 99.2279 67.7606 99.2279 66.9667C99.2279 66.3418 98.8647 66.004 97.8767 65.7422L96.3312 65.3453C94.7858 64.9484 94.0257 64.1546 94.0257 62.9554ZM105.133 69.3145V60.5316H106.518V61.9335H106.551C106.965 61.0046 107.86 60.3796 109.043 60.3796C110.242 60.3796 111.129 60.9877 111.509 62.0517H111.542C112.032 61.0046 113.062 60.3796 114.295 60.3796C116.035 60.3796 117.158 61.5113 117.158 63.2509V69.3145H115.689V63.5887C115.689 62.3895 115.022 61.6802 113.865 61.6802C112.699 61.6802 111.88 62.5416 111.88 63.7323V69.3145H110.411V63.4283C110.411 62.3727 109.701 61.6802 108.612 61.6802C107.447 61.6802 106.602 62.5922 106.602 63.8083V69.3145H105.133ZM118.785 69.3145V60.5316H120.254V69.3145H118.785ZM119.52 59.0538C119.021 59.0538 118.607 58.64 118.607 58.1417C118.607 57.635 119.021 57.2296 119.52 57.2296C120.026 57.2296 120.44 57.635 120.44 58.1417C120.44 58.64 120.026 59.0538 119.52 59.0538ZM121.763 62.9554C121.763 61.4521 123.105 60.3796 125.039 60.3796C126.855 60.3796 128.189 61.4606 128.257 62.9469H126.855C126.754 62.1024 126.069 61.5788 124.989 61.5788C123.916 61.5788 123.207 62.1109 123.207 62.8794C123.207 63.4874 123.671 63.8928 124.668 64.1461L126.027 64.4755C127.801 64.923 128.443 65.5649 128.443 66.857C128.443 68.3855 126.998 69.4665 124.946 69.4665C123.021 69.4665 121.678 68.4193 121.526 66.8654H122.996C123.156 67.7775 123.848 68.2673 125.039 68.2673C126.23 68.2673 126.965 67.7606 126.965 66.9667C126.965 66.3418 126.602 66.004 125.613 65.7422L124.068 65.3453C122.523 64.9484 121.763 64.1546 121.763 62.9554ZM140.166 63.4114H138.73C138.519 62.4571 137.776 61.6717 136.484 61.6717C134.964 61.6717 133.933 62.93 133.933 64.923C133.933 66.9667 134.981 68.1744 136.501 68.1744C137.7 68.1744 138.485 67.541 138.739 66.4854H140.183C139.955 68.2335 138.485 69.4665 136.492 69.4665C134.06 69.4665 132.439 67.7521 132.439 64.923C132.439 62.1531 134.052 60.3796 136.475 60.3796C138.671 60.3796 139.98 61.8322 140.166 63.4114ZM144.106 68.2166C145.491 68.2166 146.555 67.2454 146.555 65.9787V65.2608L144.208 65.4044C143.025 65.4804 142.35 66.004 142.35 66.8316C142.35 67.6677 143.051 68.2166 144.106 68.2166ZM143.777 69.4665C142.029 69.4665 140.855 68.4108 140.855 66.8316C140.855 65.3284 142.012 64.3826 144.039 64.2643L146.555 64.1208V63.3861C146.555 62.3135 145.846 61.6717 144.63 61.6717C143.498 61.6717 142.789 62.2038 142.603 63.0651H141.184C141.286 61.545 142.586 60.3796 144.664 60.3796C146.724 60.3796 148.025 61.4944 148.025 63.2425V69.3145H146.631V67.8028H146.598C146.074 68.8078 144.959 69.4665 143.777 69.4665ZM149.643 69.3145V57.1283H151.112V69.3145H149.643ZM156.294 61.6548C154.918 61.6548 153.955 62.7105 153.862 64.1714H158.633C158.6 62.702 157.679 61.6548 156.294 61.6548ZM158.6 66.7978H160.044C159.79 68.3348 158.304 69.4665 156.387 69.4665C153.87 69.4665 152.342 67.7183 152.342 64.9568C152.342 62.2291 153.896 60.3796 156.32 60.3796C158.693 60.3796 160.154 62.1024 160.154 64.7626V65.32H153.854V65.4044C153.854 67.085 154.842 68.1913 156.421 68.1913C157.536 68.1913 158.355 67.6255 158.6 66.7978ZM161.316 69.3145V60.5316H162.701V61.9335H162.734C163.224 60.9877 164.162 60.3796 165.521 60.3796C167.447 60.3796 168.561 61.621 168.561 63.6141V69.3145H167.092V63.8759C167.092 62.4571 166.425 61.6802 165.074 61.6802C163.689 61.6802 162.785 62.6598 162.785 64.1461V69.3145H161.316ZM173.439 69.4665C171.201 69.4665 169.681 67.6761 169.681 64.923C169.681 62.17 171.193 60.3796 173.405 60.3796C174.664 60.3796 175.677 60.9961 176.201 61.9588H176.235V57.1283H177.704V69.3145H176.302V67.8281H176.277C175.711 68.8415 174.706 69.4665 173.439 69.4665ZM173.718 61.6717C172.164 61.6717 171.184 62.9385 171.184 64.923C171.184 66.9161 172.164 68.1744 173.718 68.1744C175.23 68.1744 176.243 66.8907 176.243 64.923C176.243 62.9638 175.23 61.6717 173.718 61.6717ZM182.261 68.2166C183.646 68.2166 184.71 67.2454 184.71 65.9787V65.2608L182.362 65.4044C181.18 65.4804 180.504 66.004 180.504 66.8316C180.504 67.6677 181.205 68.2166 182.261 68.2166ZM181.932 69.4665C180.183 69.4665 179.01 68.4108 179.01 66.8316C179.01 65.3284 180.167 64.3826 182.193 64.2643L184.71 64.1208V63.3861C184.71 62.3135 184.001 61.6717 182.785 61.6717C181.653 61.6717 180.943 62.2038 180.758 63.0651H179.339C179.44 61.545 180.741 60.3796 182.818 60.3796C184.879 60.3796 186.179 61.4944 186.179 63.2425V69.3145H184.786V67.8028H184.752C184.229 68.8078 183.114 69.4665 181.932 69.4665ZM187.721 69.3145V60.5316H189.106V61.9673H189.14C189.427 60.9961 190.238 60.3796 191.268 60.3796C191.522 60.3796 191.741 60.4219 191.86 60.4387V61.866C191.741 61.8237 191.429 61.7815 191.074 61.7815C189.934 61.7815 189.191 62.6007 189.191 63.8421V69.3145H187.721ZM192.81 69.3145V60.5316H194.28V69.3145H192.81ZM193.545 59.0538C193.047 59.0538 192.633 58.64 192.633 58.1417C192.633 57.635 193.047 57.2296 193.545 57.2296C194.052 57.2296 194.466 57.635 194.466 58.1417C194.466 58.64 194.052 59.0538 193.545 59.0538ZM199.58 69.4665C197.148 69.4665 195.509 67.7183 195.509 64.923C195.509 62.1193 197.148 60.3796 199.58 60.3796C202.004 60.3796 203.642 62.1193 203.642 64.923C203.642 67.7183 202.004 69.4665 199.58 69.4665ZM199.58 68.1744C201.134 68.1744 202.147 66.9921 202.147 64.923C202.147 62.854 201.134 61.6717 199.58 61.6717C198.026 61.6717 197.004 62.854 197.004 64.923C197.004 66.9921 198.026 68.1744 199.58 68.1744ZM204.652 62.9554C204.652 61.4521 205.995 60.3796 207.929 60.3796C209.744 60.3796 211.079 61.4606 211.146 62.9469H209.744C209.643 62.1024 208.959 61.5788 207.878 61.5788C206.806 61.5788 206.096 62.1109 206.096 62.8794C206.096 63.4874 206.561 63.8928 207.557 64.1461L208.917 64.4755C210.69 64.923 211.332 65.5649 211.332 66.857C211.332 68.3855 209.888 69.4665 207.836 69.4665C205.91 69.4665 204.568 68.4193 204.416 66.8654H205.885C206.045 67.7775 206.738 68.2673 207.929 68.2673C209.119 68.2673 209.854 67.7606 209.854 66.9667C209.854 66.3418 209.491 66.004 208.503 65.7422L206.958 65.3453C205.412 64.9484 204.652 64.1546 204.652 62.9554ZM213.778 69.3989C213.237 69.3989 212.815 68.9767 212.815 68.4362C212.815 67.8957 213.237 67.4734 213.778 67.4734C214.318 67.4734 214.74 67.8957 214.74 68.4362C214.74 68.9767 214.318 69.3989 213.778 69.3989Z" fill="black"/>
<path d="M293.755 77.6006V70.3315H293.732L291.514 71.9282V70.825L293.744 69.2226H294.766V77.6006H293.755ZM297.913 77.6006L301.704 70.1748V70.1516H297.193V69.2226H302.738V70.1922L299.01 77.6006H297.913ZM305.13 76.2072C304.759 76.2072 304.468 75.9169 304.468 75.5453C304.468 75.1737 304.759 74.8834 305.13 74.8834C305.502 74.8834 305.792 75.1737 305.792 75.5453C305.792 75.9169 305.502 76.2072 305.13 76.2072ZM305.13 71.934C304.759 71.934 304.468 71.6437 304.468 71.2721C304.468 70.9005 304.759 70.6102 305.13 70.6102C305.502 70.6102 305.792 70.9005 305.792 71.2721C305.792 71.6437 305.502 71.934 305.13 71.934ZM311.842 77.6006V75.8588H307.633V74.9124C308.347 73.5887 309.328 72.0617 311.308 69.2226H312.853V74.9415H314.037V75.8588H312.853V77.6006H311.842ZM308.667 74.9182V74.9415H311.842V70.0935H311.825C310.24 72.3578 309.328 73.757 308.667 74.9182ZM318.479 77.7399C316.708 77.7399 315.443 76.7355 315.443 75.3363C315.443 74.2912 316.163 73.4319 317.242 73.1823V73.159C316.337 72.8804 315.774 72.1662 315.774 71.2837C315.774 70.018 316.923 69.0833 318.479 69.0833C320.047 69.0833 321.179 70.0122 321.179 71.2895C321.179 72.1604 320.627 72.8687 319.716 73.159V73.1823C320.802 73.4377 321.521 74.297 321.521 75.3363C321.521 76.7413 320.256 77.7399 318.479 77.7399ZM318.479 76.8284C319.635 76.8284 320.453 76.1723 320.453 75.2608C320.453 74.3376 319.635 73.6874 318.479 73.6874C317.33 73.6874 316.505 74.3435 316.505 75.2608C316.505 76.1723 317.33 76.8284 318.479 76.8284ZM318.479 72.77C319.455 72.77 320.145 72.1953 320.145 71.3824C320.145 70.558 319.46 69.9832 318.479 69.9832C317.498 69.9832 316.813 70.5638 316.813 71.3824C316.813 72.1953 317.498 72.77 318.479 72.77Z" fill="black" fill-opacity="0.25"/>
<path fill-rule="evenodd" clip-rule="evenodd" d="M339.197 69.3946L339.736 69.9208L333.9 77.9245L331.534 75.5878L332.536 74.213L333.9 75.0085L339.197 69.3946ZM334.461 69.2769L335 69.803L329.164 77.8068L325.144 73.8532L326.042 72.9776L329.164 74.8908L334.461 69.2769Z" fill="#3497F9"/>
<path d="M353.93 72.1012C348.544 69.9952 345.318 66.2238 345.318 60.9385V76.4091C349.556 76.2025 352.626 75.4479 354.529 74.145C354.714 74.0186 354.855 73.8379 354.932 73.6279C355.139 73.068 354.853 72.4462 354.293 72.2392L353.93 72.1012Z" fill="#DCF7C5"/>
<path d="M1.06928 168.002C6.45512 165.896 9.68115 162.124 9.68115 156.839V172.309C5.44372 172.103 2.37347 171.348 0.47042 170.045C0.285695 169.919 0.144818 169.738 0.067194 169.528C-0.139808 168.968 0.146286 168.347 0.706233 168.14L1.06928 168.002Z" fill="#FAFAFA"/>
<rect x="9.68115" y="95.9004" width="314.593" height="83.629" rx="8.25162" fill="#FAFAFA"/>
<path d="M30.9066 123.215H29.3865V117.666H22.698V123.215H21.1779V111.029H22.698V116.298H29.3865V111.029H30.9066V123.215ZM36.2404 115.555C34.8639 115.555 33.9012 116.611 33.8083 118.072H38.5797C38.5459 116.602 37.6254 115.555 36.2404 115.555ZM38.5459 120.698H39.99C39.7367 122.235 38.2503 123.367 36.3333 123.367C33.8167 123.367 32.2882 121.619 32.2882 118.857C32.2882 116.129 33.842 114.28 36.2658 114.28C38.6388 114.28 40.0998 116.003 40.0998 118.663V119.22H33.7998V119.305C33.7998 120.985 34.7879 122.092 36.3671 122.092C37.4818 122.092 38.301 121.526 38.5459 120.698ZM51.7809 117.312H50.3453C50.1342 116.357 49.391 115.572 48.0989 115.572C46.5788 115.572 45.5485 116.83 45.5485 118.823C45.5485 120.867 46.5957 122.075 48.1158 122.075C49.315 122.075 50.1004 121.441 50.3537 120.386H51.7978C51.5698 122.134 50.1004 123.367 48.1074 123.367C45.6752 123.367 44.0538 121.653 44.0538 118.823C44.0538 116.053 45.6668 114.28 48.0905 114.28C50.2862 114.28 51.5952 115.733 51.7809 117.312ZM55.7214 122.117C57.1064 122.117 58.1704 121.146 58.1704 119.879V119.161L55.8227 119.305C54.6404 119.381 53.9648 119.904 53.9648 120.732C53.9648 121.568 54.6658 122.117 55.7214 122.117ZM55.392 123.367C53.6439 123.367 52.4701 122.311 52.4701 120.732C52.4701 119.229 53.627 118.283 55.6538 118.165L58.1704 118.021V117.286C58.1704 116.214 57.4611 115.572 56.245 115.572C55.1133 115.572 54.404 116.104 54.2182 116.966H52.7994C52.9008 115.445 54.2013 114.28 56.2788 114.28C58.3393 114.28 59.6399 115.395 59.6399 117.143V123.215H58.2464V121.703H58.2127C57.6891 122.708 56.5743 123.367 55.392 123.367ZM61.1819 123.215V114.432H62.5669V115.834H62.6007C63.0905 114.888 64.0279 114.28 65.3875 114.28C67.313 114.28 68.4277 115.521 68.4277 117.514V123.215H66.9583V117.776C66.9583 116.357 66.2912 115.581 64.94 115.581C63.555 115.581 62.6514 116.56 62.6514 118.046V123.215H61.1819ZM77.2747 117.312H75.8391C75.628 116.357 74.8848 115.572 73.5927 115.572C72.0726 115.572 71.0423 116.83 71.0423 118.823C71.0423 120.867 72.0895 122.075 73.6096 122.075C74.8088 122.075 75.5942 121.441 75.8475 120.386H77.2916C77.0636 122.134 75.5942 123.367 73.6012 123.367C71.169 123.367 69.5476 121.653 69.5476 118.823C69.5476 116.053 71.1606 114.28 73.5843 114.28C75.78 114.28 77.089 115.733 77.2747 117.312ZM81.8401 115.555C80.4636 115.555 79.5008 116.611 79.408 118.072H84.1794C84.1456 116.602 83.2251 115.555 81.8401 115.555ZM84.1456 120.698H85.5897C85.3364 122.235 83.85 123.367 81.933 123.367C79.4164 123.367 77.8879 121.619 77.8879 118.857C77.8879 116.129 79.4417 114.28 81.8655 114.28C84.2385 114.28 85.6995 116.003 85.6995 118.663V119.22H79.3995V119.305C79.3995 120.985 80.3876 122.092 81.9668 122.092C83.0815 122.092 83.9007 121.526 84.1456 120.698ZM86.9375 123.215V111.029H88.407V123.215H86.9375ZM92.9639 122.117C94.3489 122.117 95.4129 121.146 95.4129 119.879V119.161L93.0652 119.305C91.8829 119.381 91.2073 119.904 91.2073 120.732C91.2073 121.568 91.9083 122.117 92.9639 122.117ZM92.6345 123.367C90.8864 123.367 89.7126 122.311 89.7126 120.732C89.7126 119.229 90.8695 118.283 92.8963 118.165L95.4129 118.021V117.286C95.4129 116.214 94.7036 115.572 93.4875 115.572C92.3558 115.572 91.6465 116.104 91.4607 116.966H90.0419C90.1433 115.445 91.4438 114.28 93.5213 114.28C95.5818 114.28 96.8824 115.395 96.8824 117.143V123.215H95.4889V121.703H95.4552C94.9316 122.708 93.8168 123.367 92.6345 123.367ZM101.752 123.367C99.5138 123.367 97.9937 121.577 97.9937 118.823C97.9937 116.07 99.5054 114.28 101.718 114.28C102.976 114.28 103.99 114.897 104.513 115.859H104.547V111.029H106.016V123.215H104.615V121.729H104.589C104.023 122.742 103.019 123.367 101.752 123.367ZM102.03 115.572C100.477 115.572 99.4969 116.839 99.4969 118.823C99.4969 120.816 100.477 122.075 102.03 122.075C103.542 122.075 104.556 120.791 104.556 118.823C104.556 116.864 103.542 115.572 102.03 115.572ZM111.317 123.367C108.884 123.367 107.246 121.619 107.246 118.823C107.246 116.02 108.884 114.28 111.317 114.28C113.74 114.28 115.379 116.02 115.379 118.823C115.379 121.619 113.74 123.367 111.317 123.367ZM111.317 122.075C112.87 122.075 113.884 120.892 113.884 118.823C113.884 116.754 112.87 115.572 111.317 115.572C109.763 115.572 108.741 116.754 108.741 118.823C108.741 120.892 109.763 122.075 111.317 122.075ZM120.236 112.312H121.706V114.432H123.412V115.64H121.706V120.859C121.706 121.661 122.043 122.024 122.795 122.024C122.964 122.024 123.302 121.999 123.403 121.982V123.215C123.226 123.257 122.82 123.282 122.474 123.282C120.861 123.282 120.236 122.624 120.236 120.935V115.64H118.927V114.432H120.236V112.312ZM128.044 123.367C125.612 123.367 123.974 121.619 123.974 118.823C123.974 116.02 125.612 114.28 128.044 114.28C130.468 114.28 132.107 116.02 132.107 118.823C132.107 121.619 130.468 123.367 128.044 123.367ZM128.044 122.075C129.598 122.075 130.612 120.892 130.612 118.823C130.612 116.754 129.598 115.572 128.044 115.572C126.491 115.572 125.469 116.754 125.469 118.823C125.469 120.892 126.491 122.075 128.044 122.075ZM136.596 123.367C134.358 123.367 132.838 121.577 132.838 118.823C132.838 116.07 134.35 114.28 136.562 114.28C137.82 114.28 138.834 114.897 139.357 115.859H139.391V111.029H140.861V123.215H139.459V121.729H139.433C138.868 122.742 137.863 123.367 136.596 123.367ZM136.875 115.572C135.321 115.572 134.341 116.839 134.341 118.823C134.341 120.816 135.321 122.075 136.875 122.075C138.386 122.075 139.4 120.791 139.4 118.823C139.4 116.864 138.386 115.572 136.875 115.572ZM146.161 123.367C143.729 123.367 142.09 121.619 142.09 118.823C142.09 116.02 143.729 114.28 146.161 114.28C148.584 114.28 150.223 116.02 150.223 118.823C150.223 121.619 148.584 123.367 146.161 123.367ZM146.161 122.075C147.715 122.075 148.728 120.892 148.728 118.823C148.728 116.754 147.715 115.572 146.161 115.572C144.607 115.572 143.585 116.754 143.585 118.823C143.585 120.892 144.607 122.075 146.161 122.075ZM151.233 116.856C151.233 115.353 152.576 114.28 154.509 114.28C156.325 114.28 157.659 115.361 157.727 116.847H156.325C156.224 116.003 155.54 115.479 154.459 115.479C153.386 115.479 152.677 116.011 152.677 116.78C152.677 117.388 153.141 117.793 154.138 118.046L155.498 118.376C157.271 118.823 157.913 119.465 157.913 120.757C157.913 122.286 156.469 123.367 154.417 123.367C152.491 123.367 151.148 122.32 150.996 120.766H152.466C152.626 121.678 153.319 122.168 154.509 122.168C155.7 122.168 156.435 121.661 156.435 120.867C156.435 120.242 156.072 119.904 155.084 119.643L153.538 119.246C151.993 118.849 151.233 118.055 151.233 116.856ZM162.813 112.312H164.282V114.432H165.988V115.64H164.282V120.859C164.282 121.661 164.62 122.024 165.371 122.024C165.54 122.024 165.878 121.999 165.979 121.982V123.215C165.802 123.257 165.397 123.282 165.051 123.282C163.438 123.282 162.813 122.624 162.813 120.935V115.64H161.504V114.432H162.813V112.312ZM174.446 114.432V123.215H173.053V121.788H173.019C172.496 122.801 171.584 123.367 170.232 123.367C168.315 123.367 167.192 122.125 167.192 120.132V114.432H168.662V119.871C168.662 121.298 169.329 122.066 170.688 122.066C172.116 122.066 172.977 121.087 172.977 119.592V114.432H174.446ZM175.879 116.856C175.879 115.353 177.221 114.28 179.155 114.28C180.971 114.28 182.305 115.361 182.373 116.847H180.971C180.87 116.003 180.186 115.479 179.105 115.479C178.032 115.479 177.323 116.011 177.323 116.78C177.323 117.388 177.787 117.793 178.784 118.046L180.143 118.376C181.917 118.823 182.559 119.465 182.559 120.757C182.559 122.286 181.115 123.367 179.062 123.367C177.137 123.367 175.794 122.32 175.642 120.766H177.112C177.272 121.678 177.965 122.168 179.155 122.168C180.346 122.168 181.081 121.661 181.081 120.867C181.081 120.242 180.718 119.904 179.73 119.643L178.184 119.246C176.639 118.849 175.879 118.055 175.879 116.856ZM190.507 115.555C189.131 115.555 188.168 116.611 188.075 118.072H192.846C192.813 116.602 191.892 115.555 190.507 115.555ZM192.813 120.698H194.257C194.003 122.235 192.517 123.367 190.6 123.367C188.083 123.367 186.555 121.619 186.555 118.857C186.555 116.129 188.109 114.28 190.532 114.28C192.906 114.28 194.367 116.003 194.367 118.663V119.22H188.067V119.305C188.067 120.985 189.055 122.092 190.634 122.092C191.749 122.092 192.568 121.526 192.813 120.698ZM202.732 114.432L199.506 123.215H198.003L194.769 114.432H196.314L198.738 121.653H198.771L201.204 114.432H202.732ZM206.833 115.555C205.457 115.555 204.494 116.611 204.401 118.072H209.172C209.139 116.602 208.218 115.555 206.833 115.555ZM209.139 120.698H210.583C210.329 122.235 208.843 123.367 206.926 123.367C204.409 123.367 202.881 121.619 202.881 118.857C202.881 116.129 204.435 114.28 206.858 114.28C209.231 114.28 210.692 116.003 210.692 118.663V119.22H204.392V119.305C204.392 120.985 205.381 122.092 206.96 122.092C208.074 122.092 208.894 121.526 209.139 120.698ZM211.854 123.215V114.432H213.239V115.834H213.273C213.763 114.888 214.7 114.28 216.06 114.28C217.986 114.28 219.1 115.521 219.1 117.514V123.215H217.631V117.776C217.631 116.357 216.964 115.581 215.612 115.581C214.228 115.581 213.324 116.56 213.324 118.046V123.215H211.854ZM221.124 112.312H222.593V114.432H224.299V115.64H222.593V120.859C222.593 121.661 222.931 122.024 223.683 122.024C223.851 122.024 224.189 121.999 224.291 121.982V123.215C224.113 123.257 223.708 123.282 223.362 123.282C221.749 123.282 221.124 122.624 221.124 120.935V115.64H219.815V114.432H221.124V112.312ZM228.932 123.367C226.5 123.367 224.861 121.619 224.861 118.823C224.861 116.02 226.5 114.28 228.932 114.28C231.356 114.28 232.994 116.02 232.994 118.823C232.994 121.619 231.356 123.367 228.932 123.367ZM228.932 122.075C230.486 122.075 231.499 120.892 231.499 118.823C231.499 116.754 230.486 115.572 228.932 115.572C227.378 115.572 226.356 116.754 226.356 118.823C226.356 120.892 227.378 122.075 228.932 122.075ZM234.004 116.856C234.004 115.353 235.347 114.28 237.281 114.28C239.096 114.28 240.431 115.361 240.498 116.847H239.096C238.995 116.003 238.311 115.479 237.23 115.479C236.158 115.479 235.448 116.011 235.448 116.78C235.448 117.388 235.913 117.793 236.909 118.046L238.269 118.376C240.042 118.823 240.684 119.465 240.684 120.757C240.684 122.286 239.24 123.367 237.188 123.367C235.262 123.367 233.92 122.32 233.768 120.766H235.237C235.397 121.678 236.09 122.168 237.281 122.168C238.471 122.168 239.206 121.661 239.206 120.867C239.206 120.242 238.843 119.904 237.855 119.643L236.31 119.246C234.764 118.849 234.004 118.055 234.004 116.856ZM25.2146 135.28C27.4526 135.28 28.9727 137.07 28.9727 139.823C28.9727 142.577 27.461 144.367 25.2484 144.367C23.9901 144.367 22.9767 143.75 22.4531 142.788H22.4193V147.145H20.9499V135.432H22.3433V136.918H22.3771C22.9176 135.93 23.9394 135.28 25.2146 135.28ZM24.9275 143.075C26.4898 143.075 27.4694 141.816 27.4694 139.823C27.4694 137.839 26.4898 136.572 24.9275 136.572C23.4243 136.572 22.4109 137.873 22.4109 139.823C22.4109 141.783 23.4243 143.075 24.9275 143.075ZM30.1347 144.215V135.432H31.5197V136.868H31.5534C31.8406 135.897 32.6513 135.28 33.6816 135.28C33.9349 135.28 34.1545 135.322 34.2727 135.339V136.766C34.1545 136.724 33.842 136.682 33.4874 136.682C32.3473 136.682 31.6041 137.501 31.6041 138.742V144.215H30.1347ZM38.3652 144.367C35.933 144.367 34.2947 142.619 34.2947 139.823C34.2947 137.02 35.933 135.28 38.3652 135.28C40.7889 135.28 42.4272 137.02 42.4272 139.823C42.4272 142.619 40.7889 144.367 38.3652 144.367ZM38.3652 143.075C39.9191 143.075 40.9325 141.892 40.9325 139.823C40.9325 137.754 39.9191 136.572 38.3652 136.572C36.8113 136.572 35.7895 137.754 35.7895 139.823C35.7895 141.892 36.8113 143.075 38.3652 143.075ZM47.1615 142.99C48.6901 142.99 49.7119 141.724 49.7119 139.79C49.7119 137.856 48.6901 136.572 47.1615 136.572C45.6499 136.572 44.6618 137.822 44.6618 139.79C44.6618 141.757 45.6499 142.99 47.1615 142.99ZM47.2122 147.525C45.2783 147.525 43.7497 146.436 43.5048 144.941H45.0165C45.3036 145.743 46.1735 146.275 47.2713 146.275C48.7914 146.275 49.7119 145.397 49.7119 144.088V142.703H49.6781C49.1377 143.657 48.0989 144.282 46.8659 144.282C44.628 144.282 43.1586 142.517 43.1586 139.79C43.1586 137.037 44.628 135.28 46.8997 135.28C48.1411 135.28 49.1714 135.888 49.7541 136.91H49.7795V135.432H51.1813V144.037C51.1813 146.132 49.6359 147.525 47.2122 147.525ZM52.7741 144.215V135.432H54.1591V136.868H54.1928C54.48 135.897 55.2907 135.28 56.321 135.28C56.5743 135.28 56.7939 135.322 56.9121 135.339V136.766C56.7939 136.724 56.4814 136.682 56.1267 136.682C54.9867 136.682 54.2435 137.501 54.2435 138.742V144.215H52.7741ZM60.5148 143.117C61.8998 143.117 62.9638 142.146 62.9638 140.879V140.161L60.6161 140.305C59.4338 140.381 58.7582 140.904 58.7582 141.732C58.7582 142.568 59.4591 143.117 60.5148 143.117ZM60.1854 144.367C58.4373 144.367 57.2634 143.311 57.2634 141.732C57.2634 140.229 58.4204 139.283 60.4472 139.165L62.9638 139.021V138.286C62.9638 137.214 62.2544 136.572 61.0384 136.572C59.9067 136.572 59.1974 137.104 59.0116 137.966H57.5928C57.6941 136.445 58.9947 135.28 61.0721 135.28C63.1327 135.28 64.4333 136.395 64.4333 138.143V144.215H63.0398V142.703H63.0061C62.4825 143.708 61.3677 144.367 60.1854 144.367ZM65.9753 144.215V135.432H67.3603V136.834H67.3941C67.8079 135.905 68.7031 135.28 69.8854 135.28C71.0846 135.28 71.9713 135.888 72.3513 136.952H72.3851C72.8749 135.905 73.9052 135.28 75.1382 135.28C76.8778 135.28 78.001 136.412 78.001 138.151V144.215H76.5316V138.489C76.5316 137.29 75.8644 136.581 74.7075 136.581C73.5421 136.581 72.7229 137.442 72.7229 138.633V144.215H71.2535V138.329C71.2535 137.273 70.5441 136.581 69.4547 136.581C68.2893 136.581 67.4448 137.493 67.4448 138.709V144.215H65.9753ZM82.4482 143.117C83.8331 143.117 84.8972 142.146 84.8972 140.879V140.161L82.5495 140.305C81.3672 140.381 80.6916 140.904 80.6916 141.732C80.6916 142.568 81.3925 143.117 82.4482 143.117ZM82.1188 144.367C80.3707 144.367 79.1968 143.311 79.1968 141.732C79.1968 140.229 80.3538 139.283 82.3806 139.165L84.8972 139.021V138.286C84.8972 137.214 84.1878 136.572 82.9717 136.572C81.8401 136.572 81.1307 137.104 80.9449 137.966H79.5262C79.6275 136.445 80.9281 135.28 83.0055 135.28C85.0661 135.28 86.3666 136.395 86.3666 138.143V144.215H84.9732V142.703H84.9394C84.4158 143.708 83.3011 144.367 82.1188 144.367ZM91.236 144.367C88.9981 144.367 87.478 142.577 87.478 139.823C87.478 137.07 88.9897 135.28 91.2023 135.28C92.4606 135.28 93.474 135.897 93.9976 136.859H94.0313V132.029H95.5008V144.215H94.0989V142.729H94.0736C93.5078 143.742 92.5028 144.367 91.236 144.367ZM91.5147 136.572C89.9608 136.572 88.9812 137.839 88.9812 139.823C88.9812 141.816 89.9608 143.075 91.5147 143.075C93.0264 143.075 94.0398 141.791 94.0398 139.823C94.0398 137.864 93.0264 136.572 91.5147 136.572ZM100.801 144.367C98.3687 144.367 96.7304 142.619 96.7304 139.823C96.7304 137.02 98.3687 135.28 100.801 135.28C103.225 135.28 104.863 137.02 104.863 139.823C104.863 142.619 103.225 144.367 100.801 144.367ZM100.801 143.075C102.355 143.075 103.368 141.892 103.368 139.823C103.368 137.754 102.355 136.572 100.801 136.572C99.247 136.572 98.2251 137.754 98.2251 139.823C98.2251 141.892 99.247 143.075 100.801 143.075ZM105.873 137.856C105.873 136.353 107.216 135.28 109.15 135.28C110.965 135.28 112.3 136.361 112.367 137.847H110.965C110.864 137.003 110.18 136.479 109.099 136.479C108.026 136.479 107.317 137.011 107.317 137.78C107.317 138.388 107.782 138.793 108.778 139.046L110.138 139.376C111.911 139.823 112.553 140.465 112.553 141.757C112.553 143.286 111.109 144.367 109.057 144.367C107.131 144.367 105.788 143.32 105.636 141.766H107.106C107.266 142.678 107.959 143.168 109.15 143.168C110.34 143.168 111.075 142.661 111.075 141.867C111.075 141.242 110.712 140.904 109.724 140.643L108.178 140.246C106.633 139.849 105.873 139.055 105.873 137.856ZM120.307 144.367C118.069 144.367 116.549 142.577 116.549 139.823C116.549 137.07 118.061 135.28 120.273 135.28C121.532 135.28 122.545 135.897 123.069 136.859H123.102V132.029H124.572V144.215H123.17V142.729H123.145C122.579 143.742 121.574 144.367 120.307 144.367ZM120.586 136.572C119.032 136.572 118.052 137.839 118.052 139.823C118.052 141.816 119.032 143.075 120.586 143.075C122.097 143.075 123.111 141.791 123.111 139.823C123.111 137.864 122.097 136.572 120.586 136.572ZM129.754 136.555C128.377 136.555 127.414 137.611 127.322 139.072H132.093C132.059 137.602 131.139 136.555 129.754 136.555ZM132.059 141.698H133.503C133.25 143.235 131.764 144.367 129.847 144.367C127.33 144.367 125.801 142.619 125.801 139.857C125.801 137.129 127.355 135.28 129.779 135.28C132.152 135.28 133.613 137.003 133.613 139.663V140.22H127.313V140.305C127.313 141.985 128.301 143.092 129.88 143.092C130.995 143.092 131.814 142.526 132.059 141.698ZM134.623 137.856C134.623 136.353 135.966 135.28 137.9 135.28C139.715 135.28 141.05 136.361 141.117 137.847H139.715C139.614 137.003 138.93 136.479 137.849 136.479C136.777 136.479 136.067 137.011 136.067 137.78C136.067 138.388 136.532 138.793 137.528 139.046L138.888 139.376C140.661 139.823 141.303 140.465 141.303 141.757C141.303 143.286 139.859 144.367 137.807 144.367C135.881 144.367 134.539 143.32 134.387 141.766H135.856C136.017 142.678 136.709 143.168 137.9 143.168C139.091 143.168 139.825 142.661 139.825 141.867C139.825 141.242 139.462 140.904 138.474 140.643L136.929 140.246C135.383 139.849 134.623 139.055 134.623 137.856ZM146.772 135.28C149.01 135.28 150.53 137.07 150.53 139.823C150.53 142.577 149.018 144.367 146.806 144.367C145.548 144.367 144.534 143.75 144.011 142.788H143.977V147.145H142.507V135.432H143.901V136.918H143.935C144.475 135.93 145.497 135.28 146.772 135.28ZM146.485 143.075C148.047 143.075 149.027 141.816 149.027 139.823C149.027 137.839 148.047 136.572 146.485 136.572C144.982 136.572 143.968 137.873 143.968 139.823C143.968 141.783 144.982 143.075 146.485 143.075ZM158.904 135.432V144.215H157.511V142.788H157.477C156.953 143.801 156.041 144.367 154.69 144.367C152.773 144.367 151.65 143.125 151.65 141.132V135.432H153.119V140.871C153.119 142.298 153.787 143.066 155.146 143.066C156.573 143.066 157.435 142.087 157.435 140.592V135.432H158.904ZM164.01 136.555C162.634 136.555 161.671 137.611 161.578 139.072H166.349C166.316 137.602 165.395 136.555 164.01 136.555ZM166.316 141.698H167.76C167.506 143.235 166.02 144.367 164.103 144.367C161.586 144.367 160.058 142.619 160.058 139.857C160.058 137.129 161.612 135.28 164.035 135.28C166.408 135.28 167.869 137.003 167.869 139.663V140.22H161.569V140.305C161.569 141.985 162.558 143.092 164.137 143.092C165.251 143.092 166.071 142.526 166.316 141.698ZM164.703 134.165H163.419L165.192 131.632H166.78L164.703 134.165ZM168.879 137.856C168.879 136.353 170.222 135.28 172.156 135.28C173.972 135.28 175.306 136.361 175.374 137.847H173.972C173.87 137.003 173.186 136.479 172.105 136.479C171.033 136.479 170.324 137.011 170.324 137.78C170.324 138.388 170.788 138.793 171.785 139.046L173.144 139.376C174.918 139.823 175.559 140.465 175.559 141.757C175.559 143.286 174.115 144.367 172.063 144.367C170.138 144.367 168.795 143.32 168.643 141.766H170.112C170.273 142.678 170.965 143.168 172.156 143.168C173.347 143.168 174.082 142.661 174.082 141.867C174.082 141.242 173.718 140.904 172.73 140.643L171.185 140.246C169.64 139.849 168.879 139.055 168.879 137.856ZM183.314 144.367C181.076 144.367 179.556 142.577 179.556 139.823C179.556 137.07 181.067 135.28 183.28 135.28C184.538 135.28 185.552 135.897 186.075 136.859H186.109V132.029H187.578V144.215H186.177V142.729H186.151C185.585 143.742 184.58 144.367 183.314 144.367ZM183.592 136.572C182.038 136.572 181.059 137.839 181.059 139.823C181.059 141.816 182.038 143.075 183.592 143.075C185.104 143.075 186.117 141.791 186.117 139.823C186.117 137.864 185.104 136.572 183.592 136.572ZM192.76 136.555C191.384 136.555 190.421 137.611 190.328 139.072H195.1C195.066 137.602 194.145 136.555 192.76 136.555ZM195.066 141.698H196.51C196.257 143.235 194.77 144.367 192.853 144.367C190.337 144.367 188.808 142.619 188.808 139.857C188.808 137.129 190.362 135.28 192.786 135.28C195.159 135.28 196.62 137.003 196.62 139.663V140.22H190.32V140.305C190.32 141.985 191.308 143.092 192.887 143.092C194.002 143.092 194.821 142.526 195.066 141.698ZM197.858 144.215V132.029H199.327V144.215H197.858ZM205.755 135.432V144.646C205.755 146.427 204.911 147.238 203.036 147.238C203.011 147.238 202.774 147.238 202.757 147.23V146.005C202.774 146.005 202.977 146.005 202.986 146.005C203.94 146.005 204.286 145.642 204.286 144.662V135.432H205.755ZM205.021 133.954C204.523 133.954 204.109 133.54 204.109 133.042C204.109 132.535 204.523 132.13 205.021 132.13C205.527 132.13 205.941 132.535 205.941 133.042C205.941 133.54 205.527 133.954 205.021 133.954ZM214.628 135.432V144.215H213.234V142.788H213.201C212.677 143.801 211.765 144.367 210.414 144.367C208.497 144.367 207.374 143.125 207.374 141.132V135.432H208.843V140.871C208.843 142.298 209.51 143.066 210.87 143.066C212.297 143.066 213.158 142.087 213.158 140.592V135.432H214.628ZM219.734 136.555C218.357 136.555 217.394 137.611 217.301 139.072H222.073C222.039 137.602 221.119 136.555 219.734 136.555ZM222.039 141.698H223.483C223.23 143.235 221.744 144.367 219.827 144.367C217.31 144.367 215.781 142.619 215.781 139.857C215.781 137.129 217.335 135.28 219.759 135.28C222.132 135.28 223.593 137.003 223.593 139.663V140.22H217.293V140.305C217.293 141.985 218.281 143.092 219.86 143.092C220.975 143.092 221.794 142.526 222.039 141.698ZM231.959 135.432L228.733 144.215H227.229L223.995 135.432H225.54L227.964 142.653H227.998L230.43 135.432H231.959ZM236.06 136.555C234.683 136.555 233.72 137.611 233.627 139.072H238.399C238.365 137.602 237.445 136.555 236.06 136.555ZM238.365 141.698H239.809C239.556 143.235 238.069 144.367 236.152 144.367C233.636 144.367 232.107 142.619 232.107 139.857C232.107 137.129 233.661 135.28 236.085 135.28C238.458 135.28 239.919 137.003 239.919 139.663V140.22H233.619V140.305C233.619 141.985 234.607 143.092 236.186 143.092C237.301 143.092 238.12 142.526 238.365 141.698ZM240.929 137.856C240.929 136.353 242.272 135.28 244.206 135.28C246.021 135.28 247.356 136.361 247.423 137.847H246.021C245.92 137.003 245.236 136.479 244.155 136.479C243.082 136.479 242.373 137.011 242.373 137.78C242.373 138.388 242.838 138.793 243.834 139.046L245.194 139.376C246.967 139.823 247.609 140.465 247.609 141.757C247.609 143.286 246.165 144.367 244.113 144.367C242.187 144.367 240.845 143.32 240.692 141.766H242.162C242.322 142.678 243.015 143.168 244.206 143.168C245.396 143.168 246.131 142.661 246.131 141.867C246.131 141.242 245.768 140.904 244.78 140.643L243.234 140.246C241.689 139.849 240.929 139.055 240.929 137.856ZM254.932 143.117C256.317 143.117 257.382 142.146 257.382 140.879V140.161L255.034 140.305C253.852 140.381 253.176 140.904 253.176 141.732C253.176 142.568 253.877 143.117 254.932 143.117ZM254.603 144.367C252.855 144.367 251.681 143.311 251.681 141.732C251.681 140.229 252.838 139.283 254.865 139.165L257.382 139.021V138.286C257.382 137.214 256.672 136.572 255.456 136.572C254.324 136.572 253.615 137.104 253.429 137.966H252.01C252.112 136.445 253.412 135.28 255.49 135.28C257.55 135.28 258.851 136.395 258.851 138.143V144.215H257.458V142.703H257.424C256.9 143.708 255.785 144.367 254.603 144.367ZM263.692 144.215V132.029H265.161V144.215H263.692ZM269.718 143.117C271.103 143.117 272.167 142.146 272.167 140.879V140.161L269.819 140.305C268.637 140.381 267.961 140.904 267.961 141.732C267.961 142.568 268.662 143.117 269.718 143.117ZM269.389 144.367C267.641 144.367 266.467 143.311 266.467 141.732C266.467 140.229 267.624 139.283 269.65 139.165L272.167 139.021V138.286C272.167 137.214 271.458 136.572 270.242 136.572C269.11 136.572 268.401 137.104 268.215 137.966H266.796C266.897 136.445 268.198 135.28 270.275 135.28C272.336 135.28 273.636 136.395 273.636 138.143V144.215H272.243V142.703H272.209C271.686 143.708 270.571 144.367 269.389 144.367ZM275.027 137.856C275.027 136.353 276.369 135.28 278.303 135.28C280.119 135.28 281.453 136.361 281.521 137.847H280.119C280.018 137.003 279.333 136.479 278.253 136.479C277.18 136.479 276.471 137.011 276.471 137.78C276.471 138.388 276.935 138.793 277.932 139.046L279.291 139.376C281.065 139.823 281.707 140.465 281.707 141.757C281.707 143.286 280.262 144.367 278.21 144.367C276.285 144.367 274.942 143.32 274.79 141.766H276.26C276.42 142.678 277.112 143.168 278.303 143.168C279.494 143.168 280.229 142.661 280.229 141.867C280.229 141.242 279.866 140.904 278.877 140.643L277.332 140.246C275.787 139.849 275.027 139.055 275.027 137.856ZM25.392 165.426C23.5678 165.426 22.1153 164.438 21.3637 162.681C20.9583 161.744 20.7641 160.646 20.7641 159.329C20.7641 155.224 22.5122 152.818 25.4933 152.818C27.5623 152.818 29.15 154.059 29.5385 155.976H27.993C27.6637 154.87 26.6841 154.16 25.4764 154.16C23.4412 154.16 22.2842 155.968 22.2335 159.21H22.2589C22.8078 158.02 24.1506 157.234 25.6622 157.234C27.9846 157.234 29.7074 158.949 29.7074 161.263C29.7074 163.669 27.8917 165.426 25.392 165.426ZM25.3751 164.075C26.929 164.075 28.1619 162.85 28.1619 161.313C28.1619 159.717 27.0134 158.569 25.4004 158.569C23.7874 158.569 22.5967 159.717 22.5967 161.271C22.5967 162.833 23.8128 164.075 25.3751 164.075ZM32.2206 163.188C31.6801 163.188 31.2579 162.766 31.2579 162.225C31.2579 161.685 31.6801 161.263 32.2206 161.263C32.7611 161.263 33.1833 161.685 33.1833 162.225C33.1833 162.766 32.7611 163.188 32.2206 163.188ZM32.2206 156.973C31.6801 156.973 31.2579 156.55 31.2579 156.01C31.2579 155.469 31.6801 155.047 32.2206 155.047C32.7611 155.047 33.1833 155.469 33.1833 156.01C33.1833 156.55 32.7611 156.973 32.2206 156.973ZM39.3448 165.418C36.4988 165.418 34.8521 162.968 34.8521 159.118C34.8521 155.3 36.5157 152.826 39.3448 152.826C42.1739 152.826 43.8207 155.284 43.8207 159.109C43.8207 162.96 42.1823 165.418 39.3448 165.418ZM39.3448 164.092C41.2449 164.092 42.2921 162.158 42.2921 159.118C42.2921 156.12 41.2281 154.16 39.3448 154.16C37.4616 154.16 36.3806 156.136 36.3806 159.109C36.3806 162.149 37.4362 164.092 39.3448 164.092ZM49.5092 165.418C46.6633 165.418 45.0165 162.968 45.0165 159.118C45.0165 155.3 46.6802 152.826 49.5092 152.826C52.3383 152.826 53.9851 155.284 53.9851 159.109C53.9851 162.96 52.3468 165.418 49.5092 165.418ZM49.5092 164.092C51.4094 164.092 52.4565 162.158 52.4565 159.118C52.4565 156.12 51.3925 154.16 49.5092 154.16C47.626 154.16 46.545 156.136 46.545 159.109C46.545 162.149 47.6007 164.092 49.5092 164.092ZM62.8625 156.28C65.1004 156.28 66.6205 158.07 66.6205 160.823C66.6205 163.577 65.1089 165.367 62.8963 165.367C61.638 165.367 60.6246 164.75 60.101 163.788H60.0672V168.145H58.5978V156.432H59.9912V157.918H60.025C60.5654 156.93 61.5873 156.28 62.8625 156.28ZM62.5754 164.075C64.1377 164.075 65.1173 162.816 65.1173 160.823C65.1173 158.839 64.1377 157.572 62.5754 157.572C61.0721 157.572 60.0587 158.873 60.0587 160.823C60.0587 162.783 61.0721 164.075 62.5754 164.075ZM68.5173 165.299C67.9768 165.299 67.5545 164.877 67.5545 164.337C67.5545 163.796 67.9768 163.374 68.5173 163.374C69.0578 163.374 69.48 163.796 69.48 164.337C69.48 164.877 69.0578 165.299 68.5173 165.299ZM71.343 165.215V156.432H72.728V157.834H72.7617C73.1755 156.905 74.0707 156.28 75.253 156.28C76.4522 156.28 77.3389 156.888 77.719 157.952H77.7527C78.2425 156.905 79.2728 156.28 80.5058 156.28C82.2455 156.28 83.3687 157.412 83.3687 159.151V165.215H81.8992V159.489C81.8992 158.29 81.2321 157.581 80.0751 157.581C78.9097 157.581 78.0905 158.442 78.0905 159.633V165.215H76.6211V159.329C76.6211 158.273 75.9117 157.581 74.8223 157.581C73.6569 157.581 72.8124 158.493 72.8124 159.709V165.215H71.343ZM86.1606 165.299C85.6201 165.299 85.1979 164.877 85.1979 164.337C85.1979 163.796 85.6201 163.374 86.1606 163.374C86.7011 163.374 87.1233 163.796 87.1233 164.337C87.1233 164.877 86.7011 165.299 86.1606 165.299ZM94.886 157.555C93.5094 157.555 92.5467 158.611 92.4538 160.072H97.2252C97.1915 158.602 96.271 157.555 94.886 157.555ZM97.1915 162.698H98.6356C98.3822 164.235 96.8959 165.367 94.9789 165.367C92.4623 165.367 90.9337 163.619 90.9337 160.857C90.9337 158.129 92.4876 156.28 94.9113 156.28C97.2844 156.28 98.7453 158.003 98.7453 160.663V161.22H92.4454V161.305C92.4454 162.985 93.4334 164.092 95.0126 164.092C96.1274 164.092 96.9466 163.526 97.1915 162.698ZM99.9074 165.215V156.432H101.292V157.834H101.326C101.816 156.888 102.753 156.28 104.113 156.28C106.038 156.28 107.153 157.521 107.153 159.514V165.215H105.684V159.776C105.684 158.357 105.017 157.581 103.665 157.581C102.28 157.581 101.377 158.56 101.377 160.046V165.215H99.9074ZM112.399 154.312H113.869V156.432H115.575V157.64H113.869V162.859C113.869 163.661 114.206 164.024 114.958 164.024C115.127 164.024 115.465 163.999 115.566 163.982V165.215C115.389 165.257 114.983 165.282 114.637 165.282C113.024 165.282 112.399 164.624 112.399 162.935V157.64H111.09V156.432H112.399V154.312ZM120.207 165.367C117.775 165.367 116.137 163.619 116.137 160.823C116.137 158.02 117.775 156.28 120.207 156.28C122.631 156.28 124.27 158.02 124.27 160.823C124.27 163.619 122.631 165.367 120.207 165.367ZM120.207 164.075C121.761 164.075 122.775 162.892 122.775 160.823C122.775 158.754 121.761 157.572 120.207 157.572C118.654 157.572 117.632 158.754 117.632 160.823C117.632 162.892 118.654 164.075 120.207 164.075ZM128.759 165.367C126.521 165.367 125.001 163.577 125.001 160.823C125.001 158.07 126.513 156.28 128.725 156.28C129.983 156.28 130.997 156.897 131.52 157.859H131.554V153.029H133.024V165.215H131.622V163.729H131.596C131.031 164.742 130.026 165.367 128.759 165.367ZM129.038 157.572C127.484 157.572 126.504 158.839 126.504 160.823C126.504 162.816 127.484 164.075 129.038 164.075C130.549 164.075 131.563 162.791 131.563 160.823C131.563 158.864 130.549 157.572 129.038 157.572ZM138.324 165.367C135.892 165.367 134.253 163.619 134.253 160.823C134.253 158.02 135.892 156.28 138.324 156.28C140.747 156.28 142.386 158.02 142.386 160.823C142.386 163.619 140.747 165.367 138.324 165.367ZM138.324 164.075C139.878 164.075 140.891 162.892 140.891 160.823C140.891 158.754 139.878 157.572 138.324 157.572C136.77 157.572 135.748 158.754 135.748 160.823C135.748 162.892 136.77 164.075 138.324 164.075ZM143.396 158.856C143.396 157.353 144.739 156.28 146.672 156.28C148.488 156.28 149.822 157.361 149.89 158.847H148.488C148.387 158.003 147.703 157.479 146.622 157.479C145.549 157.479 144.84 158.011 144.84 158.78C144.84 159.388 145.304 159.793 146.301 160.046L147.661 160.376C149.434 160.823 150.076 161.465 150.076 162.757C150.076 164.286 148.632 165.367 146.58 165.367C144.654 165.367 143.311 164.32 143.159 162.766H144.629C144.789 163.678 145.482 164.168 146.672 164.168C147.863 164.168 148.598 163.661 148.598 162.867C148.598 162.242 148.235 161.904 147.247 161.643L145.701 161.246C144.156 160.849 143.396 160.055 143.396 158.856ZM154.976 154.312H156.445V156.432H158.151V157.64H156.445V162.859C156.445 163.661 156.783 164.024 157.534 164.024C157.703 164.024 158.041 163.999 158.143 163.982V165.215C157.965 165.257 157.56 165.282 157.214 165.282C155.601 165.282 154.976 164.624 154.976 162.935V157.64H153.667V156.432H154.976V154.312ZM166.609 156.432V165.215H165.216V163.788H165.182C164.659 164.801 163.747 165.367 162.395 165.367C160.478 165.367 159.355 164.125 159.355 162.132V156.432H160.825V161.871C160.825 163.298 161.492 164.066 162.851 164.066C164.279 164.066 165.14 163.087 165.14 161.592V156.432H166.609ZM168.042 158.856C168.042 157.353 169.384 156.28 171.318 156.28C173.134 156.28 174.468 157.361 174.536 158.847H173.134C173.033 158.003 172.349 157.479 171.268 157.479C170.195 157.479 169.486 158.011 169.486 158.78C169.486 159.388 169.95 159.793 170.947 160.046L172.306 160.376C174.08 160.823 174.722 161.465 174.722 162.757C174.722 164.286 173.278 165.367 171.226 165.367C169.3 165.367 167.957 164.32 167.805 162.766H169.275C169.435 163.678 170.128 164.168 171.318 164.168C172.509 164.168 173.244 163.661 173.244 162.867C173.244 162.242 172.881 161.904 171.893 161.643L170.347 161.246C168.802 160.849 168.042 160.055 168.042 158.856ZM186.445 159.312H185.009C184.798 158.357 184.055 157.572 182.763 157.572C181.243 157.572 180.213 158.83 180.213 160.823C180.213 162.867 181.26 164.075 182.78 164.075C183.979 164.075 184.765 163.441 185.018 162.386H186.462C186.234 164.134 184.765 165.367 182.772 165.367C180.339 165.367 178.718 163.653 178.718 160.823C178.718 158.053 180.331 156.28 182.755 156.28C184.95 156.28 186.259 157.733 186.445 159.312ZM190.386 164.117C191.771 164.117 192.835 163.146 192.835 161.879V161.161L190.487 161.305C189.305 161.381 188.629 161.904 188.629 162.732C188.629 163.568 189.33 164.117 190.386 164.117ZM190.056 165.367C188.308 165.367 187.134 164.311 187.134 162.732C187.134 161.229 188.291 160.283 190.318 160.165L192.835 160.021V159.286C192.835 158.214 192.125 157.572 190.909 157.572C189.778 157.572 189.068 158.104 188.882 158.966H187.464C187.565 157.445 188.865 156.28 190.943 156.28C193.004 156.28 194.304 157.395 194.304 159.143V165.215H192.911V163.703H192.877C192.353 164.708 191.238 165.367 190.056 165.367ZM195.922 165.215V153.029H197.392V165.215H195.922ZM202.573 157.555C201.197 157.555 200.234 158.611 200.141 160.072H204.913C204.879 158.602 203.958 157.555 202.573 157.555ZM204.879 162.698H206.323C206.07 164.235 204.583 165.367 202.666 165.367C200.15 165.367 198.621 163.619 198.621 160.857C198.621 158.129 200.175 156.28 202.599 156.28C204.972 156.28 206.433 158.003 206.433 160.663V161.22H200.133V161.305C200.133 162.985 201.121 164.092 202.7 164.092C203.815 164.092 204.634 163.526 204.879 162.698ZM207.595 165.215V156.432H208.98V157.834H209.014C209.503 156.888 210.441 156.28 211.8 156.28C213.726 156.28 214.841 157.521 214.841 159.514V165.215H213.371V159.776C213.371 158.357 212.704 157.581 211.353 157.581C209.968 157.581 209.064 158.56 209.064 160.046V165.215H207.595ZM219.718 165.367C217.481 165.367 215.96 163.577 215.96 160.823C215.96 158.07 217.472 156.28 219.685 156.28C220.943 156.28 221.956 156.897 222.48 157.859H222.514V153.029H223.983V165.215H222.581V163.729H222.556C221.99 164.742 220.985 165.367 219.718 165.367ZM219.997 157.572C218.443 157.572 217.464 158.839 217.464 160.823C217.464 162.816 218.443 164.075 219.997 164.075C221.509 164.075 222.522 162.791 222.522 160.823C222.522 158.864 221.509 157.572 219.997 157.572ZM228.54 164.117C229.925 164.117 230.989 163.146 230.989 161.879V161.161L228.641 161.305C227.459 161.381 226.784 161.904 226.784 162.732C226.784 163.568 227.484 164.117 228.54 164.117ZM228.211 165.367C226.463 165.367 225.289 164.311 225.289 162.732C225.289 161.229 226.446 160.283 228.473 160.165L230.989 160.021V159.286C230.989 158.214 230.28 157.572 229.064 157.572C227.932 157.572 227.223 158.104 227.037 158.966H225.618C225.719 157.445 227.02 156.28 229.097 156.28C231.158 156.28 232.459 157.395 232.459 159.143V165.215H231.065V163.703H231.031C230.508 164.708 229.393 165.367 228.211 165.367ZM234.001 165.215V156.432H235.386V157.868H235.419C235.707 156.897 236.517 156.28 237.548 156.28C237.801 156.28 238.02 156.322 238.139 156.339V157.766C238.02 157.724 237.708 157.682 237.353 157.682C236.213 157.682 235.47 158.501 235.47 159.742V165.215H234.001ZM239.09 165.215V156.432H240.559V165.215H239.09ZM239.824 154.954C239.326 154.954 238.912 154.54 238.912 154.042C238.912 153.535 239.326 153.13 239.824 153.13C240.331 153.13 240.745 153.535 240.745 154.042C240.745 154.54 240.331 154.954 239.824 154.954ZM245.859 165.367C243.427 165.367 241.789 163.619 241.789 160.823C241.789 158.02 243.427 156.28 245.859 156.28C248.283 156.28 249.921 158.02 249.921 160.823C249.921 163.619 248.283 165.367 245.859 165.367ZM245.859 164.075C247.413 164.075 248.426 162.892 248.426 160.823C248.426 158.754 247.413 157.572 245.859 157.572C244.305 157.572 243.283 158.754 243.283 160.823C243.283 162.892 244.305 164.075 245.859 164.075ZM250.931 158.856C250.931 157.353 252.274 156.28 254.208 156.28C256.024 156.28 257.358 157.361 257.425 158.847H256.024C255.922 158.003 255.238 157.479 254.157 157.479C253.085 157.479 252.375 158.011 252.375 158.78C252.375 159.388 252.84 159.793 253.836 160.046L255.196 160.376C256.969 160.823 257.611 161.465 257.611 162.757C257.611 164.286 256.167 165.367 254.115 165.367C252.19 165.367 250.847 164.32 250.695 162.766H252.164C252.325 163.678 253.017 164.168 254.208 164.168C255.399 164.168 256.133 163.661 256.133 162.867C256.133 162.242 255.77 161.904 254.782 161.643L253.237 161.246C251.691 160.849 250.931 160.055 250.931 158.856ZM260.057 165.299C259.516 165.299 259.094 164.877 259.094 164.337C259.094 163.796 259.516 163.374 260.057 163.374C260.597 163.374 261.02 163.796 261.02 164.337C261.02 164.877 260.597 165.299 260.057 165.299Z" fill="black"/>
<path d="M290.394 173.13V165.861H290.371L288.153 167.457V166.354L290.383 164.752H291.405V173.13H290.394ZM294.552 173.13L298.343 165.704V165.681H293.832V164.752H299.377V165.721L295.649 173.13H294.552ZM301.769 171.736C301.398 171.736 301.108 171.446 301.108 171.075C301.108 170.703 301.398 170.413 301.769 170.413C302.141 170.413 302.431 170.703 302.431 171.075C302.431 171.446 302.141 171.736 301.769 171.736ZM301.769 167.463C301.398 167.463 301.108 167.173 301.108 166.801C301.108 166.43 301.398 166.14 301.769 166.14C302.141 166.14 302.431 166.43 302.431 166.801C302.431 167.173 302.141 167.463 301.769 167.463ZM308.482 173.13V171.388H304.272V170.442C304.986 169.118 305.968 167.591 307.947 164.752H309.492V170.471H310.676V171.388H309.492V173.13H308.482ZM305.306 170.448V170.471H308.482V165.623H308.464C306.879 167.887 305.968 169.286 305.306 170.448ZM315.118 173.269C313.347 173.269 312.082 172.265 312.082 170.866C312.082 169.82 312.802 168.961 313.882 168.712V168.688C312.976 168.41 312.413 167.696 312.413 166.813C312.413 165.547 313.562 164.613 315.118 164.613C316.686 164.613 317.818 165.542 317.818 166.819C317.818 167.69 317.267 168.398 316.355 168.688V168.712C317.441 168.967 318.161 169.826 318.161 170.866C318.161 172.271 316.895 173.269 315.118 173.269ZM315.118 172.358C316.274 172.358 317.092 171.702 317.092 170.79C317.092 169.867 316.274 169.217 315.118 169.217C313.969 169.217 313.144 169.873 313.144 170.79C313.144 171.702 313.969 172.358 315.118 172.358ZM315.118 168.299C316.094 168.299 316.785 167.725 316.785 166.912C316.785 166.087 316.1 165.512 315.118 165.512C314.137 165.512 313.452 166.093 313.452 166.912C313.452 167.725 314.137 168.299 315.118 168.299Z" fill="black" fill-opacity="0.25"/>
</svg>
