<svg width="355" height="138" viewBox="0 0 355 138" fill="none" xmlns="http://www.w3.org/2000/svg">
<rect x="30.7256" width="314.593" height="62.629" rx="8.25162" fill="#DCF7C5"/>
<path d="M54.2311 27.3145H52.8124V17.9236H52.7533L48.8686 27.23H47.5849L43.7002 17.9236H43.6411V27.3145H42.2223V15.1283H43.9873L48.193 25.2961H48.2605L52.4661 15.1283H54.2311V27.3145ZM59.565 19.6548C58.1885 19.6548 57.2258 20.7105 57.1329 22.1714H61.9043C61.8705 20.702 60.95 19.6548 59.565 19.6548ZM61.8705 24.7978H63.3146C63.0613 26.3348 61.5749 27.4665 59.6579 27.4665C57.1413 27.4665 55.6128 25.7183 55.6128 22.9568C55.6128 20.2291 57.1666 18.3796 59.5904 18.3796C61.9634 18.3796 63.4244 20.1024 63.4244 22.7626V23.32H57.1244V23.4044C57.1244 25.085 58.1125 26.1913 59.6917 26.1913C60.8064 26.1913 61.6256 25.6255 61.8705 24.7978ZM64.5864 27.3145V18.5316H65.9714V19.9335H66.0052C66.419 19.0046 67.3142 18.3796 68.4965 18.3796C69.6957 18.3796 70.5824 18.9877 70.9624 20.0517H70.9962C71.486 19.0046 72.5163 18.3796 73.7493 18.3796C75.4889 18.3796 76.6121 19.5113 76.6121 21.2509V27.3145H75.1427V21.5887C75.1427 20.3895 74.4755 19.6802 73.3186 19.6802C72.1532 19.6802 71.334 20.5416 71.334 21.7323V27.3145H69.8646V21.4283C69.8646 20.3727 69.1552 19.6802 68.0658 19.6802C66.9004 19.6802 66.0559 20.5922 66.0559 21.8083V27.3145H64.5864ZM81.8024 27.4665C79.3703 27.4665 77.7319 25.7183 77.7319 22.923C77.7319 20.1193 79.3703 18.3796 81.8024 18.3796C84.2261 18.3796 85.8645 20.1193 85.8645 22.923C85.8645 25.7183 84.2261 27.4665 81.8024 27.4665ZM81.8024 26.1744C83.3563 26.1744 84.3697 24.9921 84.3697 22.923C84.3697 20.854 83.3563 19.6717 81.8024 19.6717C80.2485 19.6717 79.2267 20.854 79.2267 22.923C79.2267 24.9921 80.2485 26.1744 81.8024 26.1744ZM87.0265 27.3145V18.5316H88.4115V19.9673H88.4453C88.7324 18.9961 89.5431 18.3796 90.5734 18.3796C90.8268 18.3796 91.0463 18.4219 91.1646 18.4387V19.866C91.0463 19.8237 90.7339 19.7815 90.3792 19.7815C89.2391 19.7815 88.4959 20.6007 88.4959 21.8421V27.3145H87.0265ZM94.7672 26.2166C96.1522 26.2166 97.2163 25.2454 97.2163 23.9787V23.2608L94.8685 23.4044C93.6862 23.4804 93.0106 24.004 93.0106 24.8316C93.0106 25.6677 93.7116 26.2166 94.7672 26.2166ZM94.4379 27.4665C92.6897 27.4665 91.5159 26.4108 91.5159 24.8316C91.5159 23.3284 92.6728 22.3826 94.6996 22.2643L97.2163 22.1208V21.3861C97.2163 20.3135 96.5069 19.6717 95.2908 19.6717C94.1592 19.6717 93.4498 20.2038 93.264 21.0651H91.8452C91.9466 19.545 93.2471 18.3796 95.3246 18.3796C97.3852 18.3796 98.6857 19.4944 98.6857 21.2425V27.3145H97.2923V25.8028H97.2585C96.7349 26.8078 95.6202 27.4665 94.4379 27.4665ZM103.749 19.6548C102.373 19.6548 101.41 20.7105 101.317 22.1714H106.089C106.055 20.702 105.134 19.6548 103.749 19.6548ZM106.055 24.7978H107.499C107.246 26.3348 105.759 27.4665 103.842 27.4665C101.326 27.4665 99.7971 25.7183 99.7971 22.9568C99.7971 20.2291 101.351 18.3796 103.775 18.3796C106.148 18.3796 107.609 20.1024 107.609 22.7626V23.32H101.309V23.4044C101.309 25.085 102.297 26.1913 103.876 26.1913C104.991 26.1913 105.81 25.6255 106.055 24.7978ZM109.776 29.7382H108.551L109.37 25.4397H110.933L109.776 29.7382ZM118.113 26.2166C119.498 26.2166 120.562 25.2454 120.562 23.9787V23.2608L118.214 23.4044C117.032 23.4804 116.356 24.004 116.356 24.8316C116.356 25.6677 117.057 26.2166 118.113 26.2166ZM117.783 27.4665C116.035 27.4665 114.861 26.4108 114.861 24.8316C114.861 23.3284 116.018 22.3826 118.045 22.2643L120.562 22.1208V21.3861C120.562 20.3135 119.852 19.6717 118.636 19.6717C117.505 19.6717 116.795 20.2038 116.609 21.0651H115.191C115.292 19.545 116.592 18.3796 118.67 18.3796C120.731 18.3796 122.031 19.4944 122.031 21.2425V27.3145H120.638V25.8028H120.604C120.08 26.8078 118.966 27.4665 117.783 27.4665ZM123.573 27.3145V18.5316H124.958V19.9335H124.992C125.482 18.9877 126.419 18.3796 127.779 18.3796C129.704 18.3796 130.819 19.621 130.819 21.6141V27.3145H129.35V21.8759C129.35 20.4571 128.682 19.6802 127.331 19.6802C125.946 19.6802 125.043 20.6598 125.043 22.1461V27.3145H123.573ZM128.336 17.1973C127.221 17.1973 126.799 15.9137 126.132 15.9137C125.744 15.9137 125.499 16.3275 125.532 17.1129H124.536C124.536 15.7279 125.178 14.9594 126.14 14.9594C127.331 14.9594 127.711 16.243 128.345 16.243C128.699 16.243 128.927 15.8461 128.927 15.0354H129.924C129.924 16.3866 129.257 17.1973 128.336 17.1973ZM135.266 26.2166C136.651 26.2166 137.715 25.2454 137.715 23.9787V23.2608L135.367 23.4044C134.185 23.4804 133.51 24.004 133.51 24.8316C133.51 25.6677 134.21 26.2166 135.266 26.2166ZM134.937 27.4665C133.189 27.4665 132.015 26.4108 132.015 24.8316C132.015 23.3284 133.172 22.3826 135.199 22.2643L137.715 22.1208V21.3861C137.715 20.3135 137.006 19.6717 135.79 19.6717C134.658 19.6717 133.949 20.2038 133.763 21.0651H132.344C132.445 19.545 133.746 18.3796 135.823 18.3796C137.884 18.3796 139.185 19.4944 139.185 21.2425V27.3145H137.791V25.8028H137.757C137.234 26.8078 136.119 27.4665 134.937 27.4665ZM144.054 27.4665C141.816 27.4665 140.296 25.6761 140.296 22.923C140.296 20.17 141.808 18.3796 144.02 18.3796C145.279 18.3796 146.292 18.9961 146.816 19.9588H146.849V15.1283H148.319V27.3145H146.917V25.8281H146.892C146.326 26.8415 145.321 27.4665 144.054 27.4665ZM144.333 19.6717C142.779 19.6717 141.799 20.9385 141.799 22.923C141.799 24.9161 142.779 26.1744 144.333 26.1744C145.844 26.1744 146.858 24.8907 146.858 22.923C146.858 20.9638 145.844 19.6717 144.333 19.6717ZM153.501 19.6548C152.124 19.6548 151.161 20.7105 151.068 22.1714H155.84C155.806 20.702 154.886 19.6548 153.501 19.6548ZM155.806 24.7978H157.25C156.997 26.3348 155.51 27.4665 153.593 27.4665C151.077 27.4665 149.548 25.7183 149.548 22.9568C149.548 20.2291 151.102 18.3796 153.526 18.3796C155.899 18.3796 157.36 20.1024 157.36 22.7626V23.32H151.06V23.4044C151.06 25.085 152.048 26.1913 153.627 26.1913C154.742 26.1913 155.561 25.6255 155.806 24.7978ZM161.39 23.9618H162.918C163.062 25.2792 164.312 26.149 166.052 26.149C167.698 26.149 168.898 25.2792 168.898 24.08C168.898 23.0497 168.18 22.4163 166.541 21.9941L164.979 21.5887C162.733 21.0145 161.736 20.0264 161.736 18.3712C161.736 16.3444 163.51 14.9256 166.043 14.9256C168.467 14.9256 170.223 16.3613 170.291 18.405H168.771C168.636 17.096 167.58 16.2937 165.992 16.2937C164.413 16.2937 163.315 17.1129 163.315 18.3036C163.315 19.2241 163.991 19.7731 165.646 20.2038L166.921 20.5416C169.446 21.1749 170.468 22.1461 170.468 23.8942C170.468 26.1237 168.712 27.5171 165.908 27.5171C163.324 27.5171 161.533 26.1153 161.39 23.9618ZM172.162 16.4119H173.632V18.5316H175.338V19.7393H173.632V24.9583C173.632 25.7606 173.97 26.1237 174.721 26.1237C174.89 26.1237 175.228 26.0984 175.329 26.0815V27.3145C175.152 27.3567 174.747 27.382 174.4 27.382C172.787 27.382 172.162 26.7233 172.162 25.0343V19.7393H170.853V18.5316H172.162V16.4119ZM176.584 27.3145V18.5316H177.969V19.9673H178.003C178.29 18.9961 179.101 18.3796 180.131 18.3796C180.384 18.3796 180.604 18.4219 180.722 18.4387V19.866C180.604 19.8237 180.292 19.7815 179.937 19.7815C178.797 19.7815 178.054 20.6007 178.054 21.8421V27.3145H176.584ZM184.325 26.2166C185.71 26.2166 186.774 25.2454 186.774 23.9787V23.2608L184.426 23.4044C183.244 23.4804 182.568 24.004 182.568 24.8316C182.568 25.6677 183.269 26.2166 184.325 26.2166ZM183.996 27.4665C182.247 27.4665 181.074 26.4108 181.074 24.8316C181.074 23.3284 182.231 22.3826 184.257 22.2643L186.774 22.1208V21.3861C186.774 20.3135 186.065 19.6717 184.848 19.6717C183.717 19.6717 183.007 20.2038 182.822 21.0651H181.403C181.504 19.545 182.805 18.3796 184.882 18.3796C186.943 18.3796 188.243 19.4944 188.243 21.2425V27.3145H186.85V25.8028H186.816C186.293 26.8078 185.178 27.4665 183.996 27.4665ZM189.785 27.3145V18.5316H191.17V19.9335H191.204C191.694 18.9877 192.631 18.3796 193.991 18.3796C195.916 18.3796 197.031 19.621 197.031 21.6141V27.3145H195.562V21.8759C195.562 20.4571 194.895 19.6802 193.543 19.6802C192.158 19.6802 191.255 20.6598 191.255 22.1461V27.3145H189.785ZM202.154 26.0899C203.683 26.0899 204.704 24.8232 204.704 22.8893C204.704 20.9554 203.683 19.6717 202.154 19.6717C200.642 19.6717 199.654 20.9216 199.654 22.8893C199.654 24.857 200.642 26.0899 202.154 26.0899ZM202.205 30.6249C200.271 30.6249 198.742 29.5355 198.497 28.0407H200.009C200.296 28.843 201.166 29.375 202.264 29.375C203.784 29.375 204.704 28.4968 204.704 27.1878V25.8028H204.671C204.13 26.7571 203.091 27.382 201.858 27.382C199.62 27.382 198.151 25.617 198.151 22.8893C198.151 20.1362 199.62 18.3796 201.892 18.3796C203.134 18.3796 204.164 18.9877 204.747 20.0095H204.772V18.5316H206.174V27.1371C206.174 29.2315 204.628 30.6249 202.205 30.6249ZM211.288 19.6548C209.912 19.6548 208.949 20.7105 208.856 22.1714H213.627C213.594 20.702 212.673 19.6548 211.288 19.6548ZM213.594 24.7978H215.038C214.784 26.3348 213.298 27.4665 211.381 27.4665C208.864 27.4665 207.336 25.7183 207.336 22.9568C207.336 20.2291 208.89 18.3796 211.313 18.3796C213.686 18.3796 215.147 20.1024 215.147 22.7626V23.32H208.848V23.4044C208.848 25.085 209.836 26.1913 211.415 26.1913C212.53 26.1913 213.349 25.6255 213.594 24.7978ZM216.31 27.3145V18.5316H217.694V19.9673H217.728C218.015 18.9961 218.826 18.3796 219.856 18.3796C220.11 18.3796 220.329 18.4219 220.448 18.4387V19.866C220.329 19.8237 220.017 19.7815 219.662 19.7815C218.522 19.7815 217.779 20.6007 217.779 21.8421V27.3145H216.31ZM229.376 27.3145H227.856V16.4964H224.013V15.1283H233.218V16.4964H229.376V27.3145ZM234.346 27.3145V15.1283H235.816V19.9335H235.85C236.339 18.9539 237.302 18.3796 238.636 18.3796C240.562 18.3796 241.727 19.6802 241.727 21.6394V27.3145H240.258V21.9096C240.258 20.5162 239.557 19.6802 238.18 19.6802C236.719 19.6802 235.816 20.6767 235.816 22.1968V27.3145H234.346ZM243.345 27.3145V18.5316H244.815V27.3145H243.345ZM244.08 17.0538C243.582 17.0538 243.168 16.64 243.168 16.1417C243.168 15.635 243.582 15.2296 244.08 15.2296C244.587 15.2296 245.001 15.635 245.001 16.1417C245.001 16.64 244.587 17.0538 244.08 17.0538ZM246.475 27.3145V18.5316H247.86V19.9335H247.894C248.384 18.9877 249.321 18.3796 250.681 18.3796C252.606 18.3796 253.721 19.621 253.721 21.6141V27.3145H252.251V21.8759C252.251 20.4571 251.584 19.6802 250.233 19.6802C248.848 19.6802 247.945 20.6598 247.945 22.1461V27.3145H246.475ZM258.844 26.0899C260.372 26.0899 261.394 24.8232 261.394 22.8893C261.394 20.9554 260.372 19.6717 258.844 19.6717C257.332 19.6717 256.344 20.9216 256.344 22.8893C256.344 24.857 257.332 26.0899 258.844 26.0899ZM258.894 30.6249C256.96 30.6249 255.432 29.5355 255.187 28.0407H256.699C256.986 28.843 257.856 29.375 258.953 29.375C260.474 29.375 261.394 28.4968 261.394 27.1878V25.8028H261.36C260.82 26.7571 259.781 27.382 258.548 27.382C256.31 27.382 254.841 25.617 254.841 22.8893C254.841 20.1362 256.31 18.3796 258.582 18.3796C259.823 18.3796 260.854 18.9877 261.436 20.0095H261.462V18.5316H262.863V27.1371C262.863 29.2315 261.318 30.6249 258.894 30.6249ZM264.304 20.9554C264.304 19.4521 265.647 18.3796 267.581 18.3796C269.397 18.3796 270.731 19.4606 270.798 20.9469H269.397C269.295 20.1024 268.611 19.5788 267.53 19.5788C266.458 19.5788 265.748 20.1109 265.748 20.8794C265.748 21.4874 266.213 21.8928 267.209 22.1461L268.569 22.4755C270.342 22.923 270.984 23.5649 270.984 24.857C270.984 26.3855 269.54 27.4665 267.488 27.4665C265.563 27.4665 264.22 26.4193 264.068 24.8654H265.537C265.698 25.7775 266.39 26.2673 267.581 26.2673C268.772 26.2673 269.506 25.7606 269.506 24.9667C269.506 24.3418 269.143 24.004 268.155 23.7422L266.61 23.3453C265.064 22.9484 264.304 22.1546 264.304 20.9554ZM278.308 26.2166C279.693 26.2166 280.757 25.2454 280.757 23.9787V23.2608L278.409 23.4044C277.227 23.4804 276.551 24.004 276.551 24.8316C276.551 25.6677 277.252 26.2166 278.308 26.2166ZM277.978 27.4665C276.23 27.4665 275.056 26.4108 275.056 24.8316C275.056 23.3284 276.213 22.3826 278.24 22.2643L280.757 22.1208V21.3861C280.757 20.3135 280.047 19.6717 278.831 19.6717C277.7 19.6717 276.99 20.2038 276.805 21.0651H275.386C275.487 19.545 276.788 18.3796 278.865 18.3796C280.926 18.3796 282.226 19.4944 282.226 21.2425V27.3145H280.833V25.8028H280.799C280.275 26.8078 279.161 27.4665 277.978 27.4665ZM287.067 27.3145V15.1283H288.536V27.3145H287.067ZM290.273 27.3145V18.5316H291.742V27.3145H290.273ZM291.007 17.0538C290.509 17.0538 290.095 16.64 290.095 16.1417C290.095 15.635 290.509 15.2296 291.007 15.2296C291.514 15.2296 291.928 15.635 291.928 16.1417C291.928 16.64 291.514 17.0538 291.007 17.0538ZM293.25 20.9554C293.25 19.4521 294.593 18.3796 296.527 18.3796C298.343 18.3796 299.677 19.4606 299.745 20.9469H298.343C298.241 20.1024 297.557 19.5788 296.476 19.5788C295.404 19.5788 294.694 20.1109 294.694 20.8794C294.694 21.4874 295.159 21.8928 296.155 22.1461L297.515 22.4755C299.289 22.923 299.93 23.5649 299.93 24.857C299.93 26.3855 298.486 27.4665 296.434 27.4665C294.509 27.4665 293.166 26.4193 293.014 24.8654H294.483C294.644 25.7775 295.336 26.2673 296.527 26.2673C297.718 26.2673 298.452 25.7606 298.452 24.9667C298.452 24.3418 298.089 24.004 297.101 23.7422L295.556 23.3453C294.01 22.9484 293.25 22.1546 293.25 20.9554ZM301.608 16.4119H303.077V18.5316H304.783V19.7393H303.077V24.9583C303.077 25.7606 303.415 26.1237 304.166 26.1237C304.335 26.1237 304.673 26.0984 304.774 26.0815V27.3145C304.597 27.3567 304.192 27.382 303.845 27.382C302.232 27.382 301.608 26.7233 301.608 25.0343V19.7393H300.299V18.5316H301.608V16.4119ZM308.757 26.2166C310.142 26.2166 311.206 25.2454 311.206 23.9787V23.2608L308.858 23.4044C307.676 23.4804 307 24.004 307 24.8316C307 25.6677 307.701 26.2166 308.757 26.2166ZM308.428 27.4665C306.68 27.4665 305.506 26.4108 305.506 24.8316C305.506 23.3284 306.663 22.3826 308.689 22.2643L311.206 22.1208V21.3861C311.206 20.3135 310.497 19.6717 309.281 19.6717C308.149 19.6717 307.44 20.2038 307.254 21.0651H305.835C305.936 19.545 307.237 18.3796 309.314 18.3796C311.375 18.3796 312.676 19.4944 312.676 21.2425V27.3145H311.282V25.8028H311.248C310.725 26.8078 309.61 27.4665 308.428 27.4665ZM320.768 27.4665C318.53 27.4665 317.01 25.6761 317.01 22.923C317.01 20.17 318.521 18.3796 320.734 18.3796C321.992 18.3796 323.005 18.9961 323.529 19.9588H323.563V15.1283H325.032V27.3145H323.63V25.8281H323.605C323.039 26.8415 322.034 27.4665 320.768 27.4665ZM321.046 19.6717C319.492 19.6717 318.513 20.9385 318.513 22.923C318.513 24.9161 319.492 26.1744 321.046 26.1744C322.558 26.1744 323.571 24.8907 323.571 22.923C323.571 20.9638 322.558 19.6717 321.046 19.6717ZM330.214 19.6548C328.838 19.6548 327.875 20.7105 327.782 22.1714H332.553C332.52 20.702 331.599 19.6548 330.214 19.6548ZM332.52 24.7978H333.964C333.71 26.3348 332.224 27.4665 330.307 27.4665C327.79 27.4665 326.262 25.7183 326.262 22.9568C326.262 20.2291 327.816 18.3796 330.239 18.3796C332.613 18.3796 334.074 20.1024 334.074 22.7626V23.32H327.774V23.4044C327.774 25.085 328.762 26.1913 330.341 26.1913C331.456 26.1913 332.275 25.6255 332.52 24.7978ZM41.8423 41.9554C41.8423 40.4521 43.1851 39.3796 45.119 39.3796C46.9347 39.3796 48.269 40.4606 48.3365 41.9469H46.9347C46.8333 41.1024 46.1493 40.5788 45.0683 40.5788C43.9958 40.5788 43.2864 41.1109 43.2864 41.8794C43.2864 42.4874 43.7509 42.8928 44.7474 43.1461L46.107 43.4755C47.8805 43.923 48.5223 44.5649 48.5223 45.857C48.5223 47.3855 47.0782 48.4665 45.0261 48.4665C43.1006 48.4665 41.7579 47.4193 41.6059 45.8654H43.0753C43.2357 46.7775 43.9282 47.2673 45.119 47.2673C46.3097 47.2673 47.0444 46.7606 47.0444 45.9667C47.0444 45.3418 46.6813 45.004 45.6932 44.7422L44.1478 44.3453C42.6024 43.9484 41.8423 43.1546 41.8423 41.9554ZM53.2481 40.6548C51.8716 40.6548 50.9089 41.7105 50.816 43.1714H55.5874C55.5536 41.702 54.6331 40.6548 53.2481 40.6548ZM55.5536 45.7978H56.9977C56.7444 47.3348 55.2581 48.4665 53.341 48.4665C50.8244 48.4665 49.2959 46.7183 49.2959 43.9568C49.2959 41.2291 50.8498 39.3796 53.2735 39.3796C55.6465 39.3796 57.1075 41.1024 57.1075 43.7626V44.32H50.8075V44.4044C50.8075 46.085 51.7956 47.1913 53.3748 47.1913C54.4896 47.1913 55.3087 46.6255 55.5536 45.7978ZM58.2696 48.3145V39.5316H59.6545V40.9673H59.6883C59.9754 39.9961 60.7862 39.3796 61.8165 39.3796C62.0698 39.3796 62.2894 39.4219 62.4076 39.4387V40.866C62.2894 40.8237 61.9769 40.7815 61.6222 40.7815C60.4821 40.7815 59.739 41.6007 59.739 42.8421V48.3145H58.2696ZM63.3585 48.3145V39.5316H64.8279V48.3145H63.3585ZM64.0932 38.0538C63.595 38.0538 63.1812 37.64 63.1812 37.1417C63.1812 36.635 63.595 36.2296 64.0932 36.2296C64.5999 36.2296 65.0137 36.635 65.0137 37.1417C65.0137 37.64 64.5999 38.0538 64.0932 38.0538ZM70.0098 40.6548C68.6333 40.6548 67.6705 41.7105 67.5776 43.1714H72.3491C72.3153 41.702 71.3948 40.6548 70.0098 40.6548ZM72.3153 45.7978H73.7594C73.506 47.3348 72.0197 48.4665 70.1027 48.4665C67.5861 48.4665 66.0575 46.7183 66.0575 43.9568C66.0575 41.2291 67.6114 39.3796 70.0351 39.3796C72.4082 39.3796 73.8692 41.1024 73.8692 43.7626V44.32H67.5692V44.4044C67.5692 46.085 68.5573 47.1913 70.1365 47.1913C71.2512 47.1913 72.0704 46.6255 72.3153 45.7978ZM74.8792 41.9554C74.8792 40.4521 76.222 39.3796 78.1559 39.3796C79.9715 39.3796 81.3059 40.4606 81.3734 41.9469H79.9715C79.8702 41.1024 79.1862 40.5788 78.1052 40.5788C77.0327 40.5788 76.3233 41.1109 76.3233 41.8794C76.3233 42.4874 76.7878 42.8928 77.7843 43.1461L79.1439 43.4755C80.9174 43.923 81.5592 44.5649 81.5592 45.857C81.5592 47.3855 80.1151 48.4665 78.063 48.4665C76.1375 48.4665 74.7948 47.4193 74.6427 45.8654H76.1122C76.2726 46.7775 76.9651 47.2673 78.1559 47.2673C79.3466 47.2673 80.0813 46.7606 80.0813 45.9667C80.0813 45.3418 79.7182 45.004 78.7301 44.7422L77.1847 44.3453C75.6393 43.9484 74.8792 43.1546 74.8792 41.9554ZM89.2965 39.3796C90.5717 39.3796 91.5767 40.0046 92.1425 41.018H92.1763V39.5316H93.5781V51.2449H92.1087V46.845H92.0749C91.526 47.85 90.5042 48.4665 89.2627 48.4665C87.0417 48.4665 85.5554 46.6761 85.5554 43.923C85.5554 41.1615 87.0417 39.3796 89.2965 39.3796ZM89.5583 47.1744C91.0615 47.1744 92.1087 45.8823 92.1087 43.923C92.1087 41.9638 91.0615 40.6717 89.5583 40.6717C88.0213 40.6717 87.0586 41.9131 87.0586 43.923C87.0586 45.9245 88.0213 47.1744 89.5583 47.1744ZM102.383 39.5316V48.3145H100.989V46.8872H100.956C100.432 47.9006 99.5201 48.4665 98.1689 48.4665C96.2518 48.4665 95.1287 47.225 95.1287 45.232V39.5316H96.5981V44.9702C96.5981 46.3974 97.2652 47.1659 98.6249 47.1659C100.052 47.1659 100.913 46.1863 100.913 44.6915V39.5316H102.383ZM107.489 40.6548C106.112 40.6548 105.15 41.7105 105.057 43.1714H109.828C109.794 41.702 108.874 40.6548 107.489 40.6548ZM109.794 45.7978H111.238C110.985 47.3348 109.499 48.4665 107.582 48.4665C105.065 48.4665 103.537 46.7183 103.537 43.9568C103.537 41.2291 105.09 39.3796 107.514 39.3796C109.887 39.3796 111.348 41.1024 111.348 43.7626V44.32H105.048V44.4044C105.048 46.085 106.036 47.1913 107.615 47.1913C108.73 47.1913 109.549 46.6255 109.794 45.7978ZM119.043 39.3796C120.318 39.3796 121.323 40.0046 121.889 41.018H121.923V39.5316H123.325V51.2449H121.855V46.845H121.822C121.273 47.85 120.251 48.4665 119.009 48.4665C116.788 48.4665 115.302 46.6761 115.302 43.923C115.302 41.1615 116.788 39.3796 119.043 39.3796ZM119.305 47.1744C120.808 47.1744 121.855 45.8823 121.855 43.923C121.855 41.9638 120.808 40.6717 119.305 40.6717C117.768 40.6717 116.805 41.9131 116.805 43.923C116.805 45.9245 117.768 47.1744 119.305 47.1744ZM132.13 39.5316V48.3145H130.736V46.8872H130.702C130.179 47.9006 129.267 48.4665 127.916 48.4665C125.999 48.4665 124.875 47.225 124.875 45.232V39.5316H126.345V44.9702C126.345 46.3974 127.012 47.1659 128.372 47.1659C129.799 47.1659 130.66 46.1863 130.66 44.6915V39.5316H132.13ZM133.79 48.3145V39.5316H135.259V48.3145H133.79ZM134.525 38.0538C134.026 38.0538 133.613 37.64 133.613 37.1417C133.613 36.635 134.026 36.2296 134.525 36.2296C135.031 36.2296 135.445 36.635 135.445 37.1417C135.445 37.64 135.031 38.0538 134.525 38.0538ZM140.441 40.6548C139.065 40.6548 138.102 41.7105 138.009 43.1714H142.78C142.747 41.702 141.826 40.6548 140.441 40.6548ZM142.747 45.7978H144.191C143.937 47.3348 142.451 48.4665 140.534 48.4665C138.017 48.4665 136.489 46.7183 136.489 43.9568C136.489 41.2291 138.043 39.3796 140.467 39.3796C142.84 39.3796 144.301 41.1024 144.301 43.7626V44.32H138.001V44.4044C138.001 46.085 138.989 47.1913 140.568 47.1913C141.683 47.1913 142.502 46.6255 142.747 45.7978ZM145.463 48.3145V39.5316H146.848V40.9673H146.881C147.169 39.9961 147.979 39.3796 149.01 39.3796C149.263 39.3796 149.482 39.4219 149.601 39.4387V40.866C149.482 40.8237 149.17 40.7815 148.815 40.7815C147.675 40.7815 146.932 41.6007 146.932 42.8421V48.3145H145.463ZM153.693 48.4665C151.261 48.4665 149.623 46.7183 149.623 43.923C149.623 41.1193 151.261 39.3796 153.693 39.3796C156.117 39.3796 157.755 41.1193 157.755 43.923C157.755 46.7183 156.117 48.4665 153.693 48.4665ZM153.693 47.1744C155.247 47.1744 156.26 45.9921 156.26 43.923C156.26 41.854 155.247 40.6717 153.693 40.6717C152.139 40.6717 151.117 41.854 151.117 43.923C151.117 45.9921 152.139 47.1744 153.693 47.1744ZM169.343 39.5316L166.117 48.3145H164.614L161.38 39.5316H162.925L165.349 46.7521H165.383L167.815 39.5316H169.343ZM173.444 40.6548C172.068 40.6548 171.105 41.7105 171.012 43.1714H175.784C175.75 41.702 174.829 40.6548 173.444 40.6548ZM175.75 45.7978H177.194C176.941 47.3348 175.454 48.4665 173.537 48.4665C171.021 48.4665 169.492 46.7183 169.492 43.9568C169.492 41.2291 171.046 39.3796 173.47 39.3796C175.843 39.3796 177.304 41.1024 177.304 43.7626V44.32H171.004V44.4044C171.004 46.085 171.992 47.1913 173.571 47.1913C174.686 47.1913 175.505 46.6255 175.75 45.7978ZM178.466 48.3145V39.5316H179.851V40.9673H179.884C180.172 39.9961 180.982 39.3796 182.013 39.3796C182.266 39.3796 182.486 39.4219 182.604 39.4387V40.866C182.486 40.8237 182.173 40.7815 181.818 40.7815C180.678 40.7815 179.935 41.6007 179.935 42.8421V48.3145H178.466ZM184.07 36.1283H185.59L185.489 44.2693H184.171L184.07 36.1283ZM184.83 48.3989C184.289 48.3989 183.867 47.9767 183.867 47.4362C183.867 46.8872 184.289 46.4734 184.83 46.4734C185.379 46.4734 185.793 46.8872 185.793 47.4362C185.793 47.9767 185.379 48.3989 184.83 48.3989Z" fill="black"/>
<path d="M293.755 56.6006V49.3315H293.732L291.514 50.9282V49.825L293.744 48.2226H294.766V56.6006H293.755ZM297.913 56.6006L301.704 49.1748V49.1516H297.193V48.2226H302.738V49.1922L299.01 56.6006H297.913ZM305.13 55.2072C304.759 55.2072 304.468 54.9169 304.468 54.5453C304.468 54.1737 304.759 53.8834 305.13 53.8834C305.502 53.8834 305.792 54.1737 305.792 54.5453C305.792 54.9169 305.502 55.2072 305.13 55.2072ZM305.13 50.934C304.759 50.934 304.468 50.6437 304.468 50.2721C304.468 49.9005 304.759 49.6102 305.13 49.6102C305.502 49.6102 305.792 49.9005 305.792 50.2721C305.792 50.6437 305.502 50.934 305.13 50.934ZM311.842 56.6006V54.8588H307.633V53.9124C308.347 52.5887 309.328 51.0617 311.308 48.2226H312.853V53.9415H314.037V54.8588H312.853V56.6006H311.842ZM308.667 53.9182V53.9415H311.842V49.0935H311.825C310.24 51.3578 309.328 52.757 308.667 53.9182ZM318.479 56.7399C316.708 56.7399 315.443 55.7355 315.443 54.3363C315.443 53.2912 316.163 52.4319 317.242 52.1823V52.159C316.337 51.8804 315.774 51.1662 315.774 50.2837C315.774 49.018 316.923 48.0833 318.479 48.0833C320.047 48.0833 321.179 49.0122 321.179 50.2895C321.179 51.1604 320.627 51.8687 319.716 52.159V52.1823C320.802 52.4377 321.521 53.297 321.521 54.3363C321.521 55.7413 320.256 56.7399 318.479 56.7399ZM318.479 55.8284C319.635 55.8284 320.453 55.1723 320.453 54.2608C320.453 53.3376 319.635 52.6874 318.479 52.6874C317.33 52.6874 316.505 53.3435 316.505 54.2608C316.505 55.1723 317.33 55.8284 318.479 55.8284ZM318.479 51.77C319.455 51.77 320.145 51.1953 320.145 50.3824C320.145 49.558 319.46 48.9832 318.479 48.9832C317.498 48.9832 316.813 49.5638 316.813 50.3824C316.813 51.1953 317.498 51.77 318.479 51.77Z" fill="black" fill-opacity="0.25"/>
<path fill-rule="evenodd" clip-rule="evenodd" d="M339.197 48.3946L339.736 48.9208L333.9 56.9245L331.534 54.5878L332.536 53.213L333.9 54.0085L339.197 48.3946ZM334.461 48.2769L335 48.803L329.164 56.8068L325.144 52.8532L326.042 51.9776L329.164 53.8908L334.461 48.2769Z" fill="#3497F9"/>
<path d="M353.93 51.1012C348.544 48.9952 345.318 45.2238 345.318 39.9385V55.4091C349.556 55.2025 352.626 54.4479 354.529 53.145C354.714 53.0186 354.855 52.8379 354.932 52.6279C355.139 52.068 354.853 51.4462 354.293 51.2392L353.93 51.1012Z" fill="#DCF7C5"/>
<path d="M1.06928 126.002C6.45512 123.896 9.68115 120.124 9.68115 114.839V130.309C5.44372 130.103 2.37347 129.348 0.47042 128.045C0.285695 127.919 0.144818 127.738 0.067194 127.528C-0.139808 126.968 0.146286 126.347 0.706233 126.14L1.06928 126.002Z" fill="#FAFAFA"/>
<rect x="9.68115" y="74.9004" width="314.593" height="62.629" rx="8.25162" fill="#FAFAFA"/>
<path d="M30.9066 102.215H29.3865V96.6665H22.698V102.215H21.1779V90.0287H22.698V95.2984H29.3865V90.0287H30.9066V102.215ZM36.2404 94.5552C34.8639 94.5552 33.9012 95.6108 33.8083 97.0718H38.5797C38.5459 95.6024 37.6254 94.5552 36.2404 94.5552ZM38.5459 99.6982H39.99C39.7367 101.235 38.2503 102.367 36.3333 102.367C33.8167 102.367 32.2882 100.619 32.2882 97.8572C32.2882 95.1295 33.842 93.28 36.2658 93.28C38.6388 93.28 40.0998 95.0028 40.0998 97.663V98.2204H33.7998V98.3048C33.7998 99.9854 34.7879 101.092 36.3671 101.092C37.4818 101.092 38.301 100.526 38.5459 99.6982ZM47.3811 101.117C48.7661 101.117 49.8301 100.146 49.8301 98.8791V98.1612L47.4824 98.3048C46.3001 98.3808 45.6245 98.9044 45.6245 99.732C45.6245 100.568 46.3255 101.117 47.3811 101.117ZM47.0517 102.367C45.3036 102.367 44.1298 101.311 44.1298 99.732C44.1298 98.2288 45.2867 97.283 47.3135 97.1647L49.8301 97.0212V96.2864C49.8301 95.2139 49.1208 94.5721 47.9047 94.5721C46.7731 94.5721 46.0637 95.1041 45.8779 95.9655H44.4591C44.5605 94.4454 45.861 93.28 47.9385 93.28C49.999 93.28 51.2996 94.3948 51.2996 96.1429V102.215H49.9062V100.703H49.8724C49.3488 101.708 48.234 102.367 47.0517 102.367ZM52.8416 102.215V93.432H54.2266V94.8339H54.2604C54.7502 93.8881 55.6876 93.28 57.0473 93.28C58.9727 93.28 60.0875 94.5214 60.0875 96.5145V102.215H58.618V96.7763C58.618 95.3575 57.9509 94.5806 56.5997 94.5806C55.2147 94.5806 54.3111 95.5602 54.3111 97.0465V102.215H52.8416ZM57.6046 92.0977C56.4899 92.0977 56.0676 90.8141 55.4005 90.8141C55.012 90.8141 54.7671 91.2279 54.8009 92.0133H53.8044C53.8044 90.6283 54.4462 89.8598 55.4089 89.8598C56.5997 89.8598 56.9797 91.1434 57.6131 91.1434C57.9678 91.1434 58.1958 90.7465 58.1958 89.9358H59.1923C59.1923 91.287 58.5251 92.0977 57.6046 92.0977ZM64.5346 101.117C65.9196 101.117 66.9837 100.146 66.9837 98.8791V98.1612L64.6359 98.3048C63.4536 98.3808 62.778 98.9044 62.778 99.732C62.778 100.568 63.479 101.117 64.5346 101.117ZM64.2052 102.367C62.4571 102.367 61.2833 101.311 61.2833 99.732C61.2833 98.2288 62.4402 97.283 64.467 97.1647L66.9837 97.0212V96.2864C66.9837 95.2139 66.2743 94.5721 65.0582 94.5721C63.9266 94.5721 63.2172 95.1041 63.0314 95.9655H61.6126C61.714 94.4454 63.0145 93.28 65.092 93.28C67.1526 93.28 68.4531 94.3948 68.4531 96.1429V102.215H67.0597V100.703H67.0259C66.5023 101.708 65.3875 102.367 64.2052 102.367ZM73.3225 102.367C71.0846 102.367 69.5644 100.577 69.5644 97.8234C69.5644 95.0704 71.0761 93.28 73.2887 93.28C74.547 93.28 75.5604 93.8965 76.084 94.8592H76.1178V90.0287H77.5872V102.215H76.1853V100.729H76.16C75.5942 101.742 74.5892 102.367 73.3225 102.367ZM73.6012 94.5721C72.0473 94.5721 71.0677 95.8389 71.0677 97.8234C71.0677 99.8165 72.0473 101.075 73.6012 101.075C75.1128 101.075 76.1262 99.7911 76.1262 97.8234C76.1262 95.8642 75.1128 94.5721 73.6012 94.5721ZM79.3235 102.215V93.432H80.7929V102.215H79.3235ZM80.0582 91.9542C79.56 91.9542 79.1462 91.5403 79.1462 91.0421C79.1462 90.5354 79.56 90.13 80.0582 90.13C80.5649 90.13 80.9787 90.5354 80.9787 91.0421C80.9787 91.5403 80.5649 91.9542 80.0582 91.9542ZM85.7806 102.367C83.5426 102.367 82.0225 100.577 82.0225 97.8234C82.0225 95.0704 83.5342 93.28 85.7468 93.28C87.0051 93.28 88.0185 93.8965 88.5421 94.8592H88.5759V90.0287H90.0453V102.215H88.6434V100.729H88.6181C88.0523 101.742 87.0473 102.367 85.7806 102.367ZM86.0592 94.5721C84.5054 94.5721 83.5257 95.8389 83.5257 97.8234C83.5257 99.8165 84.5054 101.075 86.0592 101.075C87.5709 101.075 88.5843 99.7911 88.5843 97.8234C88.5843 95.8642 87.5709 94.5721 86.0592 94.5721ZM95.3454 102.367C92.9132 102.367 91.2749 100.619 91.2749 97.8234C91.2749 95.0197 92.9132 93.28 95.3454 93.28C97.7691 93.28 99.4074 95.0197 99.4074 97.8234C99.4074 100.619 97.7691 102.367 95.3454 102.367ZM95.3454 101.075C96.8993 101.075 97.9127 99.8925 97.9127 97.8234C97.9127 95.7544 96.8993 94.5721 95.3454 94.5721C93.7915 94.5721 92.7697 95.7544 92.7697 97.8234C92.7697 99.8925 93.7915 101.075 95.3454 101.075ZM105.076 90.0287H106.3L105.481 94.3272H103.919L105.076 90.0287ZM108.352 90.0287H109.577L108.758 94.3272H107.195L108.352 90.0287ZM110.933 98.8622H112.462C112.605 100.18 113.855 101.049 115.595 101.049C117.242 101.049 118.441 100.18 118.441 98.9804C118.441 97.9501 117.723 97.3167 116.085 96.8945L114.522 96.4891C112.276 95.9149 111.279 94.9268 111.279 93.2716C111.279 91.2448 113.053 89.826 115.586 89.826C118.01 89.826 119.767 91.2617 119.834 93.3054H118.314C118.179 91.9964 117.123 91.1941 115.536 91.1941C113.956 91.1941 112.859 92.0133 112.859 93.204C112.859 94.1245 113.534 94.6734 115.189 95.1041L116.465 95.4419C118.99 96.0753 120.012 97.0465 120.012 98.7946C120.012 101.024 118.255 102.418 115.451 102.418C112.867 102.418 111.077 101.016 110.933 98.8622ZM121.706 91.3123H123.175V93.432H124.881V94.6397H123.175V99.8587C123.175 100.661 123.513 101.024 124.264 101.024C124.433 101.024 124.771 100.999 124.873 100.982V102.215C124.695 102.257 124.29 102.282 123.944 102.282C122.331 102.282 121.706 101.624 121.706 99.9347V94.6397H120.397V93.432H121.706V91.3123ZM126.127 102.215V93.432H127.512V94.8677H127.546C127.833 93.8965 128.644 93.28 129.674 93.28C129.928 93.28 130.147 93.3222 130.266 93.3391V94.7663C130.147 94.7241 129.835 94.6819 129.48 94.6819C128.34 94.6819 127.597 95.5011 127.597 96.7425V102.215H126.127ZM133.868 101.117C135.253 101.117 136.317 100.146 136.317 98.8791V98.1612L133.969 98.3048C132.787 98.3808 132.112 98.9044 132.112 99.732C132.112 100.568 132.813 101.117 133.868 101.117ZM133.539 102.367C131.791 102.367 130.617 101.311 130.617 99.732C130.617 98.2288 131.774 97.283 133.801 97.1647L136.317 97.0212V96.2864C136.317 95.2139 135.608 94.5721 134.392 94.5721C133.26 94.5721 132.551 95.1041 132.365 95.9655H130.946C131.048 94.4454 132.348 93.28 134.426 93.28C136.486 93.28 137.787 94.3948 137.787 96.1429V102.215H136.393V100.703H136.359C135.836 101.708 134.721 102.367 133.539 102.367ZM142.901 100.99C144.429 100.99 145.451 99.7236 145.451 97.7897C145.451 95.8557 144.429 94.5721 142.901 94.5721C141.389 94.5721 140.401 95.822 140.401 97.7897C140.401 99.7573 141.389 100.99 142.901 100.99ZM142.952 105.525C141.018 105.525 139.489 104.436 139.244 102.941H140.756C141.043 103.743 141.913 104.275 143.011 104.275C144.531 104.275 145.451 103.397 145.451 102.088V100.703H145.418C144.877 101.657 143.838 102.282 142.605 102.282C140.367 102.282 138.898 100.517 138.898 97.7897C138.898 95.0366 140.367 93.28 142.639 93.28C143.881 93.28 144.911 93.8881 145.494 94.9099H145.519V93.432H146.921V102.037C146.921 104.132 145.375 105.525 142.952 105.525ZM152.035 94.5552C150.659 94.5552 149.696 95.6108 149.603 97.0718H154.374C154.341 95.6024 153.42 94.5552 152.035 94.5552ZM154.341 99.6982H155.785C155.531 101.235 154.045 102.367 152.128 102.367C149.611 102.367 148.083 100.619 148.083 97.8572C148.083 95.1295 149.637 93.28 152.06 93.28C154.433 93.28 155.894 95.0028 155.894 97.663V98.2204H149.594V98.3048C149.594 99.9854 150.583 101.092 152.162 101.092C153.276 101.092 154.096 100.526 154.341 99.6982ZM157.056 102.215V93.432H158.441V94.8677H158.475C158.762 93.8965 159.573 93.28 160.603 93.28C160.857 93.28 161.076 93.3222 161.195 93.3391V94.7663C161.076 94.7241 160.764 94.6819 160.409 94.6819C159.269 94.6819 158.526 95.5011 158.526 96.7425V102.215H157.056ZM170.123 102.215H168.602V91.3968H164.76V90.0287H173.965V91.3968H170.123V102.215ZM175.093 102.215V90.0287H176.563V94.8339H176.597C177.086 93.8543 178.049 93.28 179.383 93.28C181.309 93.28 182.474 94.5806 182.474 96.5398V102.215H181.005V96.81C181.005 95.4166 180.304 94.5806 178.927 94.5806C177.466 94.5806 176.563 95.5771 176.563 97.0972V102.215H175.093ZM184.092 102.215V93.432H185.562V102.215H184.092ZM184.827 91.9542C184.329 91.9542 183.915 91.5403 183.915 91.0421C183.915 90.5354 184.329 90.13 184.827 90.13C185.334 90.13 185.748 90.5354 185.748 91.0421C185.748 91.5403 185.334 91.9542 184.827 91.9542ZM187.222 102.215V93.432H188.607V94.8339H188.641C189.131 93.8881 190.068 93.28 191.428 93.28C193.353 93.28 194.468 94.5214 194.468 96.5145V102.215H192.998V96.7763C192.998 95.3575 192.331 94.5806 190.98 94.5806C189.595 94.5806 188.691 95.5602 188.691 97.0465V102.215H187.222ZM199.591 100.99C201.119 100.99 202.141 99.7236 202.141 97.7897C202.141 95.8557 201.119 94.5721 199.591 94.5721C198.079 94.5721 197.091 95.822 197.091 97.7897C197.091 99.7573 198.079 100.99 199.591 100.99ZM199.641 105.525C197.707 105.525 196.179 104.436 195.934 102.941H197.446C197.733 103.743 198.603 104.275 199.7 104.275C201.221 104.275 202.141 103.397 202.141 102.088V100.703H202.107C201.567 101.657 200.528 102.282 199.295 102.282C197.057 102.282 195.588 100.517 195.588 97.7897C195.588 95.0366 197.057 93.28 199.329 93.28C200.57 93.28 201.601 93.8881 202.183 94.9099H202.209V93.432H203.61V102.037C203.61 104.132 202.065 105.525 199.641 105.525ZM205.051 95.8557C205.051 94.3525 206.394 93.28 208.328 93.28C210.144 93.28 211.478 94.361 211.545 95.8473H210.144C210.042 95.0028 209.358 94.4792 208.277 94.4792C207.205 94.4792 206.495 95.0112 206.495 95.7797C206.495 96.3878 206.96 96.7931 207.956 97.0465L209.316 97.3759C211.089 97.8234 211.731 98.4653 211.731 99.7573C211.731 101.286 210.287 102.367 208.235 102.367C206.309 102.367 204.967 101.32 204.815 99.7658H206.284C206.445 100.678 207.137 101.168 208.328 101.168C209.519 101.168 210.253 100.661 210.253 99.8671C210.253 99.2422 209.89 98.9044 208.902 98.6426L207.357 98.2457C205.811 97.8488 205.051 97.0549 205.051 95.8557ZM213.611 94.3272H212.387L213.206 90.0287H214.768L213.611 94.3272ZM216.888 94.3272H215.663L216.482 90.0287H218.045L216.888 94.3272ZM225.875 101.117C227.26 101.117 228.324 100.146 228.324 98.8791V98.1612L225.976 98.3048C224.794 98.3808 224.118 98.9044 224.118 99.732C224.118 100.568 224.819 101.117 225.875 101.117ZM225.546 102.367C223.797 102.367 222.624 101.311 222.624 99.732C222.624 98.2288 223.781 97.283 225.807 97.1647L228.324 97.0212V96.2864C228.324 95.2139 227.615 94.5721 226.398 94.5721C225.267 94.5721 224.557 95.1041 224.372 95.9655H222.953C223.054 94.4454 224.355 93.28 226.432 93.28C228.493 93.28 229.793 94.3948 229.793 96.1429V102.215H228.4V100.703H228.366C227.843 101.708 226.728 102.367 225.546 102.367ZM235.031 91.3123H236.5V93.432H238.206V94.6397H236.5V99.8587C236.5 100.661 236.838 101.024 237.59 101.024C237.759 101.024 238.096 100.999 238.198 100.982V102.215C238.02 102.257 237.615 102.282 237.269 102.282C235.656 102.282 235.031 101.624 235.031 99.9347V94.6397H233.722V93.432H235.031V91.3123ZM246.665 93.432V102.215H245.271V100.788H245.238C244.714 101.801 243.802 102.367 242.451 102.367C240.534 102.367 239.411 101.125 239.411 99.1324V93.432H240.88V98.8706C240.88 100.298 241.547 101.066 242.907 101.066C244.334 101.066 245.195 100.087 245.195 98.5919V93.432H246.665ZM251.548 102.215V90.0287H253.017V102.215H251.548ZM254.753 102.215V93.432H256.223V102.215H254.753ZM255.488 91.9542C254.99 91.9542 254.576 91.5403 254.576 91.0421C254.576 90.5354 254.99 90.13 255.488 90.13C255.995 90.13 256.409 90.5354 256.409 91.0421C256.409 91.5403 255.995 91.9542 255.488 91.9542ZM257.731 95.8557C257.731 94.3525 259.074 93.28 261.008 93.28C262.823 93.28 264.158 94.361 264.225 95.8473H262.823C262.722 95.0028 262.038 94.4792 260.957 94.4792C259.885 94.4792 259.175 95.0112 259.175 95.7797C259.175 96.3878 259.64 96.7931 260.636 97.0465L261.996 97.3759C263.769 97.8234 264.411 98.4653 264.411 99.7573C264.411 101.286 262.967 102.367 260.915 102.367C258.989 102.367 257.647 101.32 257.495 99.7658H258.964C259.125 100.678 259.817 101.168 261.008 101.168C262.199 101.168 262.933 100.661 262.933 99.8671C262.933 99.2422 262.57 98.9044 261.582 98.6426L260.037 98.2457C258.491 97.8488 257.731 97.0549 257.731 95.8557ZM266.088 91.3123H267.558V93.432H269.264V94.6397H267.558V99.8587C267.558 100.661 267.896 101.024 268.647 101.024C268.816 101.024 269.154 100.999 269.255 100.982V102.215C269.078 102.257 268.672 102.282 268.326 102.282C266.713 102.282 266.088 101.624 266.088 99.9347V94.6397H264.779V93.432H266.088V91.3123ZM273.238 101.117C274.623 101.117 275.687 100.146 275.687 98.8791V98.1612L273.339 98.3048C272.157 98.3808 271.481 98.9044 271.481 99.732C271.481 100.568 272.182 101.117 273.238 101.117ZM272.909 102.367C271.16 102.367 269.987 101.311 269.987 99.732C269.987 98.2288 271.144 97.283 273.17 97.1647L275.687 97.0212V96.2864C275.687 95.2139 274.978 94.5721 273.761 94.5721C272.63 94.5721 271.92 95.1041 271.735 95.9655H270.316C270.417 94.4454 271.718 93.28 273.795 93.28C275.856 93.28 277.156 94.3948 277.156 96.1429V102.215H275.763V100.703H275.729C275.206 101.708 274.091 102.367 272.909 102.367ZM285.248 102.367C283.01 102.367 281.49 100.577 281.49 97.8234C281.49 95.0704 283.002 93.28 285.215 93.28C286.473 93.28 287.486 93.8965 288.01 94.8592H288.044V90.0287H289.513V102.215H288.111V100.729H288.086C287.52 101.742 286.515 102.367 285.248 102.367ZM285.527 94.5721C283.973 94.5721 282.994 95.8389 282.994 97.8234C282.994 99.8165 283.973 101.075 285.527 101.075C287.039 101.075 288.052 99.7911 288.052 97.8234C288.052 95.8642 287.039 94.5721 285.527 94.5721ZM294.695 94.5552C293.318 94.5552 292.356 95.6108 292.263 97.0718H297.034C297 95.6024 296.08 94.5552 294.695 94.5552ZM297 99.6982H298.445C298.191 101.235 296.705 102.367 294.788 102.367C292.271 102.367 290.743 100.619 290.743 97.8572C290.743 95.1295 292.297 93.28 294.72 93.28C297.093 93.28 298.554 95.0028 298.554 97.663V98.2204H292.254V98.3048C292.254 99.9854 293.242 101.092 294.822 101.092C295.936 101.092 296.756 100.526 297 99.6982ZM20.7979 116.856C20.7979 115.353 22.1406 114.28 24.0745 114.28C25.8902 114.28 27.2245 115.361 27.2921 116.847H25.8902C25.7889 116.003 25.1048 115.479 24.0239 115.479C22.9514 115.479 22.242 116.011 22.242 116.78C22.242 117.388 22.7065 117.793 23.703 118.046L25.0626 118.376C26.8361 118.823 27.4779 119.465 27.4779 120.757C27.4779 122.286 26.0338 123.367 23.9817 123.367C22.0562 123.367 20.7134 122.32 20.5614 120.766H22.0309C22.1913 121.678 22.8838 122.168 24.0745 122.168C25.2653 122.168 26 121.661 26 120.867C26 120.242 25.6369 119.904 24.6488 119.643L23.1034 119.246C21.5579 118.849 20.7979 118.055 20.7979 116.856ZM32.2037 115.555C30.8272 115.555 29.8644 116.611 29.7716 118.072H34.543C34.5092 116.602 33.5887 115.555 32.2037 115.555ZM34.5092 120.698H35.9533C35.7 122.235 34.2136 123.367 32.2966 123.367C29.78 123.367 28.2514 121.619 28.2514 118.857C28.2514 116.129 29.8053 114.28 32.2291 114.28C34.6021 114.28 36.0631 116.003 36.0631 118.663V119.22H29.7631V119.305C29.7631 120.985 30.7512 122.092 32.3304 122.092C33.4451 122.092 34.2643 121.526 34.5092 120.698ZM37.2251 123.215V114.432H38.6101V115.868H38.6439C38.931 114.897 39.7417 114.28 40.772 114.28C41.0254 114.28 41.2449 114.322 41.3632 114.339V115.766C41.2449 115.724 40.9325 115.682 40.5778 115.682C39.4377 115.682 38.6946 116.501 38.6946 117.742V123.215H37.2251ZM42.3141 123.215V114.432H43.7835V123.215H42.3141ZM43.0488 112.954C42.5505 112.954 42.1367 112.54 42.1367 112.042C42.1367 111.535 42.5505 111.13 43.0488 111.13C43.5555 111.13 43.9693 111.535 43.9693 112.042C43.9693 112.54 43.5555 112.954 43.0488 112.954ZM48.9654 115.555C47.5888 115.555 46.6261 116.611 46.5332 118.072H51.3046C51.2709 116.602 50.3504 115.555 48.9654 115.555ZM51.2709 120.698H52.715C52.4616 122.235 50.9753 123.367 49.0583 123.367C46.5417 123.367 45.0131 121.619 45.0131 118.857C45.0131 116.129 46.567 114.28 48.9907 114.28C51.3638 114.28 52.8247 116.003 52.8247 118.663V119.22H46.5248V119.305C46.5248 120.985 47.5128 122.092 49.0921 122.092C50.2068 122.092 51.026 121.526 51.2709 120.698ZM53.8348 116.856C53.8348 115.353 55.1775 114.28 57.1114 114.28C58.9271 114.28 60.2614 115.361 60.329 116.847H58.9271C58.8258 116.003 58.1417 115.479 57.0608 115.479C55.9882 115.479 55.2789 116.011 55.2789 116.78C55.2789 117.388 55.7433 117.793 56.7399 118.046L58.0995 118.376C59.873 118.823 60.5148 119.465 60.5148 120.757C60.5148 122.286 59.0707 123.367 57.0185 123.367C55.0931 123.367 53.7503 122.32 53.5983 120.766H55.0677C55.2282 121.678 55.9207 122.168 57.1114 122.168C58.3022 122.168 59.0369 121.661 59.0369 120.867C59.0369 120.242 58.6738 119.904 57.6857 119.643L56.1403 119.246C54.5948 118.849 53.8348 118.055 53.8348 116.856ZM68.2521 114.28C69.5273 114.28 70.5322 114.905 71.0981 115.918H71.1318V114.432H72.5337V126.145H71.0643V121.745H71.0305C70.4816 122.75 69.4597 123.367 68.2183 123.367C65.9973 123.367 64.511 121.577 64.511 118.823C64.511 116.062 65.9973 114.28 68.2521 114.28ZM68.5139 122.075C70.0171 122.075 71.0643 120.783 71.0643 118.823C71.0643 116.864 70.0171 115.572 68.5139 115.572C66.9769 115.572 66.0142 116.814 66.0142 118.823C66.0142 120.825 66.9769 122.075 68.5139 122.075ZM81.3385 114.432V123.215H79.9451V121.788H79.9113C79.3877 122.801 78.4756 123.367 77.1244 123.367C75.2074 123.367 74.0842 122.125 74.0842 120.132V114.432H75.5537V119.871C75.5537 121.298 76.2208 122.066 77.5805 122.066C79.0077 122.066 79.8691 121.087 79.8691 119.592V114.432H81.3385ZM86.4443 115.555C85.0678 115.555 84.1051 116.611 84.0122 118.072H88.7836C88.7498 116.602 87.8293 115.555 86.4443 115.555ZM88.7498 120.698H90.1939C89.9406 122.235 88.4543 123.367 86.5372 123.367C84.0206 123.367 82.4921 121.619 82.4921 118.857C82.4921 116.129 84.046 114.28 86.4697 114.28C88.8427 114.28 90.3037 116.003 90.3037 118.663V119.22H84.0037V119.305C84.0037 120.985 84.9918 122.092 86.571 122.092C87.6858 122.092 88.5049 121.526 88.7498 120.698ZM97.9988 114.28C99.274 114.28 100.279 114.905 100.845 115.918H100.879V114.432H102.28V126.145H100.811V121.745H100.777C100.228 122.75 99.2064 123.367 97.965 123.367C95.744 123.367 94.2577 121.577 94.2577 118.823C94.2577 116.062 95.744 114.28 97.9988 114.28ZM98.2606 122.075C99.7638 122.075 100.811 120.783 100.811 118.823C100.811 116.864 99.7638 115.572 98.2606 115.572C96.7236 115.572 95.7609 116.814 95.7609 118.823C95.7609 120.825 96.7236 122.075 98.2606 122.075ZM111.085 114.432V123.215H109.692V121.788H109.658C109.134 122.801 108.222 123.367 106.871 123.367C104.954 123.367 103.831 122.125 103.831 120.132V114.432H105.3V119.871C105.3 121.298 105.968 122.066 107.327 122.066C108.754 122.066 109.616 121.087 109.616 119.592V114.432H111.085ZM112.745 123.215V114.432H114.215V123.215H112.745ZM113.48 112.954C112.982 112.954 112.568 112.54 112.568 112.042C112.568 111.535 112.982 111.13 113.48 111.13C113.987 111.13 114.401 111.535 114.401 112.042C114.401 112.54 113.987 112.954 113.48 112.954ZM119.397 115.555C118.02 115.555 117.058 116.611 116.965 118.072H121.736C121.702 116.602 120.782 115.555 119.397 115.555ZM121.702 120.698H123.146C122.893 122.235 121.407 123.367 119.49 123.367C116.973 123.367 115.445 121.619 115.445 118.857C115.445 116.129 116.998 114.28 119.422 114.28C121.795 114.28 123.256 116.003 123.256 118.663V119.22H116.956V119.305C116.956 120.985 117.944 122.092 119.523 122.092C120.638 122.092 121.457 121.526 121.702 120.698ZM124.418 123.215V114.432H125.803V115.868H125.837C126.124 114.897 126.935 114.28 127.965 114.28C128.218 114.28 128.438 114.322 128.556 114.339V115.766C128.438 115.724 128.126 115.682 127.771 115.682C126.631 115.682 125.888 116.501 125.888 117.742V123.215H124.418ZM132.53 115.555C131.154 115.555 130.191 116.611 130.098 118.072H134.87C134.836 116.602 133.915 115.555 132.53 115.555ZM134.836 120.698H136.28C136.027 122.235 134.54 123.367 132.623 123.367C130.107 123.367 128.578 121.619 128.578 118.857C128.578 116.129 130.132 114.28 132.556 114.28C134.929 114.28 136.39 116.003 136.39 118.663V119.22H130.09V119.305C130.09 120.985 131.078 122.092 132.657 122.092C133.772 122.092 134.591 121.526 134.836 120.698ZM137.4 116.856C137.4 115.353 138.743 114.28 140.677 114.28C142.492 114.28 143.827 115.361 143.894 116.847H142.492C142.391 116.003 141.707 115.479 140.626 115.479C139.553 115.479 138.844 116.011 138.844 116.78C138.844 117.388 139.308 117.793 140.305 118.046L141.665 118.376C143.438 118.823 144.08 119.465 144.08 120.757C144.08 122.286 142.636 123.367 140.584 123.367C138.658 123.367 137.315 122.32 137.163 120.766H138.633C138.793 121.678 139.486 122.168 140.677 122.168C141.867 122.168 142.602 121.661 142.602 120.867C142.602 120.242 142.239 119.904 141.251 119.643L139.705 119.246C138.16 118.849 137.4 118.055 137.4 116.856ZM155.71 114.432L152.484 123.215H150.981L147.747 114.432H149.292L151.716 121.653H151.75L154.182 114.432H155.71ZM159.811 115.555C158.435 115.555 157.472 116.611 157.379 118.072H162.15C162.117 116.602 161.196 115.555 159.811 115.555ZM162.117 120.698H163.561C163.307 122.235 161.821 123.367 159.904 123.367C157.388 123.367 155.859 121.619 155.859 118.857C155.859 116.129 157.413 114.28 159.837 114.28C162.21 114.28 163.671 116.003 163.671 118.663V119.22H157.371V119.305C157.371 120.985 158.359 122.092 159.938 122.092C161.053 122.092 161.872 121.526 162.117 120.698ZM164.833 123.215V114.432H166.218V115.868H166.251C166.539 114.897 167.349 114.28 168.38 114.28C168.633 114.28 168.852 114.322 168.971 114.339V115.766C168.852 115.724 168.54 115.682 168.185 115.682C167.045 115.682 166.302 116.501 166.302 117.742V123.215H164.833ZM170.243 123.299C169.702 123.299 169.28 122.877 169.28 122.337C169.28 121.796 169.702 121.374 170.243 121.374C170.783 121.374 171.205 121.796 171.205 122.337C171.205 122.877 170.783 123.299 170.243 123.299Z" fill="black"/>
<path d="M290.394 131.13V123.861H290.371L288.153 125.457V124.354L290.383 122.752H291.405V131.13H290.394ZM294.552 131.13L298.343 123.704V123.681H293.832V122.752H299.377V123.721L295.649 131.13H294.552ZM301.769 129.736C301.398 129.736 301.108 129.446 301.108 129.075C301.108 128.703 301.398 128.413 301.769 128.413C302.141 128.413 302.431 128.703 302.431 129.075C302.431 129.446 302.141 129.736 301.769 129.736ZM301.769 125.463C301.398 125.463 301.108 125.173 301.108 124.801C301.108 124.43 301.398 124.14 301.769 124.14C302.141 124.14 302.431 124.43 302.431 124.801C302.431 125.173 302.141 125.463 301.769 125.463ZM308.482 131.13V129.388H304.272V128.442C304.986 127.118 305.968 125.591 307.947 122.752H309.492V128.471H310.676V129.388H309.492V131.13H308.482ZM305.306 128.448V128.471H308.482V123.623H308.464C306.879 125.887 305.968 127.286 305.306 128.448ZM315.118 131.269C313.347 131.269 312.082 130.265 312.082 128.866C312.082 127.82 312.802 126.961 313.882 126.712V126.688C312.976 126.41 312.413 125.696 312.413 124.813C312.413 123.547 313.562 122.613 315.118 122.613C316.686 122.613 317.818 123.542 317.818 124.819C317.818 125.69 317.267 126.398 316.355 126.688V126.712C317.441 126.967 318.161 127.826 318.161 128.866C318.161 130.271 316.895 131.269 315.118 131.269ZM315.118 130.358C316.274 130.358 317.092 129.702 317.092 128.79C317.092 127.867 316.274 127.217 315.118 127.217C313.969 127.217 313.144 127.873 313.144 128.79C313.144 129.702 313.969 130.358 315.118 130.358ZM315.118 126.299C316.094 126.299 316.785 125.725 316.785 124.912C316.785 124.087 316.1 123.512 315.118 123.512C314.137 123.512 313.452 124.093 313.452 124.912C313.452 125.725 314.137 126.299 315.118 126.299Z" fill="black" fill-opacity="0.25"/>
</svg>
