<svg width="19" height="19" viewBox="0 0 19 19" fill="none" xmlns="http://www.w3.org/2000/svg">
<g opacity="0.75">
<mask id="mask0_1286_622" style="mask-type:alpha" maskUnits="userSpaceOnUse" x="0" y="0" width="19" height="19">
<rect x="0.5" y="18.0752" width="18" height="18" transform="rotate(-90 0.5 18.0752)" fill="#D9D9D9"/>
</mask>
<g mask="url(#mask0_1286_622)">
<path d="M9.50079 11.2337L12.5555 8.17874C12.6594 8.07499 12.79 8.02186 12.9472 8.01936C13.1044 8.01699 13.2373 8.07011 13.346 8.17874C13.4547 8.28749 13.509 8.41924 13.509 8.57399C13.509 8.72874 13.4547 8.86049 13.346 8.96924L9.97536 12.3399C9.90511 12.4101 9.83104 12.4596 9.75317 12.4884C9.67529 12.5173 9.59117 12.5317 9.50079 12.5317C9.41042 12.5317 9.32629 12.5173 9.24842 12.4884C9.17054 12.4596 9.09648 12.4101 9.02623 12.3399L5.65554 8.96924C5.55179 8.86536 5.49867 8.7348 5.49617 8.57755C5.49379 8.42043 5.54692 8.28749 5.65554 8.17874C5.76429 8.07011 5.89604 8.0158 6.05079 8.0158C6.20554 8.0158 6.3373 8.07011 6.44605 8.17874L9.50079 11.2337Z" fill="#142B4E"/>
</g>
</g>
</svg>
