<svg width="21" height="20" viewBox="0 0 21 20" fill="none" xmlns="http://www.w3.org/2000/svg">
<mask id="mask0_1611_98" style="mask-type:alpha" maskUnits="userSpaceOnUse" x="0" y="0" width="21" height="20">
<rect x="0.5" width="20" height="20" fill="#D9D9D9"/>
</mask>
<g mask="url(#mask0_1611_98)">
<path d="M16.0383 10.6171H3.2002C3.02311 10.6171 2.87464 10.5572 2.75478 10.4375C2.63506 10.3176 2.5752 10.1691 2.5752 9.99185C2.5752 9.81477 2.63506 9.66636 2.75478 9.54664C2.87464 9.42706 3.02311 9.36727 3.2002 9.36727H16.0383L12.4244 5.7406C12.3109 5.62657 12.2515 5.484 12.2462 5.31289C12.2411 5.14178 12.3005 4.99379 12.4244 4.86893C12.538 4.75449 12.6826 4.69727 12.8581 4.69727C13.0338 4.69727 13.1793 4.75497 13.2946 4.87039L17.8892 9.46497C17.9672 9.54289 18.0222 9.62553 18.0542 9.71289C18.0862 9.80011 18.1023 9.89359 18.1023 9.99331C18.1023 10.093 18.0862 10.1878 18.0539 10.2775C18.0216 10.3672 17.9667 10.4505 17.8892 10.5275L13.2946 15.1221C13.1805 15.2373 13.038 15.295 12.8669 15.295C12.6959 15.295 12.5484 15.2373 12.4244 15.1221C12.2952 14.998 12.2319 14.8495 12.2346 14.6764C12.2372 14.5034 12.3005 14.3549 12.4244 14.231L16.0383 10.6171Z" fill="#F6F2FB"/>
</g>
</svg>
