<svg width="1559" height="349" viewBox="0 0 1559 349" fill="none" xmlns="http://www.w3.org/2000/svg">
<g clip-path="url(#clip0_1_2)">
<path d="M1559 343.018H1497.28V0H1559V343.018Z" fill="#1E272D"/>
<path d="M1448.72 343.018H1387V0H1448.72V343.018Z" fill="#1E272D"/>
<path d="M1356.63 198.541C1356.63 203.644 1356.15 209.863 1355.19 217.199H1116.68C1120.67 239.365 1131.12 257.385 1148.02 271.259C1164.93 285.133 1185.34 292.07 1209.26 292.07C1240.68 292.07 1266.12 279.631 1285.58 254.754L1333.66 289.199C1318.19 308.654 1299.53 323.485 1277.68 333.691C1255.83 343.897 1232.55 349 1207.83 349C1179.28 349 1153.29 342.382 1129.84 329.146C1106.4 315.91 1088.06 297.89 1074.82 275.086C1061.58 252.123 1054.96 226.767 1054.96 199.019C1054.96 171.431 1061.42 146.235 1074.34 123.431C1087.42 100.468 1105.44 82.3678 1128.41 69.1319C1151.53 55.7365 1177.29 49.0388 1205.68 49.0388C1227.05 49.0388 1247.06 52.866 1265.72 60.5205C1284.38 68.0156 1300.33 78.3811 1313.56 91.617C1326.96 104.693 1337.49 120.481 1345.14 138.979C1352.8 157.478 1356.63 177.332 1356.63 198.541ZM1120.03 164.096H1294.43C1288.37 145.119 1277.52 130.448 1261.89 120.082C1246.42 109.717 1228 104.534 1206.63 104.534C1186.06 104.534 1167.96 109.876 1152.33 120.561C1136.86 131.245 1126.09 145.757 1120.03 164.096Z" fill="#1E272D"/>
<path d="M939.897 281.303L995.158 55.0166H1054.96L990.373 295.416C985.908 312.16 979.848 324.838 972.192 333.45C964.697 342.061 954.41 346.367 941.333 346.367C927.936 346.367 917.41 342.061 909.755 333.45C902.259 324.679 896.438 311.682 892.292 294.459L848.753 128.931L805.214 294.459C801.227 311.523 795.406 324.44 787.751 333.21C780.255 341.981 769.889 346.367 756.652 346.367C743.415 346.367 733.049 342.141 725.553 333.689C718.057 325.077 712.077 312.32 707.611 295.416L643.021 55.0166H705.219L759.523 280.346L808.563 88.2659C811.115 77.5815 815.9 68.8905 822.917 62.1928C830.094 55.3356 839.184 51.907 850.188 51.907C861.512 51.907 870.762 55.3356 877.938 62.1928C885.275 69.0499 890.059 77.9005 892.292 88.7443L939.897 281.303Z" fill="#1E272D"/>
<path d="M529.872 190.645L657.378 343.018H577.477L467.195 204.758V343.018H405.954V0H467.195V179.881L572.932 55.0168H649.962L529.872 190.645Z" fill="#1E272D"/>
<path d="M251.419 49.0388C283.953 49.0388 310.188 59.1651 330.123 79.4176C350.218 99.5107 360.266 126.301 360.266 159.79V343.02H298.546V170.076C298.546 150.302 293.203 134.833 282.518 123.67C271.992 112.507 257.718 106.926 239.697 106.926C220.719 106.926 205.488 112.747 194.005 124.388C182.682 135.87 177.02 151.258 177.02 170.554V343.02H115.301V55.0189H174.15V83.4841C182.762 72.4807 193.766 64.0289 207.162 58.1285C220.718 52.0687 235.471 49.0388 251.419 49.0388Z" fill="#1E272D"/>
<path d="M62.1981 343.018H0V0H62.1981V343.018Z" fill="#1E272D"/>
</g>
<defs>
<clipPath id="clip0_1_2">
<rect width="1559" height="349" fill="white"/>
</clipPath>
</defs>
</svg>
