<svg width="1406" height="177" viewBox="0 0 1406 177" fill="none" xmlns="http://www.w3.org/2000/svg">
<path d="M0.559799 171.14V6.44039H36.6498V29.0804C41.6798 20.5504 48.1298 14.1004 56.0098 9.72039C63.8798 5.35039 72.8498 3.16039 82.9098 3.16039C96.0298 3.16039 107.19 6.11039 116.38 12.0204C125.57 17.9304 132.24 26.9004 136.39 38.9204C141.2 27.3304 147.98 18.4704 156.73 12.3404C165.48 6.22039 175.76 3.15039 187.57 3.15039C206.6 3.15039 221.25 9.22039 231.53 21.3604C241.81 33.5004 246.84 52.1504 246.62 77.3004V171.13H210.2V87.1404C210.2 74.0204 208.77 63.9004 205.93 56.7904C203.09 49.6904 199.26 44.7104 194.45 41.8604C189.64 39.0204 184.06 37.5904 177.72 37.5904C166.34 37.3704 157.54 41.4204 151.31 49.7304C145.08 58.0404 141.96 69.9604 141.96 85.4904V171.12H105.21V87.1304C105.21 74.0104 103.84 63.8904 101.11 56.7804C98.3698 49.6804 94.5998 44.7004 89.7898 41.8504C84.9798 39.0104 79.3998 37.5804 73.0598 37.5804C61.6798 37.3604 52.8798 41.4104 46.6498 49.7204C40.4198 58.0304 37.2998 69.9504 37.2998 85.4804V171.11H0.549805L0.559799 171.14Z" fill="black"/>
<path d="M464.81 171.14V6.44039H500.9V29.0804C505.93 20.5504 512.38 14.1004 520.26 9.72039C528.13 5.35039 537.1 3.16039 547.16 3.16039C560.28 3.16039 571.44 6.11039 580.63 12.0204C589.82 17.9304 596.49 26.9004 600.64 38.9204C605.45 27.3304 612.23 18.4704 620.98 12.3404C629.73 6.22039 640.01 3.15039 651.82 3.15039C670.85 3.15039 685.5 9.22039 695.78 21.3604C706.06 33.5004 711.09 52.1504 710.87 77.3004V171.13H674.45V87.1404C674.45 74.0204 673.02 63.9004 670.18 56.7904C667.34 49.6904 663.51 44.7104 658.7 41.8604C653.89 39.0204 648.31 37.5904 641.97 37.5904C630.59 37.3704 621.79 41.4204 615.56 49.7304C609.33 58.0404 606.21 69.9604 606.21 85.4904V171.12H569.46V87.1304C569.46 74.0104 568.09 63.8904 565.36 56.7804C562.62 49.6804 558.85 44.7004 554.04 41.8504C549.23 39.0104 543.65 37.5804 537.31 37.5804C525.93 37.3604 517.13 41.4104 510.9 49.7204C504.67 58.0304 501.55 69.9504 501.55 85.4804V171.11H464.8L464.81 171.14Z" fill="black"/>
<path d="M959.42 171.14V6.43969H996.17V36.9497C1002.73 26.6697 1011.26 19.0197 1021.76 13.9797C1032.26 8.94969 1043.09 6.42969 1054.24 6.42969V41.5397C1044.18 41.5397 1034.72 42.9097 1025.86 45.6397C1017 48.3797 1009.83 52.8097 1004.37 58.9297C998.9 65.0597 996.17 73.1497 996.17 83.2097V171.14H959.42Z" fill="black"/>
<path d="M1067.68 124.959C1067.68 92.6695 1094.59 70.1395 1145.04 70.1395H1174.64V66.0995C1174.64 45.5795 1162.2 32.7995 1141.01 32.7995C1122.85 32.7995 1107.71 44.2395 1106.37 61.0495H1069.04C1070.72 26.4095 1100.66 2.18945 1141.69 2.18945C1185.41 2.18945 1212.32 28.7595 1212.32 69.4595V171.029H1175.66V153.879C1164.9 166.659 1146.73 175.409 1128.91 175.409C1091.91 175.409 1067.7 155.569 1067.7 124.959H1067.68ZM1131.69 145.649C1156.16 145.649 1175.26 125.869 1175.26 100.069V97.3895H1145.76C1118.61 97.3895 1104.2 106.439 1104.2 123.529C1104.2 136.599 1113.92 145.649 1131.68 145.649H1131.69Z" fill="black"/>
<path d="M1239.16 90.6494C1239.16 40.1994 1279.18 2.18945 1325.26 2.18945C1371.34 2.18945 1405.64 37.1694 1405.64 81.8994C1405.64 85.9394 1405.3 91.3195 1404.29 98.7195H1275.81C1279.51 126.299 1300.36 143.449 1326.26 143.449C1345.77 143.449 1362.25 133.699 1366.62 118.899H1403.62C1395.55 151.189 1365.28 175.399 1323.91 175.399C1274.81 175.399 1239.15 137.729 1239.15 90.6395L1239.16 90.6494ZM1367.31 68.1194C1365.96 49.2894 1348.48 34.1494 1325.27 34.1494C1304.08 34.1494 1285.92 47.2694 1278.52 68.1194H1367.31Z" fill="black"/>
<path d="M273.84 90.6502C273.84 40.3702 313.73 2.49023 359.66 2.49023C405.59 2.49023 439.78 37.3502 439.78 81.9402C439.78 85.9602 439.45 91.3302 438.44 98.7002H310.39C314.08 126.19 334.86 143.28 360.67 143.28C380.11 143.28 396.54 133.56 400.9 118.81H437.78C429.73 150.99 399.56 175.13 358.33 175.13C309.39 175.13 273.85 137.59 273.85 90.6502H273.84ZM401.56 68.2002C400.22 49.4302 382.79 34.3402 359.66 34.3402C338.54 34.3402 320.44 47.4102 313.06 68.2002H401.56Z" fill="black"/>
<path d="M836.11 176.649C787.67 176.649 748.26 137.239 748.26 88.7992C748.26 40.3592 787.67 0.949219 836.11 0.949219C884.55 0.949219 923.96 40.3592 923.96 88.7992C923.96 137.239 884.55 176.649 836.11 176.649ZM836.11 11.9492C793.73 11.9492 759.26 46.4292 759.26 88.7992C759.26 131.169 793.74 165.649 836.11 165.649C878.48 165.649 912.96 131.169 912.96 88.7992C912.96 46.4292 878.48 11.9492 836.11 11.9492Z" fill="black"/>
<path d="M854.26 97.3594H831.66C830.7 97.3594 829.99 98.2894 830.28 99.1994C833.46 109.259 852.55 109.229 855.64 99.1894C855.92 98.2794 855.21 97.3594 854.26 97.3594Z" fill="black"/>
<path d="M812.67 72.7391C813.71 71.7291 813.71 70.0291 812.64 69.0491C810.02 66.6491 806.31 65.4591 801.47 66.4491C788.74 69.0391 787.95 94.4091 802.14 97.2391C812.14 99.2291 817.39 90.4091 817.43 81.6491C817.43 80.5591 816.75 79.5891 815.73 79.2191L812.49 78.0691C810.71 77.4391 810.21 75.1491 811.56 73.8291L812.67 72.7491V72.7391Z" fill="black"/>
<path d="M885.9 72.7391C886.94 71.7291 886.94 70.0291 885.87 69.0491C883.25 66.6491 879.54 65.4591 874.7 66.4491C861.97 69.0391 861.18 94.4091 875.37 97.2391C885.37 99.2291 890.62 90.4091 890.66 81.6491C890.66 80.5591 889.98 79.5891 888.96 79.2191L885.72 78.0691C883.94 77.4391 883.44 75.1491 884.79 73.8291L885.9 72.7491V72.7391Z" fill="black"/>
</svg>
