<svg xmlns="http://www.w3.org/2000/svg" width="19" height="20" viewBox="0 0 19 20" fill="none">
  <mask id="mask0_358_7810" style="mask-type:alpha" maskUnits="userSpaceOnUse" x="0" y="0" width="19" height="20">
    <rect y="0.912109" width="19" height="19" fill="#23CF67"/>
  </mask>
  <g mask="url(#mask0_358_7810)">
    <path d="M6.97045 18.2225L5.55772 15.8416L2.87516 15.2538L3.137 12.4922L1.31934 10.4125L3.137 8.33282L2.87516 5.57129L5.55772 4.98348L6.97045 2.60254L9.49468 3.67426L12.0189 2.60254L13.4316 4.98348L16.1142 5.57129L15.8524 8.33282L17.67 10.4125L15.8524 12.4922L16.1142 15.2538L13.4316 15.8416L12.0189 18.2225L9.49468 17.1508L6.97045 18.2225ZM7.47593 16.7063L9.49468 15.8507L11.5378 16.7063L12.6613 14.8063L14.8384 14.3069L14.6405 12.075L16.1051 10.4125L14.6405 8.72569L14.8384 6.49378L12.6613 6.01878L11.5134 4.11878L9.49468 4.97437L7.45159 4.11878L6.32801 6.01878L4.15093 6.49378L4.34885 8.72569L2.88426 10.4125L4.34885 12.075L4.15093 14.3313L6.32801 14.8063L7.47593 16.7063ZM8.66343 12.9488L12.8622 8.75003L12.028 7.89147L8.66343 11.2561L6.96135 9.57831L6.12713 10.4125L8.66343 12.9488Z" fill="#23CF67"/>
  </g>
</svg>